<svg version="1.1" xmlns="http://www.w3.org/2000/svg" xmlns:xlink="http://www.w3.org/1999/xlink" width="63.95694" height="132.54981" viewBox="0,0,63.95694,132.54981"><g transform="translate(-208.02153,-113.72509)"><g data-paper-data="{&quot;isPaintingLayer&quot;:true}" fill-rule="nonzero" stroke="none" stroke-linecap="butt" stroke-linejoin="miter" stroke-miterlimit="10" stroke-dasharray="" stroke-dashoffset="0" style="mix-blend-mode: normal"><path d="M223.33804,221.44247v-81.15809h33.32393v81.15809z" fill-opacity="0.47" fill="#000000" stroke-width="1"/><path d="M239.45204,184.3994c0,-0.87674 0.13568,-1.62824 0.40706,-2.25449c0.29225,-0.62625 0.64712,-1.17943 1.06462,-1.65955c0.43837,-0.48012 0.89762,-0.92893 1.37774,-1.34643c0.50099,-0.4175 0.97069,-0.835 1.40905,-1.25249c0.43837,-0.43837 0.79324,-0.90806 1.06462,-1.40905c0.27138,-0.52187 0.40706,-1.12724 0.40706,-1.81611c0,-1.12724 -0.43837,-2.04574 -1.31511,-2.75549c-0.87674,-0.70974 -2.1188,-1.06462 -3.72617,-1.06462c-1.33599,0 -2.49454,0.21919 -3.47566,0.65756c-0.98112,0.4175 -1.81611,1.04375 -2.50499,1.87874l-1.65955,-1.2525c0.83499,-1.04375 1.91005,-1.84743 3.22516,-2.41105c1.31511,-0.56362 2.83898,-0.84544 4.5716,-0.84544c1.46124,0 2.72417,0.21919 3.78879,0.65756c1.0855,0.43837 1.92049,1.06462 2.50499,1.87874c0.60537,0.81412 0.90805,1.7848 0.90805,2.91204c0,0.89762 -0.14612,1.67 -0.43837,2.31712c-0.27138,0.62625 -0.62625,1.18987 -1.06462,1.69086c-0.4175,0.48012 -0.87675,0.93938 -1.37774,1.37775c-0.48012,0.4175 -0.93937,0.84543 -1.37774,1.2838c-0.43837,0.43837 -0.79324,0.92893 -1.06462,1.47168c-0.27138,0.54274 -0.40706,1.18987 -0.40706,1.94137zM240.61059,191.13155c-0.43837,0 -0.82456,-0.15656 -1.15856,-0.46968c-0.31313,-0.334 -0.46968,-0.72019 -0.46968,-1.15856c0,-0.45925 0.15656,-0.835 0.46968,-1.12725c0.334,-0.31313 0.72019,-0.46968 1.15856,-0.46968c0.48012,0 0.87674,0.15656 1.18986,0.46968c0.31313,0.29225 0.46968,0.668 0.46968,1.12725c0,0.43837 -0.15656,0.82456 -0.46968,1.15856c-0.31313,0.31313 -0.70974,0.46968 -1.18986,0.46968z" fill="#ffffff" stroke-width="1"/><path d="M271.97847,246.25981l-63.92564,0.0151l-0.0313,-132.53471l63.92564,-0.0151z" fill="none" stroke-width="0"/></g></g></svg>