<svg version="1.1" xmlns="http://www.w3.org/2000/svg" xmlns:xlink="http://www.w3.org/1999/xlink" width="489.48949" height="363.88627" viewBox="0,0,489.48949,363.88627"><defs><linearGradient x1="240.00002" y1="361.68168" x2="240.00002" y2="-1.68168" gradientUnits="userSpaceOnUse" id="color-1"><stop offset="0" stop-color="#6900b3"/><stop offset="1" stop-color="#f350f5"/></linearGradient></defs><g transform="translate(4.74473,1.68168)"><g data-paper-data="{&quot;isPaintingLayer&quot;:true}" fill-rule="nonzero" stroke-width="0" stroke-linecap="butt" stroke-linejoin="miter" stroke-miterlimit="10" stroke-dasharray="" stroke-dashoffset="0" style="mix-blend-mode: normal"><path d="M484.74477,-1.68168v363.36336h-489.48949v-363.36336z" data-paper-data="{&quot;index&quot;:null}" fill="url(#color-1)" stroke="#000000"/><path d="M-3.27198,360.46881v-221h43v221z" fill-opacity="0.14516" fill="#050505" stroke="none"/><path d="M106.72691,360.20459v-288h60v288z" fill-opacity="0.14516" fill="#050505" stroke="none"/><path d="M184.50004,358.20459v-235h34v235z" fill-opacity="0.14516" fill="#050505" stroke="none"/><path d="M233.50004,358.43257v-125.65275h60v125.65275z" fill-opacity="0.14516" fill="#050505" stroke="none"/><path d="M311.50003,360.20459v-272h40v272z" fill-opacity="0.14516" fill="#050505" stroke="none"/><path d="M369.50003,362.20459v-198h35v198z" fill-opacity="0.14516" fill="#050505" stroke="none"/><path d="M418.50003,359.20459v-245.40918h64v245.40918z" fill-opacity="0.14516" fill="#050505" stroke="none"/><path d="M47.27206,360.32891v-255h49v255z" fill-opacity="0.14516" fill="#050505" stroke="none"/><path d="M195.25004,123.20459v-7h2.25v7z" fill-opacity="0.14516" fill="#050505" stroke="none"/><path d="M196.00004,116.20459v-8.5h0.75v8.5z" fill-opacity="0.14516" fill="#050505" stroke="none"/><path d="M339.50003,88.43257v-17.75h2.5v17.75z" fill-opacity="0.14516" fill="#050505" stroke="none"/><path d="M340.50003,74.45459v-12.25h0.5v12.25z" fill-opacity="0.14516" fill="#050505" stroke="none"/><path d="M388.5051,164.91424v-17.75h2.5v17.75z" fill-opacity="0.14516" fill="#050505" stroke="none"/><path d="M389.5051,148.16424v-12.25h0.5v12.25z" fill-opacity="0.14516" fill="#050505" stroke="none"/><path d="M131.0188,72.41193v-17.75h2.5v17.75z" fill-opacity="0.14516" fill="#050505" stroke="none"/><path d="M132.0188,56.66193v-12.25h0.5v12.25z" fill-opacity="0.14516" fill="#050505" stroke="none"/><path d="M139.10689,72.55183v-17.75h2.5v17.75z" fill-opacity="0.14516" fill="#050505" stroke="none"/><path d="M140.10689,57.80183v-12.25h0.5v12.25z" fill-opacity="0.14516" fill="#050505" stroke="none"/><path d="M19.81192,139.76927v-17.75h2.5v17.75z" fill-opacity="0.14516" fill="#050505" stroke="none"/><path d="M20.81192,123.01927v-12.25h0.5v12.25z" fill-opacity="0.14516" fill="#050505" stroke="none"/></g></g></svg>