<svg version="1.1" xmlns="http://www.w3.org/2000/svg" xmlns:xlink="http://www.w3.org/1999/xlink" width="53.08787" height="53.08787" viewBox="0,0,53.08787,53.08787"><g transform="translate(-213.45607,-153.45608)"><g data-paper-data="{&quot;isPaintingLayer&quot;:true}" fill-rule="nonzero" stroke-width="1" stroke-linejoin="miter" stroke-miterlimit="10" stroke-dasharray="" stroke-dashoffset="0" style="mix-blend-mode: normal"><path d="M239.99999,188.19939c-0.81702,0 -1.5692,-0.2075 -2.25654,-0.62249c-0.70031,-0.415 -1.26444,-0.96615 -1.6924,-1.65349c-0.415,-0.70031 -0.62249,-1.45248 -0.62249,-2.25654v-0.70031c0,-0.06484 0.0389,-0.09726 0.11672,-0.09726h2.62614c0.06485,0 0.09727,0.03242 0.09727,0.09726v0.54469c0,0.51875 0.16859,0.95968 0.50577,1.32281c0.33719,0.35015 0.7457,0.52522 1.22553,0.52522c0.49281,0 0.90132,-0.18155 1.22553,-0.54468c0.33719,-0.36312 0.50578,-0.79757 0.50578,-1.30335v-1.57569c0,-0.47985 -0.17508,-0.88186 -0.52523,-1.20608c-0.35015,-0.33718 -0.77811,-0.50576 -1.28389,-0.50576c-0.67438,0 -1.22553,0.26585 -1.6535,0.79756l-0.0389,0.07782l-2.48997,-0.19453c-0.07781,0 -0.11672,-0.0389 -0.11672,-0.11671l0.27234,-6.3611l0.13617,-2.5289c0,-0.06484 0.03242,-0.09726 0.09726,-0.09726h7.80063c0.06485,0 0.09726,0.03242 0.09726,0.09726v2.5289c0,0.07781 -0.03241,0.11671 -0.09726,0.11671h-5.42736l-0.11671,3.20972c0.18156,-0.09079 0.42148,-0.16859 0.71975,-0.23343c0.31124,-0.06484 0.59007,-0.09726 0.83648,-0.09726c0.82999,0 1.60163,0.20101 2.3149,0.60304c0.70031,0.415 1.25795,0.96617 1.67296,1.6535c0.42796,0.67437 0.64195,1.42655 0.64195,2.25654v1.57569c0,0.84296 -0.2075,1.62108 -0.62249,2.33436c-0.415,0.71327 -0.96617,1.28389 -1.6535,1.71185c-0.68733,0.42796 -1.45248,0.64195 -2.29544,0.64195z" fill="#ffffff" stroke="none" stroke-linecap="square"/><path d="M214.18965,201.64489c0,-10.79152 -0.23358,-38.49356 -0.23358,-43.91264c0,-1.75017 1.66459,-3.77616 3.08193,-3.77616c5.2641,0 36.67337,0 46.01484,0c1.59891,0 2.9911,1.89485 2.9911,3.30901c0,5.13094 0,34.95285 0,45.08053c0,2.02997 -1.48281,3.69833 -3.22468,3.69833c-9.57549,0 -40.16279,0 -45.54768,0c-1.53074,0 -3.08193,-1.57555 -3.08193,-4.39907z" fill-opacity="0.14835" fill="#ffffff" stroke="#ffffff" stroke-linecap="butt"/></g></g></svg>