<svg version="1.1" xmlns="http://www.w3.org/2000/svg" xmlns:xlink="http://www.w3.org/1999/xlink" width="132.53471" height="63.92564" viewBox="0,0,132.53471,63.92564"><g transform="translate(-173.73264,-148.03718)"><g data-paper-data="{&quot;isPaintingLayer&quot;:true}" fill-rule="nonzero" stroke="none" stroke-linecap="butt" stroke-linejoin="miter" stroke-miterlimit="10" stroke-dasharray="" stroke-dashoffset="0" style="mix-blend-mode: normal"><path d="M183.24922,198.5v-37h113.50156v37z" fill-opacity="0.47" fill="#000000" stroke-width="1"/><path d="M216.49648,185.13251c-0.77938,0 -1.5255,-0.1093 -2.23834,-0.32791c-0.71285,-0.22811 -1.27838,-0.518 -1.69658,-0.86967l0.64156,-1.43995c0.39919,0.31365 0.89344,0.57503 1.48273,0.78413c0.58929,0.20911 1.19284,0.31365 1.81063,0.31365c0.52276,0 0.94571,-0.05702 1.26887,-0.17108c0.32316,-0.11406 0.56077,-0.26613 0.71285,-0.45623c0.15207,-0.1996 0.22811,-0.42296 0.22811,-0.67008c0,-0.30414 -0.1093,-0.54652 -0.32791,-0.7271c-0.2186,-0.19009 -0.50374,-0.33742 -0.85542,-0.44196c-0.34217,-0.11406 -0.7271,-0.2186 -1.15481,-0.31365c-0.4182,-0.09505 -0.84116,-0.20435 -1.26887,-0.32791c-0.4182,-0.13306 -0.80314,-0.2994 -1.15481,-0.499c-0.34217,-0.20911 -0.62255,-0.48473 -0.84116,-0.8269c-0.2186,-0.34217 -0.32791,-0.77938 -0.32791,-1.31164c0,-0.54177 0.14257,-1.03601 0.42771,-1.48273c0.29465,-0.45623 0.73661,-0.81739 1.3259,-1.08352c0.59879,-0.27564 1.35441,-0.41345 2.26685,-0.41345c0.59879,0 1.19284,0.07604 1.78212,0.22811c0.58929,0.15207 1.10254,0.37068 1.53975,0.65582l-0.58454,1.43995c-0.44672,-0.26613 -0.90769,-0.46097 -1.38292,-0.58454c-0.47523,-0.13306 -0.93145,-0.1996 -1.36867,-0.1996c-0.51325,0 -0.93145,0.06178 -1.25461,0.18534c-0.31365,0.12356 -0.54652,0.28514 -0.69859,0.48473c-0.14257,0.1996 -0.21385,0.42771 -0.21385,0.68433c0,0.30414 0.10455,0.55127 0.31365,0.74136c0.2186,0.18059 0.499,0.32316 0.84116,0.42771c0.35167,0.10455 0.74136,0.20911 1.16907,0.31365c0.42771,0.09505 0.85067,0.20435 1.26887,0.32791c0.42771,0.12356 0.81265,0.28514 1.15481,0.48473c0.35167,0.1996 0.63206,0.47048 0.84116,0.81265c0.2186,0.34217 0.32791,0.77462 0.32791,1.29738c0,0.53226 -0.14732,1.0265 -0.44196,1.48273c-0.28514,0.44672 -0.7271,0.8079 -1.3259,1.08352c-0.59879,0.26613 -1.35441,0.39919 -2.26685,0.39919zM224.07986,179.15885h4.96142v1.5255h-4.96142zM224.22243,183.43593h5.6315v1.554h-7.48492v-9.97986h7.28533v1.554h-5.4319zM231.91999,184.98994v-9.97986h1.8534v8.4116h5.21804v1.56827zM242.1655,179.15885h4.96142v1.5255h-4.96142zM242.30807,183.43593h5.6315v1.554h-7.4849v-9.97986h7.2853v1.554h-5.4319zM254.62501,185.13251c-0.76037,0 -1.46846,-0.12356 -2.12429,-0.37068c-0.64631,-0.25662 -1.21184,-0.61305 -1.69658,-1.06927c-0.47523,-0.46573 -0.84591,-1.01225 -1.11204,-1.63955c-0.26613,-0.62731 -0.39919,-1.31164 -0.39919,-2.053c0,-0.74136 0.13306,-1.42569 0.39919,-2.053c0.26613,-0.62731 0.64156,-1.16907 1.1263,-1.62529c0.48473,-0.46573 1.05026,-0.82215 1.69658,-1.06927c0.64631,-0.25662 1.35441,-0.38494 2.12429,-0.38494c0.81739,0 1.56351,0.14257 2.23834,0.42771c0.67483,0.27564 1.2451,0.68908 1.71083,1.24035l-1.19758,1.1263c-0.36118,-0.38969 -0.76513,-0.67959 -1.21184,-0.86967c-0.44672,-0.1996 -0.93145,-0.2994 -1.45421,-0.2994c-0.52276,0 -1.00274,0.08554 -1.43995,0.25662c-0.42771,0.17108 -0.80314,0.41345 -1.1263,0.7271c-0.31365,0.31365 -0.56077,0.68433 -0.74136,1.11204c-0.17108,0.42771 -0.25662,0.89819 -0.25662,1.41144c0,0.51325 0.08554,0.98373 0.25662,1.41144c0.18059,0.42771 0.42771,0.79839 0.74136,1.11204c0.32316,0.31365 0.69859,0.55602 1.1263,0.7271c0.43721,0.17108 0.9172,0.25662 1.43995,0.25662c0.52276,0 1.00749,-0.09505 1.45421,-0.28514c0.44672,-0.1996 0.85067,-0.499 1.21184,-0.89819l1.19758,1.14056c-0.46573,0.54177 -1.03601,0.95521 -1.71083,1.24035c-0.67483,0.28514 -1.42569,0.42771 -2.2526,0.42771zM262.27742,184.98994v-8.4116h-3.30761v-1.56827h8.46862v1.56827h-3.30761v8.4116z" fill="#ffffff" stroke-width="1"/><path d="M173.73265,211.96282v-63.92564h132.53471v63.92564z" fill="none" stroke-width="0"/></g></g></svg>