<svg version="1.1" xmlns="http://www.w3.org/2000/svg" xmlns:xlink="http://www.w3.org/1999/xlink" width="63.95694" height="132.54981" viewBox="0,0,63.95694,132.54981"><g transform="translate(-208.02153,-113.72509)"><g data-paper-data="{&quot;isPaintingLayer&quot;:true}" stroke="none" stroke-linecap="butt" stroke-linejoin="miter" stroke-miterlimit="10" stroke-dasharray="" stroke-dashoffset="0" style="mix-blend-mode: normal"><path d="M223.33804,221.44248v-81.15809h33.32393v81.1581z" fill-opacity="0.47" fill="#000000" fill-rule="nonzero" stroke-width="1"/><path d="M271.97847,246.25981l-63.92564,0.0151l-0.0313,-132.53471l63.92564,-0.0151z" fill="none" fill-rule="nonzero" stroke-width="0"/><path d="M233.84043,178.64132l-1.28836,-0.96852c-0.25912,-0.1948 -0.35711,-0.37559 -0.35711,-0.37559c0,0 -0.10516,-0.25508 0.02661,-0.51927c0.17974,-0.36044 0.41262,-0.83001 0.50903,-1.03565c0.08046,-0.17162 0.36722,-0.29794 0.36722,-0.29794c0,0 0.31501,-0.06949 0.5802,0.0045c0.27552,0.07687 1.33963,0.36429 1.54981,0.42104c0.09196,-0.10409 0.28412,-0.31632 0.45973,-0.47673c0.10344,-0.09449 0.21235,-0.18495 0.30762,-0.26078c0.10537,-0.08859 0.206,-0.16778 0.27208,-0.21877c-0.02456,-0.12401 -0.25876,-1.30627 -0.31972,-1.6011c-0.05576,-0.26961 0.03503,-0.57916 0.03503,-0.57916c0,0 0.14557,-0.27749 0.32227,-0.34608c0.21173,-0.08219 0.69607,-0.28254 1.0679,-0.43732c0.27256,-0.11346 0.51988,0.00884 0.51988,0.00884c0,0 0.17372,0.11009 0.35042,0.38189l0.87854,1.35131c0,0 0.4451,-0.06848 0.87925,-0.04844c0.42698,0.0197 0.84302,0.04788 1.01997,0.06041c0.1701,-0.25833 0.7049,-1.0711 0.8494,-1.29463c0.1494,-0.23121 0.4313,-0.38805 0.4313,-0.38805c0,0 0.2984,-0.09555 0.4725,-0.02044c0.2085,0.09002 0.6942,0.28715 1.0677,0.43779c0.2738,0.11041 0.3642,0.37109 0.3642,0.37109c0,0 0.0465,0.20034 -0.0183,0.51796l-0.3062,1.50042c0.1043,0.10164 0.4274,0.4181 0.7517,0.75089c0.1385,0.14213 0.2647,0.29823 0.361,0.42591c0.1005,0.1125 0.1811,0.20364 0.2283,0.25734l1.5521,-0.23437c0.3206,-0.0484 0.5183,0.00835 0.5183,0.00835c0,0 0.2556,0.10368 0.3518,0.38281c0.1313,0.38078 0.3032,0.87594 0.3823,1.08882c0.0661,0.17766 -0.0447,0.47078 -0.0447,0.47078c0,0 -0.1711,0.27344 -0.4097,0.41081c-0.2754,0.15859 -1.4186,0.82978 -1.4186,0.82978c0,0 0.0075,0.06918 0.0156,0.17718l0.0028,-0.00639l0.0014,0.06392c0.0095,0.14061 0.0185,0.32738 0.0159,0.51171c-0.0008,0.06198 -0.0036,0.12713 -0.0075,0.19204c0.0005,0.11052 0.0006,0.2265 -0.0001,0.34326c-0.0023,0.43461 -0.0936,0.87559 -0.0936,0.87559l1.3044,0.9469c0.2623,0.1904 0.3633,0.3696 0.3633,0.3696c0,0 0.1094,0.2532 -0.0179,0.5196c-0.1737,0.3634 -0.3987,0.8368 -0.4917,1.044c-0.0775,0.173 -0.3621,0.304 -0.3621,0.304c0,0 -0.3139,0.0748 -0.5802,0.0052c-0.3076,-0.0803 -1.593,-0.4042 -1.593,-0.4042c0,0 -0.2362,0.298 -0.4983,0.5569c-0.1635,0.1614 -0.3761,0.3358 -0.4883,0.4254c0.0646,0.2994 0.2708,1.2553 0.3292,1.5158c0.0603,0.2686 -0.0253,0.5796 -0.0253,0.5796c0,0 -0.1409,0.2799 -0.3165,0.3515c-0.2103,0.0857 -0.6912,0.2941 -1.0604,0.4551c-0.2706,0.118 -0.52,-0.0002 -0.52,-0.0002c0,0 -0.1755,-0.1072 -0.3567,-0.376l-0.87534,-1.2984c-0.0796,0.0015 -0.21111,0.0036 -0.37179,0.0053c-0.15473,0.0143 -0.34434,0.0253 -0.53218,0.0198c-0.45147,-0.0133 -0.89088,-0.0362 -1.04863,-0.0449l-0.8989,1.2354c-0.19074,0.2621 -0.36998,0.3629 -0.36998,0.3629c0,0 -0.25341,0.1091 -0.51962,-0.0185c-0.3632,-0.1741 -0.83634,-0.3996 -1.04346,-0.4928c-0.17284,-0.0778 -0.30362,-0.3626 -0.30362,-0.3626c0,0 -0.07439,-0.3139 -0.00454,-0.5802c0.08065,-0.3074 0.40603,-1.5925 0.40603,-1.5925c0,0 -0.08107,-0.0644 -0.19535,-0.1632l0.00342,0.0087c0,0 -0.32318,-0.2681 -0.54771,-0.5063c-0.25264,-0.2681 -0.47801,-0.5744 -0.47801,-0.5744c0,0 -1.29621,0.2776 -1.60642,0.3468c-0.26871,0.06 -0.57963,-0.026 -0.57963,-0.026c0,0 -0.27973,-0.1412 -0.35105,-0.3168c-0.08549,-0.2104 -0.29335,-0.6916 -0.45391,-1.061c-0.1177,-0.2707 0.00074,-0.5199 0.00074,-0.5199c0,0 0.10738,-0.1754 0.37639,-0.3563l1.33746,-0.89951c0,0 -0.07541,-0.44397 -0.06215,-0.87839c0.01724,-0.56436 0.04958,-1.10989 0.04958,-1.10989l0.06811,0.17366c0.03051,-0.22081 0.0661,-0.37937 0.0661,-0.37937zM238.97506,186.31291l0.05682,-0.0223c-0.02294,-0.0044 -0.03549,-0.007 -0.03549,-0.007zM243.70519,185.05361l0.0026,0.0121l0.009,-0.0207zM243.86529,174.90691l0.0085,-0.04201l0.0262,0.06771c-0.0222,-0.0167 -0.0347,-0.0257 -0.0347,-0.0257zM240.98609,173.75669l-0.05572,0.02086c0.02456,0.00363 0.03816,0.00581 0.03816,0.00581zM243.41579,179.99505c0,1.88665 -1.5294,3.41615 -3.41608,3.41615c-1.88667,0 -3.41611,-1.5295 -3.41611,-3.41615c0,-1.88667 1.52945,-3.41611 3.41611,-3.41611c1.88668,0 3.41608,1.52945 3.41608,3.41611z" fill="#ffffff" fill-rule="evenodd" stroke-width="1"/></g></g></svg>