<svg version="1.1" xmlns="http://www.w3.org/2000/svg" xmlns:xlink="http://www.w3.org/1999/xlink" width="36" height="36" viewBox="0,0,36,36"><g transform="translate(-222,-162)"><g data-paper-data="{&quot;isPaintingLayer&quot;:true}" fill-rule="nonzero" stroke-linejoin="miter" stroke-miterlimit="10" stroke-dasharray="" stroke-dashoffset="0" style="mix-blend-mode: normal"><path d="M240,198c-9.94113,0 -18,-8.05887 -18,-18c0,-9.94112 8.05888,-18 18,-18c9.94112,0 18,8.05888 18,18c0,9.94113 -8.05888,18 -18,18z" data-paper-data="{&quot;index&quot;:null}" fill="#000000" stroke="none" stroke-width="1" stroke-linecap="butt" opacity="0.5"/><path d="M233.47704,179.17772c0.047,-0.3655 0.125,-0.7321 0.237,-1.0963c1.059,-3.4574 4.721,-5.4011 8.178,-4.3414c3.458,1.0596 5.401,4.7213 4.342,8.1786c-1.06,3.4573 -4.722,5.401 -8.179,4.3414c-1.698,-0.5203 -3.03,-1.6681 -3.822,-3.111" data-paper-data="{&quot;index&quot;:null}" fill="none" stroke="#ffffff" stroke-width="2.5" stroke-linecap="butt"/><path d="M233.985,178.5325l3.437,-1.5677" data-paper-data="{&quot;index&quot;:null}" fill="none" stroke="#ffffff" stroke-width="2.5" stroke-linecap="round"/><path d="M232.251,175.0352l1.567,3.4364" data-paper-data="{&quot;index&quot;:null}" fill="none" stroke="#ffffff" stroke-width="2.5" stroke-linecap="round"/><path d="M237.084,176.7554l-4.443,-1.6592" data-paper-data="{&quot;index&quot;:null}" fill="none" stroke="#ffffff" stroke-width="2.5" stroke-linecap="round"/></g></g></svg>