<svg version="1.1" xmlns="http://www.w3.org/2000/svg" xmlns:xlink="http://www.w3.org/1999/xlink" width="166.45234" height="27.93943" viewBox="0,0,166.45234,27.93943"><g transform="translate(-156.76031,-135.55122)"><g data-paper-data="{&quot;isPaintingLayer&quot;:true}" fill="#ffffff" fill-rule="nonzero" stroke="#ffffff" stroke-width="0.25" stroke-linecap="butt" stroke-linejoin="miter" stroke-miterlimit="10" stroke-dasharray="" stroke-dashoffset="0" style="mix-blend-mode: normal"><path d="M167.02363,163.36565c-2.02226,0 -3.96674,-0.32409 -5.83344,-0.97225c-1.84078,-0.67408 -3.26672,-1.52966 -4.27785,-2.56672l1.1278,-2.21671c0.95927,0.93335 2.24263,1.72411 3.85008,2.37227c1.63337,0.62224 3.3445,0.93335 5.13344,0.93335c1.71115,0 3.09821,-0.20741 4.16119,-0.62224c1.08891,-0.44075 1.87966,-1.02409 2.37227,-1.75003c0.51853,-0.72594 0.77779,-1.52966 0.77779,-2.41116c0,-1.06299 -0.31111,-1.91856 -0.93335,-2.56672c-0.5963,-0.64816 -1.38706,-1.15372 -2.37227,-1.51669c-0.98521,-0.38889 -2.07411,-0.72594 -3.26672,-1.01113c-1.19262,-0.28519 -2.38523,-0.58334 -3.57785,-0.89447c-1.19262,-0.33705 -2.29449,-0.77779 -3.30562,-1.32224c-0.98521,-0.54446 -1.78892,-1.25744 -2.41116,-2.13893c-0.5963,-0.90743 -0.89447,-2.08708 -0.89447,-3.53895c0,-1.34818 0.35001,-2.57968 1.05002,-3.69451c0.72594,-1.14076 1.82781,-2.04818 3.30562,-2.72227c1.47781,-0.70002 3.37043,-1.05002 5.67788,-1.05002c1.52966,0 3.04635,0.22037 4.55008,0.66112c1.50373,0.41482 2.80005,0.99817 3.88896,1.75003l-0.97225,2.29449c-1.16669,-0.77779 -2.41116,-1.34818 -3.7334,-1.71115c-1.29632,-0.36297 -2.55376,-0.54446 -3.7723,-0.54446c-1.63337,0 -2.98153,0.22037 -4.04452,0.66112c-1.06299,0.44075 -1.85374,1.03705 -2.37227,1.78892c-0.4926,0.72594 -0.7389,1.55559 -0.7389,2.48894c0,1.06299 0.29815,1.91856 0.89447,2.56672c0.62224,0.64816 1.42595,1.15372 2.41116,1.51669c1.01113,0.36297 2.113,0.68704 3.30562,0.97225c1.19262,0.28519 2.37227,0.5963 3.53895,0.93335c1.19262,0.33705 2.28153,0.77779 3.26672,1.32224c1.01113,0.51853 1.81485,1.21854 2.41116,2.10004c0.62224,0.8815 0.93335,2.03522 0.93335,3.46117c0,1.32224 -0.36297,2.55376 -1.08891,3.69451c-0.72594,1.11483 -1.84078,2.02226 -3.3445,2.72227c-1.47781,0.67408 -3.3834,1.01113 -5.71678,1.01113zM189.89981,148.08203h14.38916v2.45005h-14.38916zM190.21092,160.64337h16.37253v2.48894h-19.25036v-27.22274h18.66702v2.48894h-15.78919zM217.23711,163.13231v-27.22274h2.87783v24.7338h15.24473v2.48894zM246.59358,148.08203h14.38916v2.45005h-14.38916zM246.90469,160.64337h16.37253v2.48894h-19.25036v-27.22274h18.66702v2.48894h-15.78919zM285.67732,163.36565c-2.04818,0 -3.94082,-0.33705 -5.67788,-1.01113c-1.73707,-0.70002 -3.2408,-1.67225 -4.5112,-2.91673c-1.2704,-1.24446 -2.26857,-2.70931 -2.9945,-4.39453c-0.70002,-1.68521 -1.05002,-3.52599 -1.05002,-5.52233c0,-1.99634 0.35001,-3.83711 1.05002,-5.52233c0.72594,-1.68521 1.72411,-3.15006 2.9945,-4.39453c1.29632,-1.24446 2.81301,-2.20375 4.55008,-2.87783c1.73707,-0.70002 3.62969,-1.05002 5.67788,-1.05002c1.9704,0 3.82414,0.33705 5.56121,1.01113c1.73707,0.64816 3.20192,1.63337 4.39453,2.95561l-1.82781,1.82781c-1.11483,-1.14076 -2.34634,-1.95744 -3.69451,-2.45005c-1.34818,-0.51853 -2.80005,-0.77779 -4.35564,-0.77779c-1.63337,0 -3.15006,0.28519 -4.55008,0.85557c-1.40002,0.54446 -2.61856,1.3352 -3.65563,2.37227c-1.03705,1.01113 -1.85374,2.20375 -2.45005,3.57785c-0.57038,1.34818 -0.85557,2.83895 -0.85557,4.4723c0,1.63337 0.28519,3.1371 0.85557,4.5112c0.5963,1.34818 1.41299,2.54079 2.45005,3.57785c1.03705,1.01113 2.25559,1.80189 3.65563,2.37227c1.40002,0.54446 2.91673,0.81668 4.55008,0.81668c1.55559,0 3.00747,-0.25927 4.35564,-0.77779c1.34818,-0.51853 2.57968,-1.34818 3.69451,-2.48894l1.82781,1.82781c-1.19262,1.32224 -2.65746,2.32041 -4.39453,2.9945c-1.73707,0.67408 -3.60377,1.01113 -5.60011,1.01113zM310.64299,163.13231v-24.7338h-9.56685v-2.48894h22.01152v2.48894h-9.56685v24.7338z"/></g></g></svg>