<svg version="1.1" xmlns="http://www.w3.org/2000/svg" xmlns:xlink="http://www.w3.org/1999/xlink" width="53.08787" height="53.08787" viewBox="0,0,53.08787,53.08787"><g transform="translate(-213.45607,-153.45607)"><g data-paper-data="{&quot;isPaintingLayer&quot;:true}" fill-rule="nonzero" stroke-width="1" stroke-linejoin="miter" stroke-miterlimit="10" stroke-dasharray="" stroke-dashoffset="0" style="mix-blend-mode: normal"><path d="M240.00001,188.32587c-0.80406,0 -1.55623,-0.21399 -2.25654,-0.64196c-0.68733,-0.42796 -1.24499,-0.98561 -1.67295,-1.67295c-0.415,-0.70031 -0.62249,-1.47194 -0.62249,-2.3149l-0.01945,-7.33375c0,-0.84296 0.21398,-1.62756 0.64195,-2.35381c0.42796,-0.70031 0.98562,-1.26444 1.67295,-1.6924c0.68733,-0.42796 1.43952,-0.64195 2.25654,-0.64195c0.82999,0 1.59513,0.2075 2.29544,0.62249c0.68733,0.44093 1.2385,1.01154 1.6535,1.71185c0.415,0.70031 0.62249,1.48492 0.62249,2.35381v0.46688c0,0.06485 -0.0389,0.09726 -0.11671,0.09726h-2.60669c-0.06485,0 -0.09726,-0.03242 -0.09726,-0.09726v-0.46688c0,-0.50578 -0.16859,-0.94022 -0.50578,-1.30334c-0.32422,-0.36312 -0.73921,-0.54469 -1.24499,-0.54469c-0.47984,0 -0.88835,0.18156 -1.22553,0.54469c-0.33719,0.36312 -0.50578,0.79756 -0.50578,1.30334v1.59514c0.54468,-0.23343 1.12179,-0.35016 1.73132,-0.35016c0.84296,0 1.60811,0.2075 2.29544,0.62249c0.68733,0.415 1.23202,0.97912 1.63405,1.6924c0.40203,0.70031 0.60304,1.47842 0.60304,2.33435v1.43952c0,0.84296 -0.20101,1.61458 -0.60304,2.3149c-0.415,0.71327 -0.96617,1.27741 -1.6535,1.69241c-0.67438,0.415 -1.43303,0.62249 -2.27599,0.62249zM240.00001,185.54411c0.47984,0 0.88835,-0.17508 1.22553,-0.52523c0.33719,-0.36312 0.50578,-0.80406 0.50578,-1.32279v-1.43951c0,-0.49281 -0.16859,-0.92077 -0.50578,-1.2839c-0.33719,-0.36312 -0.7457,-0.54469 -1.22553,-0.54469c-0.47984,0 -0.88835,0.18156 -1.22553,0.54469c-0.33719,0.35015 -0.50578,0.77812 -0.50578,1.2839v1.43952c0,0.49281 0.16859,0.92725 0.50578,1.30334c0.33719,0.36312 0.7457,0.54469 1.22553,0.54469z" fill="#ffffff" stroke="none" stroke-linecap="square"/><path d="M214.18965,201.64488c0,-10.79152 -0.23358,-38.49356 -0.23358,-43.91264c0,-1.75017 1.66459,-3.77616 3.08193,-3.77616c5.2641,0 36.67337,0 46.01484,0c1.59891,0 2.9911,1.89485 2.9911,3.30901c0,5.13094 0,34.95285 0,45.08053c0,2.02997 -1.48281,3.69833 -3.22468,3.69833c-9.57549,0 -40.16279,0 -45.54768,0c-1.53074,0 -3.08193,-1.57555 -3.08193,-4.39907z" fill-opacity="0.14835" fill="#ffffff" stroke="#ffffff" stroke-linecap="butt"/></g></g></svg>