<svg version="1.1" xmlns="http://www.w3.org/2000/svg" xmlns:xlink="http://www.w3.org/1999/xlink" width="36" height="36" viewBox="0,0,36,36"><g transform="translate(-222,-162)"><g data-paper-data="{&quot;isPaintingLayer&quot;:true}" fill-rule="nonzero" stroke="none" stroke-width="1" stroke-linecap="butt" stroke-linejoin="miter" stroke-miterlimit="10" stroke-dasharray="" stroke-dashoffset="0" style="mix-blend-mode: normal"><path d="M222,180c0,-9.94112 8.05888,-18 18,-18c9.94113,0 18,8.05888 18,18c0,9.94113 -8.05887,18 -18,18c-9.94112,0 -18,-8.05887 -18,-18z" fill="#000000" opacity="0.5"/><path d="M233.11041,176.57011h7.6552v-2.57241c0.00006,-0.34676 0.18658,-0.65934 0.47258,-0.79203c0.28601,-0.13269 0.61522,-0.05937 0.83415,0.1858l5.35863,6.0023c0.29884,0.33484 0.29884,0.87762 0,1.21246l-5.35863,6.0023c-0.21894,0.24516 -0.54814,0.31848 -0.83415,0.1858c-0.28601,-0.13269 -0.47252,-0.44528 -0.47258,-0.79203v-2.57241h-7.6552c-0.42279,0 -0.76552,-0.3839 -0.76552,-0.85747v-5.14484c0,-0.47357 0.34273,-0.85747 0.76552,-0.85747z" data-paper-data="{&quot;index&quot;:null}" fill="#ffffff"/></g></g></svg>