<svg version="1.1" xmlns="http://www.w3.org/2000/svg" xmlns:xlink="http://www.w3.org/1999/xlink" width="212.463" height="37.8" viewBox="0,0,212.463,37.8"><g transform="translate(-133.7685,-161.1)"><g data-paper-data="{&quot;isPaintingLayer&quot;:true}" fill="#ffffff" fill-rule="nonzero" stroke="none" stroke-width="1" stroke-linecap="butt" stroke-linejoin="miter" stroke-miterlimit="10" stroke-dasharray="" stroke-dashoffset="0" style="mix-blend-mode: normal"><path d="M133.7685,198.9v-37.8h15.39c4.032,0 7.56,0.81 10.584,2.43c3.06,1.584 5.436,3.798 7.128,6.642c1.692,2.844 2.538,6.12 2.538,9.828c0,3.708 -0.846,6.984 -2.538,9.828c-1.692,2.844 -4.068,5.076 -7.128,6.696c-3.024,1.584 -6.552,2.376 -10.584,2.376zM137.7645,195.444h11.178c3.348,0 6.246,-0.648 8.694,-1.944c2.484,-1.332 4.41,-3.15 5.778,-5.454c1.368,-2.34 2.052,-5.022 2.052,-8.046c0,-3.06 -0.684,-5.742 -2.052,-8.046c-1.368,-2.304 -3.294,-4.104 -5.778,-5.4c-2.448,-1.332 -5.346,-1.998 -8.694,-1.998h-11.178zM181.9455,178.002h19.98v3.402h-19.98zM182.3775,195.444h22.734v3.456h-26.73v-37.8h25.92v3.456h-21.924zM218.067,179.406h19.98v3.456h-19.98zM218.499,198.9h-3.996v-37.8h25.92v3.456h-21.924zM252.24,178.002h19.98v3.402h-19.98zM252.672,195.444h22.734v3.456h-26.73v-37.8h25.92v3.456h-21.924zM278.754,198.9l17.28,-37.8h3.942l17.28,37.8h-4.212l-15.876,-35.478h1.62l-15.876,35.478zM285.558,188.802l1.188,-3.24h21.978l1.188,3.24zM328.9515,198.9v-34.344h-13.284v-3.456h30.564v3.456h-13.284v34.344z"/></g></g></svg>