<svg version="1.1" xmlns="http://www.w3.org/2000/svg" xmlns:xlink="http://www.w3.org/1999/xlink" width="53.08787" height="53.08787" viewBox="0,0,53.08787,53.08787"><g transform="translate(-213.45607,-153.45607)"><g data-paper-data="{&quot;isPaintingLayer&quot;:true}" fill-rule="nonzero" stroke-width="1" stroke-linejoin="miter" stroke-miterlimit="10" stroke-dasharray="" stroke-dashoffset="0" style="mix-blend-mode: normal"><path d="M235.77196,188.0827h-2.62614c-0.07781,0 -0.11671,-0.0389 -0.11671,-0.11672l0.01945,-15.9514c0,-0.06484 0.03242,-0.09727 0.09726,-0.09727h2.60669c0.06485,0 0.09727,0.03242 0.09727,0.09727l0.01945,15.9514c0,0.07781 -0.03242,0.11672 -0.09726,0.11672zM245.14231,188.0827h-2.62614c-0.06485,0 -0.09726,-0.0389 -0.09726,-0.11672v-2.72341h-5.01885c-0.06485,0 -0.09726,-0.0389 -0.09726,-0.11671v-2.54833l5.05777,-10.56294c0.0389,-0.06484 0.09078,-0.09727 0.15563,-0.09727h2.62614c0.0389,0 0.05836,0.03242 0.05836,0.09727l0.01945,10.46568h1.63405c0.07781,0 0.11671,0.0389 0.11671,0.11671v2.52888c0,0.07781 -0.03242,0.11671 -0.09726,0.11671h-1.6535v2.72341c0,0.07781 -0.02594,0.11672 -0.07781,0.11672zM242.4189,182.48026v-5.05777l-2.37326,5.05777z" fill="#ffffff" stroke="none" stroke-linecap="square"/><path d="M214.18965,201.64488c0,-10.79152 -0.23358,-38.49356 -0.23358,-43.91264c0,-1.75017 1.66459,-3.77616 3.08193,-3.77616c5.2641,0 36.67337,0 46.01484,0c1.59891,0 2.9911,1.89485 2.9911,3.30901c0,5.13094 0,34.95285 0,45.08053c0,2.02997 -1.48281,3.69833 -3.22468,3.69833c-9.57549,0 -40.16279,0 -45.54768,0c-1.53074,0 -3.08193,-1.57555 -3.08193,-4.39907z" fill-opacity="0.14835" fill="#ffffff" stroke="#ffffff" stroke-linecap="butt"/></g></g></svg>