<svg version="1.1" xmlns="http://www.w3.org/2000/svg" xmlns:xlink="http://www.w3.org/1999/xlink" width="53.08787" height="53.08787" viewBox="0,0,53.08787,53.08787"><g transform="translate(-213.45607,-153.45607)"><g data-paper-data="{&quot;isPaintingLayer&quot;:true}" fill-rule="nonzero" stroke-width="1" stroke-linejoin="miter" stroke-miterlimit="10" stroke-dasharray="" stroke-dashoffset="0" style="mix-blend-mode: normal"><path d="M236.03459,188.20913h-2.62614c-0.07781,0 -0.11671,-0.0389 -0.11671,-0.11671l0.01945,-15.9514c0,-0.06485 0.03242,-0.09727 0.09726,-0.09727h2.60669c0.06485,0 0.09727,0.03242 0.09727,0.09727l0.01945,15.9514c0,0.07781 -0.03242,0.11671 -0.09726,0.11671zM246.51376,188.20913h-8.676c-0.07781,0 -0.11671,-0.0389 -0.11671,-0.11671v-2.62615c0,-0.02594 0.01945,-0.05836 0.05836,-0.09726l5.7386,-7.85898c0.10374,-0.14266 0.18805,-0.32421 0.2529,-0.54468c0.07781,-0.23343 0.11671,-0.43445 0.11671,-0.60304c0,-0.4539 -0.16211,-0.8689 -0.48633,-1.24499c-0.32422,-0.37609 -0.73921,-0.56414 -1.24499,-0.56414c-0.46688,0 -0.8689,0.18156 -1.20608,0.54469c-0.33719,0.36312 -0.50577,0.82351 -0.50577,1.38115v1.12829c0,0.07781 -0.03242,0.11671 -0.09726,0.11671h-2.62615c-0.05188,0 -0.07781,-0.0389 -0.07781,-0.11671v-1.12829c0,-0.8689 0.21398,-1.65997 0.64195,-2.37324c0.42796,-0.7003 0.98561,-1.25795 1.67295,-1.67296c0.68733,-0.42796 1.42005,-0.64195 2.19818,-0.64195c0.84296,0 1.60811,0.20751 2.29544,0.6225c0.67438,0.44093 1.21905,1.01155 1.63405,1.71185c0.415,0.68733 0.62249,1.43303 0.62249,2.23709c0,0.50577 -0.09079,1.02452 -0.27235,1.55624c-0.18156,0.51875 -0.42796,0.98562 -0.73922,1.40061l-4.39636,6.04986h5.21338c0.06485,0 0.09726,0.03242 0.09726,0.09727v2.62614c0,0.07781 -0.03242,0.11671 -0.09726,0.11671z" fill="#ffffff" stroke="none" stroke-linecap="square"/><path d="M214.18965,201.64488c0,-10.79152 -0.23358,-38.49356 -0.23358,-43.91264c0,-1.75017 1.66459,-3.77616 3.08193,-3.77616c5.2641,0 36.67337,0 46.01484,0c1.59891,0 2.9911,1.89485 2.9911,3.30901c0,5.13094 0,34.95285 0,45.08053c0,2.02997 -1.48281,3.69833 -3.22468,3.69833c-9.57549,0 -40.16279,0 -45.54768,0c-1.53074,0 -3.08193,-1.57555 -3.08193,-4.39907z" fill-opacity="0.14835" fill="#ffffff" stroke="#ffffff" stroke-linecap="butt"/></g></g></svg>