<svg version="1.1" xmlns="http://www.w3.org/2000/svg" xmlns:xlink="http://www.w3.org/1999/xlink" width="53.08787" height="53.08787" viewBox="0,0,53.08787,53.08787"><g transform="translate(-213.45607,-153.45607)"><g data-paper-data="{&quot;isPaintingLayer&quot;:true}" fill-rule="nonzero" stroke-width="1" stroke-linejoin="miter" stroke-miterlimit="10" stroke-dasharray="" stroke-dashoffset="0" style="mix-blend-mode: normal"><path d="M239.98056,188.32585c-0.81702,0 -1.5692,-0.21398 -2.25654,-0.64195c-0.70031,-0.42796 -1.25795,-0.99859 -1.67295,-1.71186c-0.415,-0.71327 -0.62249,-1.49139 -0.62249,-2.33435v-0.46687c0,-0.06485 0.0389,-0.09726 0.11671,-0.09726h2.60669c0.06485,0 0.09726,0.03242 0.09726,0.09726v0.46687c0,0.50578 0.16859,0.94022 0.50578,1.30334c0.33719,0.36312 0.7457,0.54469 1.22553,0.54469c0.47984,0 0.88835,-0.18156 1.22553,-0.54469c0.35015,-0.36312 0.52523,-0.79756 0.52523,-1.30334v-1.61459c-0.54468,0.23343 -1.12826,0.35015 -1.75077,0.35015c-0.84296,0 -1.59514,-0.2075 -2.25654,-0.62249c-0.68733,-0.415 -1.2385,-0.97263 -1.6535,-1.67294c-0.415,-0.71327 -0.62249,-1.49139 -0.62249,-2.33435v-1.43952c0,-0.8689 0.21398,-1.64701 0.64195,-2.33435c0.40203,-0.68733 0.94671,-1.2385 1.63405,-1.6535c0.68733,-0.42796 1.43952,-0.64195 2.25654,-0.64195c0.82999,0 1.58865,0.2075 2.27599,0.62249c0.68733,0.415 1.2385,0.97912 1.6535,1.6924c0.415,0.70031 0.62249,1.47194 0.62249,2.3149v1.43952l0.0389,5.89423c0,0.84296 -0.2075,1.62108 -0.62249,2.33435c-0.415,0.71327 -0.97265,1.2839 -1.67295,1.71186c-0.68733,0.42796 -1.45248,0.64195 -2.29544,0.64195zM239.98056,179.57203c0.50578,0 0.92077,-0.17507 1.24499,-0.52522c0.33719,-0.36312 0.50578,-0.79756 0.50578,-1.30334v-1.43952c0,-0.50578 -0.17508,-0.94022 -0.52523,-1.30334c-0.33719,-0.36312 -0.7457,-0.54468 -1.22553,-0.54468c-0.47984,0 -0.88835,0.18155 -1.22553,0.54468c-0.32422,0.35015 -0.48633,0.7846 -0.48633,1.30334v1.43952c0,0.49281 0.16211,0.92077 0.48633,1.28389c0.33719,0.36312 0.7457,0.54468 1.22553,0.54468z" fill="#ffffff" stroke="none" stroke-linecap="square"/><path d="M214.18965,201.64488c0,-10.79152 -0.23358,-38.49356 -0.23358,-43.91264c0,-1.75017 1.66459,-3.77616 3.08193,-3.77616c5.2641,0 36.67337,0 46.01484,0c1.59891,0 2.9911,1.89485 2.9911,3.30901c0,5.13094 0,34.95285 0,45.08053c0,2.02997 -1.48281,3.69833 -3.22468,3.69833c-9.57549,0 -40.16279,0 -45.54768,0c-1.53074,0 -3.08193,-1.57555 -3.08193,-4.39907z" fill-opacity="0.14835" fill="#ffffff" stroke="#ffffff" stroke-linecap="butt"/></g></g></svg>