<svg version="1.1" xmlns="http://www.w3.org/2000/svg" xmlns:xlink="http://www.w3.org/1999/xlink" width="53.08787" height="53.08787" viewBox="0,0,53.08787,53.08787"><g transform="translate(-213.45607,-153.45607)"><g data-paper-data="{&quot;isPaintingLayer&quot;:true}" fill-rule="nonzero" stroke-width="1" stroke-linejoin="miter" stroke-miterlimit="10" stroke-dasharray="" stroke-dashoffset="0" style="mix-blend-mode: normal"><path d="M236.02487,188.08267h-2.62614c-0.07781,0 -0.11671,-0.0389 -0.11671,-0.11671l0.01945,-15.9514c0,-0.06485 0.03242,-0.09726 0.09726,-0.09726h2.60669c0.06485,0 0.09727,0.03242 0.09727,0.09726l0.01945,15.9514c0,0.07781 -0.03242,0.11671 -0.09726,0.11671zM242.14658,188.33555c-0.80406,0 -1.55623,-0.21398 -2.25654,-0.64195c-0.68733,-0.415 -1.2385,-0.97913 -1.6535,-1.6924c-0.40203,-0.72624 -0.60303,-1.51084 -0.60303,-2.3538v-1.05047c0,-0.07781 0.02594,-0.11671 0.07781,-0.11671h2.62615c0.06485,0 0.09726,0.0389 0.09726,0.11671v1.05047c0,0.50577 0.1621,0.9467 0.48632,1.32279c0.33719,0.36312 0.7457,0.54469 1.22553,0.54469c0.54468,0 0.97265,-0.18805 1.28389,-0.56414c0.31124,-0.38906 0.46688,-0.8235 0.46688,-1.30334v-0.62249c0,-0.47985 -0.14913,-0.91429 -0.44742,-1.30334c-0.29828,-0.38906 -0.68085,-0.58359 -1.14772,-0.58359h-0.91429c-0.06485,0 -0.09727,-0.0389 -0.09727,-0.11671l0.01945,-2.6067c0,-0.05187 0.02594,-0.07781 0.07782,-0.07781h0.91429c0.415,0 0.78459,-0.1621 1.10881,-0.48631c0.32422,-0.33719 0.48633,-0.76515 0.48633,-1.28389v-0.3307c0,-0.49281 -0.16859,-0.91429 -0.50578,-1.26444c-0.32422,-0.35015 -0.73921,-0.52523 -1.24499,-0.52523c-0.46688,0 -0.8689,0.17508 -1.20608,0.52523c-0.33719,0.35015 -0.50577,0.77163 -0.50577,1.26444v1.10881c0,0.07781 -0.02594,0.11671 -0.07781,0.11671h-2.6067c-0.06485,0 -0.09726,-0.0389 -0.09726,-0.11671v-1.22553c0,-0.84296 0.21398,-1.60163 0.64195,-2.27599c0.42796,-0.6614 0.98561,-1.18663 1.67295,-1.57568c0.68733,-0.40203 1.41358,-0.60304 2.17872,-0.60304c0.84296,0 1.60811,0.20101 2.29544,0.60304c0.68733,0.415 1.23202,0.96615 1.63405,1.6535c0.415,0.67438 0.62249,1.42006 0.62249,2.23709v0.36961c0,0.68733 -0.11672,1.27741 -0.35016,1.77021c-0.22047,0.49281 -0.53172,0.96617 -0.93375,1.42006c0.40203,0.46687 0.71976,0.97912 0.9532,1.53678c0.23343,0.54468 0.35015,1.10882 0.35015,1.69241v0.7003c0,0.8689 -0.2075,1.65997 -0.62249,2.37325c-0.415,0.71328 -0.96617,1.27741 -1.6535,1.6924c-0.68733,0.415 -1.45248,0.62249 -2.29544,0.62249z" fill="#ffffff" stroke="none" stroke-linecap="square"/><path d="M214.18965,201.64488c0,-10.79152 -0.23358,-38.49356 -0.23358,-43.91264c0,-1.75017 1.66459,-3.77616 3.08193,-3.77616c5.2641,0 36.67337,0 46.01484,0c1.59891,0 2.9911,1.89485 2.9911,3.30901c0,5.13094 0,34.95285 0,45.08053c0,2.02997 -1.48281,3.69833 -3.22468,3.69833c-9.57549,0 -40.16279,0 -45.54768,0c-1.53074,0 -3.08193,-1.57555 -3.08193,-4.39907z" fill-opacity="0.14835" fill="#ffffff" stroke="#ffffff" stroke-linecap="butt"/></g></g></svg>