<svg version="1.1" xmlns="http://www.w3.org/2000/svg" xmlns:xlink="http://www.w3.org/1999/xlink" width="31.8952" height="11.352" viewBox="0,0,31.8952,11.352"><g transform="translate(-224.048,-173.536)"><g data-paper-data="{&quot;isPaintingLayer&quot;:true}" fill="#ffffff" fill-rule="nonzero" stroke="none" stroke-width="1" stroke-linecap="butt" stroke-linejoin="miter" stroke-miterlimit="10" stroke-dasharray="" stroke-dashoffset="0" style="mix-blend-mode: normal"><path d="M227,182.5v-7.632h-2.952v-0.768h6.792v0.768h-2.952v7.632zM231.91456,182.5v-6.3h0.816v1.716l-0.084,-0.3c0.176,-0.48 0.472,-0.844 0.888,-1.092c0.416,-0.256 0.93204,-0.384 1.54804,-0.384v0.828c-0.032,0 -0.064,0 -0.096,0c-0.032,-0.008 -0.064,-0.012 -0.096,-0.012c-0.664,0 -1.18404,0.204 -1.56004,0.612c-0.376,0.4 -0.564,0.972 -0.564,1.716v3.216zM236.9548,184.888c-0.296,0 -0.58,-0.048 -0.852,-0.144c-0.264,-0.096 -0.4921,-0.24 -0.6841,-0.432l0.3961,-0.636c0.16,0.152 0.332,0.268 0.516,0.348c0.192,0.088 0.404,0.132 0.636,0.132c0.28,0 0.52,-0.08 0.72,-0.24c0.208,-0.152 0.404,-0.424 0.588,-0.816l0.408,-0.924l0.096,-0.132l2.592,-5.844h0.84l-3.156,7.056c-0.176,0.408 -0.372,0.732 -0.588,0.972c-0.208,0.24 -0.436,0.408 -0.684,0.504c-0.248,0.104 -0.524,0.156 -0.828,0.156zM238.6348,182.68l-2.904,-6.48h0.888l2.568,5.784zM247.2353,173.596l-0.528,2.22l-0.096,-0.516c0.192,0 0.348,0.06 0.468,0.18c0.12,0.112 0.18,0.264 0.18,0.456c0,0.192 -0.06,0.348 -0.18,0.468c-0.12,0.12 -0.268,0.18 -0.444,0.18c-0.192,0 -0.348,-0.06 -0.468,-0.18c-0.112,-0.128 -0.168,-0.284 -0.168,-0.468c0,-0.072 0.004,-0.136 0.012,-0.192c0.008,-0.056 0.024,-0.124 0.048,-0.204c0.024,-0.08 0.056,-0.176 0.096,-0.288l0.504,-1.656zM248.4103,182.5v-0.564l4.2,-5.316l0.18,0.288h-4.308v-0.708h4.98v0.552l-4.188,5.328l-0.216,-0.288h4.488v0.708zM254.7072,176.524l0.528,-2.208l0.096,0.504c-0.184,0 -0.34,-0.056 -0.468,-0.168c-0.12,-0.12 -0.18,-0.276 -0.18,-0.468c0,-0.192 0.06,-0.348 0.18,-0.468c0.128,-0.12 0.28,-0.18 0.456,-0.18c0.184,0 0.332,0.064 0.444,0.192c0.12,0.12 0.18,0.272 0.18,0.456c0,0.064 -0.004,0.128 -0.012,0.192c-0.008,0.064 -0.024,0.136 -0.048,0.216c-0.016,0.072 -0.044,0.164 -0.084,0.276l-0.516,1.656z"/></g></g></svg>