<svg version="1.1" xmlns="http://www.w3.org/2000/svg" xmlns:xlink="http://www.w3.org/1999/xlink" width="189.52033" height="232.35339" viewBox="0,0,189.52033,232.35339"><g transform="translate(-146.10326,-81.10014)"><g data-paper-data="{&quot;isPaintingLayer&quot;:true}" fill-rule="nonzero" stroke="none" stroke-linecap="butt" stroke-linejoin="miter" stroke-miterlimit="10" stroke-dasharray="" stroke-dashoffset="0" style="mix-blend-mode: normal"><path d="M166.65194,112.899l14.53662,-31.79886h3.31617l14.53662,31.79886h-3.5433l-13.35552,-29.8455h1.36281l-13.35552,29.8455zM172.37573,104.40416l0.99939,-2.72562h18.48877l0.99939,2.72562zM220.98937,113.17156c-4.05814,0 -7.25317,-1.16596 -9.58509,-3.49787c-2.33192,-2.33192 -3.49787,-5.78437 -3.49787,-10.35734v-18.2162h3.36159v18.07992c0,3.7553 0.84797,6.52634 2.54391,8.31313c1.69594,1.7868 4.08843,2.68019 7.17746,2.68019c3.11931,0 5.52694,-0.8934 7.22288,-2.68019c1.69594,-1.7868 2.54391,-4.55784 2.54391,-8.31313v-18.07992h3.27074v18.2162c0,4.57298 -1.16596,8.02543 -3.49787,10.35734c-2.30163,2.33192 -5.48152,3.49787 -9.53966,3.49787zM248.69944,112.899v-31.79886h11.90186c2.69533,0 5.0121,0.43913 6.95032,1.31738c1.93821,0.84797 3.42216,2.08964 4.45184,3.72501c1.05996,1.60509 1.58994,3.55844 1.58994,5.86008c0,2.24106 -0.52998,4.17928 -1.58994,5.81465c-1.02968,1.60509 -2.51363,2.84676 -4.45184,3.72501c-1.93821,0.84797 -4.25499,1.27196 -6.95032,1.27196h-10.03935l1.49909,-1.54452v11.6293zM270.41351,112.899l-8.17685,-11.53845h3.63415l8.22227,11.53845zM252.06103,101.54226l-1.49909,-1.58994h9.9485c3.17988,0 5.58751,-0.69654 7.22288,-2.08964c1.66565,-1.39309 2.49848,-3.34645 2.49848,-5.86008c0,-2.54391 -0.83283,-4.51241 -2.49848,-5.9055c-1.63537,-1.39309 -4.043,-2.08964 -7.22288,-2.08964h-9.9485l1.49909,-1.58994zM280.98228,112.899l14.53662,-31.79886h3.31617l14.53662,31.79886h-3.5433l-13.35552,-29.8455h1.36281l-13.35552,29.8455zM286.70608,104.40416l0.99939,-2.72562h18.48877l0.99939,2.72562z" fill="#ffffff" stroke-width="1"/><path d="M169.1598,158.93754c-2.39248,0 -4.60326,-0.3937 -6.63233,-1.1811c-2.02907,-0.81769 -3.78558,-1.95336 -5.26953,-3.40702c-1.48395,-1.45366 -2.64991,-3.16475 -3.49787,-5.13325c-0.81769,-1.9685 -1.22653,-4.11871 -1.22653,-6.45063c0,-2.33192 0.40884,-4.48213 1.22653,-6.45063c0.84797,-1.9685 2.01392,-3.67959 3.49787,-5.13325c1.51423,-1.45366 3.28588,-2.5742 5.31495,-3.36159c2.02907,-0.81769 4.23985,-1.22653 6.63233,-1.22653c2.30163,0 4.46698,0.3937 6.49605,1.1811c2.02907,0.75712 3.74015,1.90793 5.13325,3.45245l-2.13507,2.13507c-1.30224,-1.33253 -2.74076,-2.28649 -4.31556,-2.8619c-1.5748,-0.6057 -3.27074,-0.90854 -5.08782,-0.90854c-1.90793,0 -3.67959,0.33313 -5.31495,0.99939c-1.63537,0.63597 -3.05875,1.55966 -4.27013,2.77104c-1.21138,1.1811 -2.16535,2.5742 -2.8619,4.17928c-0.66626,1.5748 -0.99939,3.31617 -0.99939,5.2241c0,1.90793 0.33313,3.66444 0.99939,5.26953c0.69654,1.5748 1.65051,2.96789 2.8619,4.17928c1.21138,1.1811 2.63476,2.10478 4.27013,2.77104c1.63537,0.63597 3.40702,0.95397 5.31495,0.95397c1.81708,0 3.51302,-0.30285 5.08782,-0.90854c1.5748,-0.6057 3.01332,-1.5748 4.31556,-2.90732l2.13507,2.13507c-1.39309,1.54452 -3.10417,2.71048 -5.13325,3.49787c-2.02907,0.7874 -4.20956,1.1811 -6.54148,1.1811zM205.35371,158.93754c-4.05814,0 -7.25317,-1.16596 -9.58509,-3.49787c-2.33192,-2.33192 -3.49787,-5.78437 -3.49787,-10.35734v-18.2162h3.36159v18.07992c0,3.7553 0.84797,6.52634 2.54391,8.31313c1.69594,1.7868 4.08843,2.68019 7.17746,2.68019c3.11931,0 5.52694,-0.8934 7.22288,-2.68019c1.69594,-1.7868 2.54391,-4.55784 2.54391,-8.31313v-18.07992h3.27074v18.2162c0,4.57298 -1.16596,8.02543 -3.49787,10.35734c-2.30163,2.33192 -5.48152,3.49787 -9.53966,3.49787zM233.06377,158.66498v-31.79886h13.71894c3.5433,0 6.28406,0.71169 8.22227,2.13507c1.9685,1.42337 2.95276,3.43731 2.95276,6.04178c0,1.72622 -0.40884,3.17988 -1.22653,4.36098c-0.7874,1.1811 -1.87764,2.0745 -3.27074,2.68019c-1.36281,0.6057 -2.8619,0.90854 -4.49726,0.90854l0.77225,-1.09025c2.02907,0 3.77043,0.31799 5.2241,0.95397c1.48395,0.6057 2.63476,1.52937 3.45245,2.77104c0.81769,1.21138 1.22653,2.72562 1.22653,4.5427c0,2.69533 -0.99939,4.78497 -2.99818,6.26892c-1.9685,1.48395 -4.95154,2.22592 -8.94911,2.22592zM236.42536,155.89394h11.22045c2.78619,0 4.92126,-0.46942 6.4052,-1.40824c1.48395,-0.96911 2.22592,-2.49848 2.22592,-4.58812c0,-2.05936 -0.74197,-3.55844 -2.22592,-4.49726c-1.48395,-0.96911 -3.61901,-1.45366 -6.4052,-1.45366h-11.58387v-2.77104h10.49362c2.54391,0 4.51241,-0.48455 5.9055,-1.45366c1.42337,-0.96911 2.13507,-2.40763 2.13507,-4.31556c0,-1.93821 -0.71169,-3.37674 -2.13507,-4.31556c-1.39309,-0.96911 -3.36159,-1.45366 -5.9055,-1.45366h-10.13021zM274.8524,141.08476h16.80797v2.8619h-16.80797zM275.21581,155.75766h19.12474v2.90732h-22.48634v-31.79886h21.80493v2.90732h-18.44334zM315.55229,158.93754c-2.3622,0 -4.63355,-0.37856 -6.81405,-1.13567c-2.15021,-0.7874 -3.81587,-1.7868 -4.99697,-2.99818l1.31738,-2.58934c1.12053,1.09025 2.61962,2.01392 4.49726,2.77104c1.90793,0.72683 3.90671,1.09025 5.99636,1.09025c1.99879,0 3.61901,-0.24228 4.86068,-0.72683c1.27196,-0.51484 2.19564,-1.19625 2.77104,-2.04421c0.6057,-0.84797 0.90854,-1.7868 0.90854,-2.81647c0,-1.24167 -0.36342,-2.24106 -1.09025,-2.99818c-0.69654,-0.75712 -1.62023,-1.34767 -2.77104,-1.77165c-1.15081,-0.45427 -2.42277,-0.84797 -3.81587,-1.1811c-1.39309,-0.33313 -2.78619,-0.68141 -4.17928,-1.04482c-1.39309,-0.3937 -2.68019,-0.90854 -3.86129,-1.54452c-1.15081,-0.63597 -2.08964,-1.46881 -2.81647,-2.49848c-0.69654,-1.05996 -1.04482,-2.43792 -1.04482,-4.13385c0,-1.5748 0.40884,-3.01332 1.22653,-4.31556c0.84797,-1.33253 2.13507,-2.39248 3.86129,-3.17988c1.72622,-0.81769 3.937,-1.22653 6.63233,-1.22653c1.7868,0 3.55844,0.25742 5.31495,0.77225c1.75651,0.48455 3.27074,1.16596 4.5427,2.04421l-1.13567,2.68019c-1.36281,-0.90854 -2.81647,-1.5748 -4.36098,-1.99879c-1.51423,-0.42398 -2.98304,-0.63597 -4.40642,-0.63597c-1.90793,0 -3.48273,0.25742 -4.7244,0.77225c-1.24167,0.51484 -2.16535,1.21138 -2.77104,2.08964c-0.57541,0.84797 -0.86311,1.81708 -0.86311,2.90732c0,1.24167 0.34827,2.24106 1.04482,2.99818c0.72683,0.75712 1.66565,1.34767 2.81647,1.77165c1.1811,0.42398 2.4682,0.80254 3.86129,1.13567c1.39309,0.33313 2.77104,0.69654 4.13385,1.09025c1.39309,0.3937 2.66504,0.90854 3.81587,1.54452c1.1811,0.6057 2.11992,1.42337 2.81647,2.45305c0.72683,1.02968 1.09025,2.37734 1.09025,4.043c0,1.54452 -0.42398,2.98304 -1.27196,4.31556c-0.84797,1.30224 -2.15021,2.3622 -3.90671,3.17988c-1.72622,0.7874 -3.95215,1.1811 -6.67777,1.1811z" fill="#ffffff" stroke-width="1"/><path d="M146.10326,313.45354v-186.53105h189.52033v186.53105z" fill="none" stroke-width="0"/></g></g></svg>