<svg version="1.1" xmlns="http://www.w3.org/2000/svg" xmlns:xlink="http://www.w3.org/1999/xlink" width="132.53471" height="63.92564" viewBox="0,0,132.53471,63.92564"><g transform="translate(-173.73264,-148.03718)"><g data-paper-data="{&quot;isPaintingLayer&quot;:true}" fill-rule="nonzero" stroke="none" stroke-linecap="butt" stroke-linejoin="miter" stroke-miterlimit="10" stroke-dasharray="" stroke-dashoffset="0" style="mix-blend-mode: normal"><path d="M183.24922,198.5v-37h113.50156v37z" fill-opacity="0.47" fill="#000000" stroke-width="1"/><path d="M220.75506,185.195c-0.78887,0 -1.54407,-0.11063 -2.2656,-0.3319c-0.72153,-0.23089 -1.29394,-0.52431 -1.71724,-0.88026l0.64938,-1.45749c0.40406,0.31747 0.90431,0.58203 1.50078,0.79368c0.59646,0.21165 1.20736,0.31747 1.83268,0.31747c0.52912,0 0.95723,-0.05772 1.28432,-0.17317c0.32709,-0.11544 0.5676,-0.26937 0.72153,-0.46178c0.15393,-0.20203 0.23089,-0.42811 0.23089,-0.67824c0,-0.30785 -0.11063,-0.55317 -0.3319,-0.73596c-0.22127,-0.19241 -0.50988,-0.34152 -0.86583,-0.44735c-0.34633,-0.11544 -0.73596,-0.22127 -1.16887,-0.31747c-0.4233,-0.0962 -0.8514,-0.20684 -1.28432,-0.3319c-0.4233,-0.13469 -0.81292,-0.30304 -1.16887,-0.50507c-0.34633,-0.21165 -0.63013,-0.49064 -0.8514,-0.83697c-0.22127,-0.34633 -0.3319,-0.78887 -0.3319,-1.32761c0,-0.54836 0.14431,-1.04862 0.43292,-1.50078c0.29823,-0.46178 0.74558,-0.82735 1.34204,-1.09672c0.60608,-0.27899 1.3709,-0.41849 2.29446,-0.41849c0.60608,0 1.20736,0.07696 1.80382,0.23089c0.59646,0.15393 1.11596,0.37519 1.5585,0.66381l-0.59165,1.45749c-0.45216,-0.26937 -0.91875,-0.46659 -1.39976,-0.59165c-0.48102,-0.13469 -0.9428,-0.20203 -1.38533,-0.20203c-0.5195,0 -0.9428,0.06253 -1.26989,0.1876c-0.31747,0.12506 -0.55317,0.28861 -0.7071,0.49064c-0.14431,0.20203 -0.21646,0.43292 -0.21646,0.69267c0,0.30785 0.10582,0.55798 0.31747,0.75039c0.22127,0.18279 0.50507,0.32709 0.8514,0.43292c0.35595,0.10582 0.75039,0.21165 1.18331,0.31747c0.43292,0.0962 0.86102,0.20684 1.28432,0.3319c0.43292,0.12506 0.82254,0.28861 1.16888,0.49064c0.35595,0.20203 0.63975,0.47621 0.8514,0.82254c0.22127,0.34633 0.3319,0.78406 0.3319,1.31318c0,0.53874 -0.14912,1.039 -0.44735,1.50078c-0.28861,0.45216 -0.73596,0.81773 -1.34204,1.09672c-0.60608,0.26937 -1.3709,0.40406 -2.29446,0.40406zM228.60732,185.05069v-8.51403h-3.34789v-1.58736h8.57175v1.58736h-3.34789v8.51403zM233.30315,185.05069l4.54562,-10.10139h1.84711l4.56006,10.10139h-1.96256l-3.91068,-9.10568h0.75039l-3.89625,9.10568zM235.39557,182.71294l0.50507,-1.47192h5.45475l0.50507,1.47192zM245.5405,185.05069v-10.10139h4.156c0.89469,0 1.65951,0.14431 2.29446,0.43292c0.64456,0.28861 1.14001,0.70229 1.48635,1.24103c0.34633,0.53874 0.5195,1.1785 0.5195,1.91926c0,0.74077 -0.17317,1.38052 -0.5195,1.91926c-0.34633,0.52912 -0.84178,0.93799 -1.48635,1.2266c-0.63494,0.27899 -1.39976,0.41849 -2.29446,0.41849h-3.117l0.83697,-0.8514v3.79524zM252.14969,185.05069l-2.55421,-3.66536h2.00585l2.56864,3.66536zM247.41647,181.45749l-0.83697,-0.89469h3.03042c0.82735,0 1.44787,-0.17798 1.86154,-0.53393c0.4233,-0.35595 0.63494,-0.8514 0.63494,-1.48635c0,-0.64456 -0.21165,-1.14001 -0.63494,-1.48635c-0.41368,-0.34633 -1.03419,-0.5195 -1.86154,-0.5195h-3.03042l0.83697,-0.92356zM258.00392,185.05069v-8.51403h-3.34789v-1.58736h8.57175v1.58736h-3.34789v8.51403z" fill="#ffffff" stroke-width="1"/><path d="M173.73264,211.96282v-63.92564h132.53471v63.92564z" fill="none" stroke-width="0"/></g></g></svg>