<svg version="1.1" xmlns="http://www.w3.org/2000/svg" xmlns:xlink="http://www.w3.org/1999/xlink" width="106.768" height="11.352" viewBox="0,0,106.768,11.352"><g transform="translate(-186.616,-174.324)"><g data-paper-data="{&quot;isPaintingLayer&quot;:true}" fill="#ffffff" fill-rule="nonzero" stroke="none" stroke-width="1" stroke-linecap="butt" stroke-linejoin="miter" stroke-miterlimit="10" stroke-dasharray="" stroke-dashoffset="0" style="mix-blend-mode: normal"><path d="M189.568,183.288v-7.632h-2.952v-0.768h6.792v0.768h-2.952v7.632zM196.5584,183.348c-0.608,0 -1.156,-0.136 -1.644,-0.408c-0.48,-0.28 -0.86,-0.66 -1.14,-1.14c-0.28,-0.488 -0.42,-1.044 -0.42,-1.668c0,-0.632 0.14,-1.188 0.42,-1.668c0.28,-0.48 0.66,-0.856 1.14,-1.128c0.48,-0.272 1.028,-0.408 1.644,-0.408c0.624,0 1.176,0.136 1.656,0.408c0.488,0.272 0.868,0.648 1.14,1.128c0.28,0.48 0.42,1.036 0.42,1.668c0,0.624 -0.14,1.18 -0.42,1.668c-0.272,0.48 -0.652,0.86 -1.14,1.14c-0.488,0.272 -1.04,0.408 -1.656,0.408zM196.5584,182.592c0.456,0 0.86,-0.1 1.212,-0.3c0.352,-0.208 0.628,-0.496 0.828,-0.864c0.208,-0.376 0.312,-0.808 0.312,-1.296c0,-0.496 -0.104,-0.928 -0.312,-1.296c-0.2,-0.368 -0.476,-0.652 -0.828,-0.852c-0.352,-0.208 -0.752,-0.312 -1.2,-0.312c-0.448,0 -0.848,0.104 -1.2,0.312c-0.352,0.2 -0.632,0.484 -0.84,0.852c-0.208,0.368 -0.312,0.8 -0.312,1.296c0,0.488 0.104,0.92 0.312,1.296c0.208,0.368 0.488,0.656 0.84,0.864c0.352,0.2 0.748,0.3 1.188,0.3zM204.1178,183.348c-0.536,0 -1.004,-0.1 -1.404,-0.3c-0.4,-0.2 -0.712,-0.5 -0.936,-0.9c-0.216,-0.4 -0.324,-0.9 -0.324,-1.5v-3.66h0.852v3.564c0,0.672 0.164,1.18 0.492,1.524c0.336,0.336 0.804,0.504 1.404,0.504c0.44,0 0.82,-0.088 1.14,-0.264c0.328,-0.184 0.576,-0.448 0.744,-0.792c0.176,-0.344 0.264,-0.756 0.264,-1.236v-3.3h0.852v6.3h-0.816v-1.728l0.132,0.312c-0.2,0.464 -0.512,0.828 -0.936,1.092c-0.416,0.256 -0.904,0.384 -1.464,0.384zM212.1923,183.348c-0.624,0 -1.184,-0.136 -1.68,-0.408c-0.488,-0.28 -0.872,-0.66 -1.152,-1.14c-0.28,-0.488 -0.42,-1.044 -0.42,-1.668c0,-0.632 0.14,-1.188 0.42,-1.668c0.28,-0.48 0.664,-0.856 1.152,-1.128c0.496,-0.272 1.056,-0.408 1.68,-0.408c0.536,0 1.02,0.104 1.452,0.312c0.432,0.208 0.772,0.52 1.02,0.936l-0.636,0.432c-0.216,-0.32 -0.484,-0.556 -0.804,-0.708c-0.32,-0.152 -0.668,-0.228 -1.044,-0.228c-0.448,0 -0.852,0.104 -1.212,0.312c-0.36,0.2 -0.644,0.484 -0.852,0.852c-0.208,0.368 -0.312,0.8 -0.312,1.296c0,0.496 0.104,0.928 0.312,1.296c0.208,0.368 0.492,0.656 0.852,0.864c0.36,0.2 0.764,0.3 1.212,0.3c0.376,0 0.724,-0.076 1.044,-0.228c0.32,-0.152 0.588,-0.384 0.804,-0.696l0.636,0.432c-0.248,0.408 -0.588,0.72 -1.02,0.936c-0.432,0.208 -0.916,0.312 -1.452,0.312zM219.4603,176.928c0.512,0 0.96,0.1 1.344,0.3c0.392,0.192 0.696,0.488 0.912,0.888c0.224,0.4 0.336,0.904 0.336,1.512v3.66h-0.852v-3.576c0,-0.664 -0.168,-1.164 -0.504,-1.5c-0.328,-0.344 -0.792,-0.516 -1.392,-0.516c-0.448,0 -0.84,0.092 -1.176,0.276c-0.328,0.176 -0.584,0.436 -0.768,0.78c-0.176,0.336 -0.264,0.744 -0.264,1.224v3.312h-0.852v-8.904h0.852v4.332l-0.168,-0.324c0.2,-0.456 0.52,-0.812 0.96,-1.068c0.44,-0.264 0.964,-0.396 1.572,-0.396zM224.3537,183.288v-6.3h0.852v6.3zM224.7857,175.596c-0.176,0 -0.324,-0.06 -0.444,-0.18c-0.12,-0.12 -0.18,-0.264 -0.18,-0.432c0,-0.168 0.06,-0.308 0.18,-0.42c0.12,-0.12 0.268,-0.18 0.444,-0.18c0.176,0 0.324,0.056 0.444,0.168c0.12,0.112 0.18,0.252 0.18,0.42c0,0.176 -0.06,0.324 -0.18,0.444c-0.112,0.12 -0.26,0.18 -0.444,0.18zM230.7923,176.928c0.512,0 0.96,0.1 1.344,0.3c0.392,0.192 0.696,0.488 0.912,0.888c0.224,0.4 0.336,0.904 0.336,1.512v3.66h-0.852v-3.576c0,-0.664 -0.168,-1.164 -0.504,-1.5c-0.328,-0.344 -0.792,-0.516 -1.392,-0.516c-0.448,0 -0.84,0.092 -1.176,0.276c-0.328,0.176 -0.584,0.436 -0.768,0.78c-0.176,0.336 -0.264,0.744 -0.264,1.224v3.312h-0.852v-6.3h0.816v1.728l-0.132,-0.324c0.2,-0.456 0.52,-0.812 0.96,-1.068c0.44,-0.264 0.964,-0.396 1.572,-0.396zM238.3737,185.676c-0.576,0 -1.128,-0.084 -1.656,-0.252c-0.528,-0.168 -0.956,-0.408 -1.284,-0.72l0.432,-0.648c0.296,0.264 0.66,0.472 1.092,0.624c0.44,0.16 0.904,0.24 1.392,0.24c0.8,0 1.388,-0.188 1.764,-0.564c0.376,-0.368 0.564,-0.944 0.564,-1.728v-1.572l0.12,-1.08l-0.084,-1.08v-1.908h0.816v5.532c0,1.088 -0.268,1.884 -0.804,2.388c-0.528,0.512 -1.312,0.768 -2.352,0.768zM238.2177,183.048c-0.6,0 -1.14,-0.128 -1.62,-0.384c-0.48,-0.264 -0.86,-0.628 -1.14,-1.092c-0.272,-0.464 -0.408,-0.996 -0.408,-1.596c0,-0.6 0.136,-1.128 0.408,-1.584c0.28,-0.464 0.66,-0.824 1.14,-1.08c0.48,-0.256 1.02,-0.384 1.62,-0.384c0.56,0 1.064,0.116 1.512,0.348c0.448,0.232 0.804,0.576 1.068,1.032c0.264,0.456 0.396,1.012 0.396,1.668c0,0.656 -0.132,1.212 -0.396,1.668c-0.264,0.456 -0.62,0.804 -1.068,1.044c-0.448,0.24 -0.952,0.36 -1.512,0.36zM238.3017,182.292c0.464,0 0.876,-0.096 1.236,-0.288c0.36,-0.2 0.644,-0.472 0.852,-0.816c0.208,-0.352 0.312,-0.756 0.312,-1.212c0,-0.456 -0.104,-0.856 -0.312,-1.2c-0.208,-0.344 -0.492,-0.612 -0.852,-0.804c-0.36,-0.2 -0.772,-0.3 -1.236,-0.3c-0.456,0 -0.868,0.1 -1.236,0.3c-0.36,0.192 -0.644,0.46 -0.852,0.804c-0.2,0.344 -0.3,0.744 -0.3,1.2c0,0.456 0.1,0.86 0.3,1.212c0.208,0.344 0.492,0.616 0.852,0.816c0.368,0.192 0.78,0.288 1.236,0.288zM247.2212,183.288v-8.4h0.732l5.796,7.296h-0.384v-7.296h0.876v8.4h-0.732l-5.784,-7.296h0.384v7.296zM259.4069,183.348c-0.536,0 -1.004,-0.1 -1.404,-0.3c-0.4,-0.2 -0.712,-0.5 -0.936,-0.9c-0.216,-0.4 -0.324,-0.9 -0.324,-1.5v-3.66h0.852v3.564c0,0.672 0.164,1.18 0.492,1.524c0.336,0.336 0.804,0.504 1.404,0.504c0.44,0 0.82,-0.088 1.14,-0.264c0.328,-0.184 0.576,-0.448 0.744,-0.792c0.176,-0.344 0.264,-0.756 0.264,-1.236v-3.3h0.852v6.3h-0.816v-1.728l0.132,0.312c-0.2,0.464 -0.512,0.828 -0.936,1.092c-0.416,0.256 -0.904,0.384 -1.464,0.384zM264.8654,183.288v-8.904h0.852v8.904zM268.088,183.288v-8.904h0.852v8.904zM271.3107,183.288v-6.3h0.852v6.3zM271.7427,175.596c-0.176,0 -0.324,-0.06 -0.444,-0.18c-0.12,-0.12 -0.18,-0.264 -0.18,-0.432c0,-0.168 0.06,-0.308 0.18,-0.42c0.12,-0.12 0.268,-0.18 0.444,-0.18c0.176,0 0.324,0.056 0.444,0.168c0.12,0.112 0.18,0.252 0.18,0.42c0,0.176 -0.06,0.324 -0.18,0.444c-0.112,0.12 -0.26,0.18 -0.444,0.18zM274.6773,183.288v-7.092c0,-0.56 0.164,-1.012 0.492,-1.356c0.328,-0.344 0.8,-0.516 1.416,-0.516c0.24,0 0.472,0.032 0.696,0.096c0.224,0.064 0.412,0.164 0.564,0.3l-0.288,0.636c-0.12,-0.104 -0.26,-0.18 -0.42,-0.228c-0.16,-0.056 -0.332,-0.084 -0.516,-0.084c-0.36,0 -0.636,0.1 -0.828,0.3c-0.192,0.2 -0.288,0.496 -0.288,0.888v0.96l0.024,0.396v5.7zM273.5493,177.696v-0.708h3.9v0.708zM278.601,183.288v-6.3h0.852v6.3zM279.033,175.596c-0.176,0 -0.324,-0.06 -0.444,-0.18c-0.1197,-0.12 -0.1797,-0.264 -0.1797,-0.432c0,-0.168 0.06,-0.308 0.1797,-0.42c0.12,-0.12 0.268,-0.18 0.444,-0.18c0.176,0 0.324,0.056 0.444,0.168c0.12,0.112 0.18,0.252 0.18,0.42c0,0.176 -0.06,0.324 -0.18,0.444c-0.112,0.12 -0.26,0.18 -0.444,0.18zM284.522,183.348c-0.656,0 -1.232,-0.136 -1.728,-0.408c-0.496,-0.28 -0.884,-0.66 -1.164,-1.14c-0.28,-0.488 -0.42,-1.044 -0.42,-1.668c0,-0.624 0.132,-1.176 0.396,-1.656c0.272,-0.48 0.64,-0.856 1.104,-1.128c0.472,-0.28 1,-0.42 1.584,-0.42c0.592,0 1.116,0.136 1.572,0.408c0.464,0.264 0.828,0.64 1.092,1.128c0.264,0.48 0.396,1.036 0.396,1.668c0,0.04 -0.004,0.084 -0.012,0.132c0,0.04 0,0.084 0,0.132h-5.484v-0.636h5.028l-0.336,0.252c0,-0.456 -0.1,-0.86 -0.3,-1.212c-0.192,-0.36 -0.456,-0.64 -0.792,-0.84c-0.336,-0.2 -0.724,-0.3 -1.164,-0.3c-0.432,0 -0.82,0.1 -1.164,0.3c-0.344,0.2 -0.612,0.48 -0.804,0.84c-0.192,0.36 -0.288,0.772 -0.288,1.236v0.132c0,0.48 0.104,0.904 0.312,1.272c0.216,0.36 0.512,0.644 0.888,0.852c0.384,0.2 0.82,0.3 1.308,0.3c0.384,0 0.74,-0.068 1.068,-0.204c0.336,-0.136 0.624,-0.344 0.864,-0.624l0.48,0.552c-0.28,0.336 -0.632,0.592 -1.056,0.768c-0.416,0.176 -0.876,0.264 -1.38,0.264zM290.78,183.348c-0.52,0 -1.012,-0.072 -1.476,-0.216c-0.464,-0.152 -0.828,-0.34 -1.092,-0.564l0.384,-0.672c0.256,0.192 0.584,0.36 0.984,0.504c0.4,0.136 0.82,0.204 1.26,0.204c0.6,0 1.032,-0.092 1.296,-0.276c0.264,-0.192 0.396,-0.444 0.396,-0.756c0,-0.232 -0.076,-0.412 -0.228,-0.54c-0.144,-0.136 -0.336,-0.236 -0.576,-0.3c-0.24,-0.072 -0.508,-0.132 -0.804,-0.18c-0.296,-0.048 -0.592,-0.104 -0.888,-0.168c-0.288,-0.064 -0.552,-0.156 -0.792,-0.276c-0.24,-0.128 -0.436,-0.3 -0.588,-0.516c-0.144,-0.216 -0.216,-0.504 -0.216,-0.864c0,-0.344 0.096,-0.652 0.288,-0.924c0.192,-0.272 0.472,-0.484 0.84,-0.636c0.376,-0.16 0.832,-0.24 1.368,-0.24c0.408,0 0.816,0.056 1.224,0.168c0.408,0.104 0.744,0.244 1.008,0.42l-0.372,0.684c-0.28,-0.192 -0.58,-0.328 -0.9,-0.408c-0.32,-0.088 -0.64,-0.132 -0.96,-0.132c-0.568,0 -0.988,0.1 -1.26,0.3c-0.264,0.192 -0.396,0.44 -0.396,0.744c0,0.24 0.072,0.428 0.216,0.564c0.152,0.136 0.348,0.244 0.588,0.324c0.248,0.072 0.516,0.132 0.804,0.18c0.296,0.048 0.588,0.108 0.876,0.18c0.296,0.064 0.564,0.156 0.804,0.276c0.248,0.112 0.444,0.276 0.588,0.492c0.152,0.208 0.228,0.484 0.228,0.828c0,0.368 -0.104,0.688 -0.312,0.96c-0.2,0.264 -0.496,0.472 -0.888,0.624c-0.384,0.144 -0.852,0.216 -1.404,0.216z"/></g></g></svg>