<svg version="1.1" xmlns="http://www.w3.org/2000/svg" xmlns:xlink="http://www.w3.org/1999/xlink" width="403.3004" height="335.75375" viewBox="0,0,403.3004,335.75375"><g transform="translate(-38.3498,-12.12313)"><g data-paper-data="{&quot;isPaintingLayer&quot;:true}" fill-rule="nonzero" stroke="none" stroke-width="1" stroke-linecap="butt" stroke-linejoin="miter" stroke-miterlimit="10" stroke-dasharray="" stroke-dashoffset="0" style="mix-blend-mode: normal"><path d="M38.3498,347.87688v-335.75375h403.3004v335.75375z" fill-opacity="0.41935" fill="#171717"/><path d="M62.5997,18.01562h2.17217v20.82903h-2.17217zM49.56668,38.84464h-2.20193v-20.82903h2.20193zM62.80799,29.23353h-13.47936v-1.93412h13.47936zM73.53426,27.32917h11.00963v1.87461h-11.00963zM73.7723,36.94027h12.52717v1.90437h-14.7291v-20.82903h14.28276v1.90437h-12.08084zM91.47536,38.84464v-20.82903h2.20193v18.92466h11.66407v1.90437zM108.9976,38.84464v-20.82903h7.79601c1.76551,0 3.28305,0.28764 4.55263,0.86292c1.26958,0.55544 2.2416,1.36876 2.91606,2.43997c0.6943,1.05137 1.04145,2.33087 1.04145,3.83849c0,1.46795 -0.34715,2.73753 -1.04145,3.80874c-0.67446,1.05137 -1.64649,1.86469 -2.91606,2.43997c-1.26958,0.57528 -2.78712,0.86292 -4.55263,0.86292h-6.57602l0.98194,-1.04145v7.61747zM111.19952,31.4057l-0.98194,-1.07121h6.51651c2.0829,0 3.65996,-0.44634 4.73116,-1.33901c1.09104,-0.91251 1.63657,-2.19201 1.63657,-3.83849c0,-1.66632 -0.54552,-2.95574 -1.63657,-3.86825c-1.07121,-0.91251 -2.64826,-1.36876 -4.73116,-1.36876h-6.51651l0.98194,-1.04145z" fill="#ffffff"/><path d="M48.30863,110.4965c-0.23805,0 -0.46121,-0.05455 -0.6695,-0.16366c-0.20829,-0.11902 -0.37691,-0.28268 -0.50585,-0.49097c-0.11902,-0.20829 -0.17853,-0.44634 -0.17853,-0.71414c0,-0.25788 0.05951,-0.48601 0.17853,-0.68438c0.12894,-0.20829 0.29756,-0.37195 0.50585,-0.49097c0.20829,-0.11902 0.43146,-0.17853 0.6695,-0.17853c0.24796,0 0.47113,0.05951 0.6695,0.17853c0.20829,0.11902 0.37195,0.28268 0.49097,0.49097c0.11902,0.19837 0.17853,0.4265 0.17853,0.68438c0,0.2678 -0.05951,0.50585 -0.17853,0.71414c-0.11902,0.20829 -0.28268,0.37195 -0.49097,0.49097c-0.19837,0.1091 -0.42154,0.16366 -0.6695,0.16366zM63.4279,113.23403l-3.48142,-10.41451h1.53242l3.19874,9.61111h-0.77365l3.31777,-9.61111h1.36876l3.24338,9.61111h-0.74389l3.24338,-9.61111h1.4134l-3.48142,10.41451h-1.56218l-3.03509,-8.91185h0.4017l-3.04996,8.91185zM75.65553,113.23403l4.71629,-10.41451h1.47291l4.73116,10.41451h-1.56218l-4.21044,-9.58135h0.59512l-4.21044,9.58135zM77.66405,110.6304l0.4017,-1.19023h5.86188l0.43146,1.19023zM91.16454,113.35305c-0.79349,0 -1.55226,-0.11902 -2.27632,-0.35707c-0.72406,-0.24796 -1.29438,-0.56536 -1.71096,-0.95218l0.55048,-1.16047c0.39674,0.34715 0.90259,0.63479 1.51754,0.86292c0.61495,0.22813 1.2547,0.34219 1.91925,0.34219c0.60503,0 1.096,-0.06943 1.47291,-0.20829c0.37691,-0.13886 0.65463,-0.32731 0.83316,-0.56536c0.17853,-0.24796 0.2678,-0.52568 0.2678,-0.83316c0,-0.35707 -0.11902,-0.64471 -0.35707,-0.86292c-0.22813,-0.21821 -0.53064,-0.39178 -0.90755,-0.52073c-0.36699,-0.13886 -0.77365,-0.25788 -1.21999,-0.35707c-0.44634,-0.09919 -0.89763,-0.21325 -1.35389,-0.34219c-0.44634,-0.13886 -0.85796,-0.31244 -1.23486,-0.52073c-0.36699,-0.20829 -0.66455,-0.48601 -0.89267,-0.83316c-0.22813,-0.35707 -0.34219,-0.81332 -0.34219,-1.36876c0,-0.5356 0.13886,-1.02657 0.41658,-1.47291c0.28764,-0.45625 0.72406,-0.81828 1.30925,-1.08608c0.59512,-0.27772 1.34893,-0.41658 2.26144,-0.41658c0.60503,0 1.20511,0.07935 1.80022,0.23805c0.59512,0.1587 1.11088,0.38682 1.5473,0.68438l-0.49097,1.19023c-0.44634,-0.29756 -0.91747,-0.51081 -1.4134,-0.63975c-0.49593,-0.13886 -0.97698,-0.20829 -1.44315,-0.20829c-0.5852,0 -1.06625,0.07439 -1.44315,0.22317c-0.37691,0.14878 -0.65463,0.34715 -0.83316,0.59512c-0.16862,0.24796 -0.25292,0.52568 -0.25292,0.83316c0,0.36699 0.11406,0.65959 0.34219,0.87779c0.23805,0.21821 0.54056,0.39178 0.90755,0.52073c0.37691,0.12894 0.78853,0.24796 1.23486,0.35707c0.44634,0.09919 0.89267,0.21325 1.33901,0.34219c0.45625,0.12894 0.86788,0.29756 1.23486,0.50585c0.37691,0.20829 0.67942,0.48601 0.90755,0.83316c0.22813,0.34715 0.34219,0.79349 0.34219,1.33901c0,0.52568 -0.14382,1.01665 -0.43146,1.47291c-0.28764,0.44634 -0.73398,0.80836 -1.33901,1.08608c-0.59512,0.2678 -1.34893,0.4017 -2.26144,0.4017zM97.37004,113.23403v-10.41451h4.38885c1.11088,0 2.08786,0.21821 2.93094,0.65463c0.853,0.43642 1.51258,1.04641 1.97876,1.82998c0.47609,0.78357 0.71414,1.69112 0.71414,2.72265c0,1.03153 -0.23805,1.93908 -0.71414,2.72265c-0.46617,0.78357 -1.12576,1.39356 -1.97876,1.82998c-0.84308,0.43642 -1.82006,0.65463 -2.93094,0.65463zM98.85783,111.93965h2.81179c0.86292,0 1.60681,-0.16366 2.23168,-0.49097c0.63479,-0.32731 1.12576,-0.78357 1.47291,-1.36876c0.34715,-0.59512 0.52073,-1.2795 0.52073,-2.05315c0,-0.78357 -0.17358,-1.46795 -0.52073,-2.05315c-0.34715,-0.5852 -0.83812,-1.04145 -1.47291,-1.36876c-0.62487,-0.32731 -1.36876,-0.49097 -2.23168,-0.49097h-2.81179zM111.67871,114.72181l4.9097,-14.01496h1.29438l-4.9097,14.01496zM121.30594,113.23403l4.71629,-10.41451h1.47291l4.73116,10.41451h-1.56218l-4.21044,-9.58135h0.59512l-4.21044,9.58135zM123.31445,110.6304l0.4017,-1.19023h5.86188l0.43146,1.19023zM133.78042,113.23403v-10.41451h4.06166c0.91251,0 1.69112,0.14382 2.33583,0.43146c0.64471,0.28764 1.14064,0.70422 1.48779,1.24974c0.34715,0.54552 0.52073,1.19519 0.52073,1.949c0,0.75381 -0.17358,1.40348 -0.52073,1.949c-0.34715,0.5356 -0.84308,0.94722 -1.48779,1.23486c-0.64471,0.28764 -1.42332,0.43146 -2.33583,0.43146h-3.24338l0.6695,-0.68438v3.85337zM140.74327,113.23403l-2.64826,-3.77898h1.59193l2.67802,3.77898zM135.26821,109.52943l-0.6695,-0.72902h3.19874c0.95218,0 1.67128,-0.20333 2.15729,-0.60999c0.49593,-0.41658 0.74389,-0.99682 0.74389,-1.74071c0,-0.74389 -0.24796,-1.31917 -0.74389,-1.72583c-0.48601,-0.40666 -1.20511,-0.60999 -2.15729,-0.60999h-3.19874l0.6695,-0.74389zM144.58982,113.23403v-10.41451h4.06166c0.91251,0 1.69112,0.14382 2.33583,0.43146c0.64471,0.28764 1.14064,0.70422 1.48779,1.24974c0.34715,0.54552 0.52073,1.19519 0.52073,1.949c0,0.75381 -0.17358,1.40348 -0.52073,1.949c-0.34715,0.5356 -0.84308,0.94722 -1.48779,1.23486c-0.64471,0.28764 -1.42332,0.43146 -2.33583,0.43146h-3.24338l0.6695,-0.68438v3.85337zM151.55266,113.23403l-2.64826,-3.77898h1.59193l2.67802,3.77898zM146.07761,109.52943l-0.6695,-0.72902h3.19874c0.95218,0 1.67128,-0.20333 2.15729,-0.60999c0.49593,-0.41658 0.74389,-0.99682 0.74389,-1.74071c0,-0.74389 -0.24796,-1.31917 -0.74389,-1.72583c-0.48601,-0.40666 -1.20511,-0.60999 -2.15729,-0.60999h-3.19874l0.6695,-0.74389zM160.10124,113.35305c-0.79349,0 -1.53242,-0.1339 -2.2168,-0.4017c-0.67446,-0.2678 -1.25966,-0.63975 -1.75559,-1.11584c-0.49593,-0.48601 -0.88275,-1.05137 -1.16047,-1.69608c-0.27772,-0.64471 -0.41658,-1.34893 -0.41658,-2.11266c0,-0.76373 0.13886,-1.46795 0.41658,-2.11266c0.27772,-0.64471 0.66455,-1.20511 1.16047,-1.6812c0.49593,-0.48601 1.08113,-0.86292 1.75559,-1.13072c0.67446,-0.2678 1.4134,-0.4017 2.2168,-0.4017c0.79349,0 1.5225,0.1339 2.18705,0.4017c0.67446,0.25788 1.25966,0.62983 1.75559,1.11584c0.50585,0.47609 0.89267,1.03649 1.16047,1.6812c0.27772,0.64471 0.41658,1.35389 0.41658,2.12754c0,0.77365 -0.13886,1.48283 -0.41658,2.12754c-0.2678,0.64471 -0.65463,1.21007 -1.16047,1.69608c-0.49593,0.47609 -1.08113,0.84804 -1.75559,1.11584c-0.66455,0.25788 -1.39356,0.38682 -2.18705,0.38682zM160.10124,112.02892c0.57528,0 1.10592,-0.09919 1.59193,-0.29756c0.49593,-0.19837 0.92243,-0.47609 1.2795,-0.83316c0.36699,-0.36699 0.64967,-0.79349 0.84804,-1.2795c0.20829,-0.48601 0.31244,-1.01665 0.31244,-1.59193c0,-0.57528 -0.10415,-1.10592 -0.31244,-1.59193c-0.19837,-0.48601 -0.48105,-0.90755 -0.84804,-1.26462c-0.35707,-0.36699 -0.78357,-0.64967 -1.2795,-0.84804c-0.48601,-0.19837 -1.01665,-0.29756 -1.59193,-0.29756c-0.5852,0 -1.12576,0.09919 -1.62169,0.29756c-0.48601,0.19837 -0.91251,0.48105 -1.2795,0.84804c-0.36699,0.35707 -0.65463,0.77861 -0.86292,1.26462c-0.19837,0.48601 -0.29756,1.01665 -0.29756,1.59193c0,0.57528 0.09919,1.10592 0.29756,1.59193c0.20829,0.48601 0.49593,0.91251 0.86292,1.2795c0.36699,0.35707 0.79349,0.63479 1.2795,0.83316c0.49593,0.19837 1.03649,0.29756 1.62169,0.29756zM169.97024,113.23403l-3.48142,-10.41451h1.53242l3.19874,9.61111h-0.77365l3.31777,-9.61111h1.36876l3.24338,9.61111h-0.74389l3.24338,-9.61111h1.4134l-3.48142,10.41451h-1.56218l-3.03509,-8.91185h0.4017l-3.04996,8.91185zM189.63197,110.71967l-0.07439,-1.8151l5.90652,-6.08505h1.69608l-4.56751,4.82043l-0.83316,0.92243zM188.32272,113.23403v-10.41451h1.48779v10.41451zM195.70214,113.23403l-4.26995,-4.96921l0.99682,-1.10096l5.01384,6.07017zM200.37008,107.31263h5.35604v1.26462h-5.35604zM200.50398,111.93965h6.07017v1.29438h-7.55796v-10.41451h7.34967v1.29438h-5.86188zM211.38157,113.23403v-3.98727l0.34219,0.92243l-4.47824,-7.34967h1.59193l3.7641,6.20407h-0.86292l3.77898,-6.20407h1.47291l-4.46336,7.34967l0.32731,-0.92243v3.98727zM221.31689,113.35305c-0.79349,0 -1.55226,-0.11902 -2.27632,-0.35707c-0.72406,-0.24796 -1.29438,-0.56536 -1.71096,-0.95218l0.55048,-1.16047c0.39674,0.34715 0.90259,0.63479 1.51754,0.86292c0.61495,0.22813 1.2547,0.34219 1.91925,0.34219c0.60503,0 1.096,-0.06943 1.47291,-0.20829c0.37691,-0.13886 0.65463,-0.32731 0.83316,-0.56536c0.17853,-0.24796 0.2678,-0.52568 0.2678,-0.83316c0,-0.35707 -0.11902,-0.64471 -0.35707,-0.86292c-0.22813,-0.21821 -0.53064,-0.39178 -0.90755,-0.52073c-0.36699,-0.13886 -0.77365,-0.25788 -1.21999,-0.35707c-0.44634,-0.09919 -0.89763,-0.21325 -1.35389,-0.34219c-0.44634,-0.13886 -0.85796,-0.31244 -1.23486,-0.52073c-0.36699,-0.20829 -0.66455,-0.48601 -0.89267,-0.83316c-0.22813,-0.35707 -0.34219,-0.81332 -0.34219,-1.36876c0,-0.5356 0.13886,-1.02657 0.41658,-1.47291c0.28764,-0.45625 0.72406,-0.81828 1.30925,-1.08608c0.59512,-0.27772 1.34893,-0.41658 2.26144,-0.41658c0.60503,0 1.20511,0.07935 1.80022,0.23805c0.59512,0.1587 1.11088,0.38682 1.5473,0.68438l-0.49097,1.19023c-0.44634,-0.29756 -0.91747,-0.51081 -1.4134,-0.63975c-0.49593,-0.13886 -0.97698,-0.20829 -1.44315,-0.20829c-0.5852,0 -1.06625,0.07439 -1.44315,0.22317c-0.37691,0.14878 -0.65463,0.34715 -0.83316,0.59512c-0.16862,0.24796 -0.25292,0.52568 -0.25292,0.83316c0,0.36699 0.11406,0.65959 0.34219,0.87779c0.23805,0.21821 0.54056,0.39178 0.90755,0.52073c0.37691,0.12894 0.78853,0.24796 1.23486,0.35707c0.44634,0.09919 0.89267,0.21325 1.33901,0.34219c0.45625,0.12894 0.86788,0.29756 1.23486,0.50585c0.37691,0.20829 0.67942,0.48601 0.90755,0.83316c0.22813,0.34715 0.34219,0.79349 0.34219,1.33901c0,0.52568 -0.14382,1.01665 -0.43146,1.47291c-0.28764,0.44634 -0.73398,0.80836 -1.33901,1.08608c-0.59512,0.2678 -1.34893,0.4017 -2.26144,0.4017zM233.58618,113.23403v-9.12014h-3.57069v-1.29438h8.61429v1.29438h-3.57069v9.12014zM244.80596,113.35305c-0.79349,0 -1.53242,-0.1339 -2.2168,-0.4017c-0.67446,-0.2678 -1.25966,-0.63975 -1.75559,-1.11584c-0.49593,-0.48601 -0.88275,-1.05137 -1.16047,-1.69608c-0.27772,-0.64471 -0.41658,-1.34893 -0.41658,-2.11266c0,-0.76373 0.13886,-1.46795 0.41658,-2.11266c0.27772,-0.64471 0.66455,-1.20511 1.16047,-1.6812c0.49593,-0.48601 1.08113,-0.86292 1.75559,-1.13072c0.67446,-0.2678 1.4134,-0.4017 2.2168,-0.4017c0.79349,0 1.5225,0.1339 2.18705,0.4017c0.67446,0.25788 1.25966,0.62983 1.75559,1.11584c0.50585,0.47609 0.89267,1.03649 1.16047,1.6812c0.27772,0.64471 0.41658,1.35389 0.41658,2.12754c0,0.77365 -0.13886,1.48283 -0.41658,2.12754c-0.2678,0.64471 -0.65463,1.21007 -1.16047,1.69608c-0.49593,0.47609 -1.08113,0.84804 -1.75559,1.11584c-0.66455,0.25788 -1.39356,0.38682 -2.18705,0.38682zM244.80596,112.02892c0.57528,0 1.10592,-0.09919 1.59193,-0.29756c0.49593,-0.19837 0.92243,-0.47609 1.2795,-0.83316c0.36699,-0.36699 0.64967,-0.79349 0.84804,-1.2795c0.20829,-0.48601 0.31244,-1.01665 0.31244,-1.59193c0,-0.57528 -0.10415,-1.10592 -0.31244,-1.59193c-0.19837,-0.48601 -0.48105,-0.90755 -0.84804,-1.26462c-0.35707,-0.36699 -0.78357,-0.64967 -1.2795,-0.84804c-0.48601,-0.19837 -1.01665,-0.29756 -1.59193,-0.29756c-0.5852,0 -1.12576,0.09919 -1.62169,0.29756c-0.48601,0.19837 -0.91251,0.48105 -1.2795,0.84804c-0.36699,0.35707 -0.65463,0.77861 -0.86292,1.26462c-0.19837,0.48601 -0.29756,1.01665 -0.29756,1.59193c0,0.57528 0.09919,1.10592 0.29756,1.59193c0.20829,0.48601 0.49593,0.91251 0.86292,1.2795c0.36699,0.35707 0.79349,0.63479 1.2795,0.83316c0.49593,0.19837 1.03649,0.29756 1.62169,0.29756zM256.59543,113.23403v-10.41451h1.21999l4.67165,7.8704h-0.65463l4.61214,-7.8704h1.21999l0.01488,10.41451h-1.42828l-0.01488,-8.16795h0.34219l-4.10629,6.90333h-0.68438l-4.13605,-6.90333h0.37195v8.16795zM275.50645,113.35305c-0.79349,0 -1.53242,-0.1339 -2.2168,-0.4017c-0.67446,-0.2678 -1.25966,-0.63975 -1.75559,-1.11584c-0.49593,-0.48601 -0.88275,-1.05137 -1.16047,-1.69608c-0.27772,-0.64471 -0.41658,-1.34893 -0.41658,-2.11266c0,-0.76373 0.13886,-1.46795 0.41658,-2.11266c0.27772,-0.64471 0.66455,-1.20511 1.16047,-1.6812c0.49593,-0.48601 1.08113,-0.86292 1.75559,-1.13072c0.67446,-0.2678 1.4134,-0.4017 2.2168,-0.4017c0.79349,0 1.5225,0.1339 2.18705,0.4017c0.67446,0.25788 1.25966,0.62983 1.75559,1.11584c0.50585,0.47609 0.89267,1.03649 1.16047,1.6812c0.27772,0.64471 0.41658,1.35389 0.41658,2.12754c0,0.77365 -0.13886,1.48283 -0.41658,2.12754c-0.2678,0.64471 -0.65463,1.21007 -1.16047,1.69608c-0.49593,0.47609 -1.08113,0.84804 -1.75559,1.11584c-0.66455,0.25788 -1.39356,0.38682 -2.18705,0.38682zM275.50645,112.02892c0.57528,0 1.10592,-0.09919 1.59193,-0.29756c0.49593,-0.19837 0.92243,-0.47609 1.2795,-0.83316c0.36699,-0.36699 0.64967,-0.79349 0.84804,-1.2795c0.20829,-0.48601 0.31244,-1.01665 0.31244,-1.59193c0,-0.57528 -0.10415,-1.10592 -0.31244,-1.59193c-0.19837,-0.48601 -0.48105,-0.90755 -0.84804,-1.26462c-0.35707,-0.36699 -0.78357,-0.64967 -1.2795,-0.84804c-0.48601,-0.19837 -1.01665,-0.29756 -1.59193,-0.29756c-0.5852,0 -1.12576,0.09919 -1.62169,0.29756c-0.48601,0.19837 -0.91251,0.48105 -1.2795,0.84804c-0.36699,0.35707 -0.65463,0.77861 -0.86292,1.26462c-0.19837,0.48601 -0.29756,1.01665 -0.29756,1.59193c0,0.57528 0.09919,1.10592 0.29756,1.59193c0.20829,0.48601 0.49593,0.91251 0.86292,1.2795c0.36699,0.35707 0.79349,0.63479 1.2795,0.83316c0.49593,0.19837 1.03649,0.29756 1.62169,0.29756zM285.98544,113.23403l-4.58239,-10.41451h1.60681l4.21044,9.61111h-0.92243l4.24019,-9.61111h1.48779l-4.56751,10.41451zM294.70821,107.31263h5.35604v1.26462h-5.35604zM294.84211,111.93965h6.07017v1.29438h-7.55796v-10.41451h7.34967v1.29438h-5.86188zM48.30863,164.4288c-0.23805,0 -0.46121,-0.05455 -0.6695,-0.16366c-0.20829,-0.11902 -0.37691,-0.28268 -0.50585,-0.49097c-0.11902,-0.20829 -0.17853,-0.44634 -0.17853,-0.71414c0,-0.25788 0.05951,-0.48601 0.17853,-0.68438c0.12894,-0.20829 0.29756,-0.37195 0.50585,-0.49097c0.20829,-0.11902 0.43146,-0.17853 0.6695,-0.17853c0.24796,0 0.47113,0.05951 0.6695,0.17853c0.20829,0.11902 0.37195,0.28268 0.49097,0.49097c0.11902,0.19837 0.17853,0.4265 0.17853,0.68438c0,0.2678 -0.05951,0.50585 -0.17853,0.71414c-0.11902,0.20829 -0.28268,0.37195 -0.49097,0.49097c-0.19837,0.1091 -0.42154,0.16366 -0.6695,0.16366zM65.73397,167.28535c-0.80341,0 -1.54234,-0.12894 -2.2168,-0.38682c-0.67446,-0.2678 -1.25966,-0.63975 -1.75559,-1.11584c-0.49593,-0.48601 -0.88275,-1.05137 -1.16047,-1.69608c-0.27772,-0.64471 -0.41658,-1.35389 -0.41658,-2.12754c0,-0.77365 0.13886,-1.48283 0.41658,-2.12754c0.27772,-0.64471 0.66455,-1.20511 1.16047,-1.6812c0.50585,-0.48601 1.096,-0.85796 1.77047,-1.11584c0.67446,-0.2678 1.41836,-0.4017 2.23168,-0.4017c0.82324,0 1.57705,0.1339 2.26144,0.4017c0.68438,0.2678 1.26462,0.6695 1.74071,1.20511l-0.92243,0.92243c-0.4265,-0.41658 -0.89267,-0.7191 -1.39852,-0.90755c-0.49593,-0.19837 -1.03649,-0.29756 -1.62169,-0.29756c-0.59512,0 -1.15056,0.09919 -1.66632,0.29756c-0.50585,0.19837 -0.94722,0.47609 -1.32413,0.83316c-0.36699,0.35707 -0.65463,0.78357 -0.86292,1.2795c-0.19837,0.48601 -0.29756,1.01665 -0.29756,1.59193c0,0.56536 0.09919,1.096 0.29756,1.59193c0.20829,0.48601 0.49593,0.91251 0.86292,1.2795c0.37691,0.35707 0.81828,0.63479 1.32413,0.83316c0.50585,0.19837 1.05633,0.29756 1.65144,0.29756c0.55544,0 1.08608,-0.08431 1.59193,-0.25292c0.51577,-0.17853 0.99186,-0.47113 1.42828,-0.87779l0.84804,1.13072c-0.51577,0.43642 -1.1208,0.76869 -1.8151,0.99682c-0.68438,0.21821 -1.39356,0.32731 -2.12754,0.32731zM68.24833,165.76781v-3.86825h1.42828v4.06166zM73.87905,161.24493h5.35604v1.26462h-5.35604zM74.01295,165.87195h6.07017v1.29438h-7.55796v-10.41451h7.34967v1.29438h-5.86188zM84.56019,167.16633v-9.12014h-3.57069v-1.29438h8.61429v1.29438h-3.57069v9.12014zM97.28772,167.16633v-9.12014h-3.57069v-1.29438h8.61404v1.29438h-3.57044v9.12014zM111.42021,156.75182h1.48779v10.41451h-1.48779zM105.43931,167.16633h-1.48779v-10.41451h1.48779zM111.55411,162.52443h-6.26359v-1.29438h6.26359zM117.37942,161.24493h5.35604v1.26462h-5.35604zM117.51332,165.87195h6.07017v1.29438h-7.55796v-10.41451h7.34967v1.29438h-5.86188zM133.02289,167.28535c-0.79349,0 -1.55226,-0.11902 -2.27632,-0.35707c-0.72406,-0.24796 -1.29438,-0.56536 -1.71096,-0.95218l0.55048,-1.16047c0.39674,0.34715 0.90259,0.63479 1.51754,0.86292c0.61495,0.22813 1.2547,0.34219 1.91925,0.34219c0.60503,0 1.096,-0.06943 1.47291,-0.20829c0.37691,-0.13886 0.65463,-0.32731 0.83316,-0.56536c0.17853,-0.24796 0.2678,-0.52568 0.2678,-0.83316c0,-0.35707 -0.11902,-0.64471 -0.35707,-0.86292c-0.22813,-0.21821 -0.53064,-0.39178 -0.90755,-0.52073c-0.36699,-0.13886 -0.77365,-0.25788 -1.21999,-0.35707c-0.44634,-0.09919 -0.89763,-0.21325 -1.35389,-0.34219c-0.44634,-0.13886 -0.85796,-0.31244 -1.23486,-0.52073c-0.36699,-0.20829 -0.66455,-0.48601 -0.89267,-0.83316c-0.22813,-0.35707 -0.34219,-0.81332 -0.34219,-1.36876c0,-0.5356 0.13886,-1.02657 0.41658,-1.47291c0.28764,-0.45625 0.72406,-0.81828 1.30925,-1.08608c0.59512,-0.27772 1.34893,-0.41658 2.26144,-0.41658c0.60503,0 1.20511,0.07935 1.80022,0.23805c0.59512,0.1587 1.11088,0.38682 1.5473,0.68438l-0.49097,1.19023c-0.44634,-0.29756 -0.91747,-0.51081 -1.4134,-0.63975c-0.49593,-0.13886 -0.97698,-0.20829 -1.44315,-0.20829c-0.5852,0 -1.06625,0.07439 -1.44315,0.22317c-0.37691,0.14878 -0.65463,0.34715 -0.83316,0.59512c-0.16862,0.24796 -0.25292,0.52568 -0.25292,0.83316c0,0.36699 0.11406,0.65959 0.34219,0.87779c0.23805,0.21821 0.54056,0.39178 0.90755,0.52073c0.37691,0.12894 0.78853,0.24796 1.23486,0.35707c0.44634,0.09919 0.89267,0.21325 1.33901,0.34219c0.45625,0.12894 0.86788,0.29756 1.23486,0.50585c0.37691,0.20829 0.67942,0.48601 0.90755,0.83316c0.22813,0.34715 0.34219,0.79349 0.34219,1.33901c0,0.52568 -0.14382,1.01665 -0.43146,1.47291c-0.28764,0.44634 -0.73398,0.80836 -1.33901,1.08608c-0.59512,0.2678 -1.34893,0.4017 -2.26144,0.4017zM139.22882,167.16633v-10.41451h4.06166c0.91251,0 1.69112,0.14382 2.33583,0.43146c0.64471,0.28764 1.14064,0.70422 1.48779,1.24974c0.34715,0.54552 0.52073,1.19519 0.52073,1.949c0,0.75381 -0.17358,1.40348 -0.52073,1.949c-0.34715,0.5356 -0.84308,0.95218 -1.48779,1.24974c-0.64471,0.28764 -1.42332,0.43146 -2.33583,0.43146h-3.24338l0.6695,-0.69926v3.85337zM140.71661,163.46174l-0.6695,-0.74389h3.19874c0.95218,0 1.67128,-0.20333 2.15729,-0.60999c0.49593,-0.40666 0.74389,-0.98194 0.74389,-1.72583c0,-0.74389 -0.24796,-1.31917 -0.74389,-1.72583c-0.48601,-0.40666 -1.20511,-0.60999 -2.15729,-0.60999h-3.19874l0.6695,-0.74389zM149.82063,167.16633v-10.41451h1.48779v10.41451zM154.42595,167.16633v-10.41451h1.21999l6.88846,8.55478h-0.63975v-8.55478h1.48779v10.41451h-1.21999l-6.88846,-8.55478h0.63975v8.55478zM166.49997,167.16633v-10.41451h1.21999l6.88846,8.55478h-0.63975v-8.55478h1.48779v10.41451h-1.21999l-6.88846,-8.55478h0.63975v8.55478zM178.57337,167.16633v-10.41451h1.48779v10.41451zM183.17931,167.16633v-10.41451h1.21999l6.88846,8.55478h-0.63975v-8.55478h1.48779v10.41451h-1.21999l-6.88846,-8.55478h0.63975v8.55478zM199.95474,167.28535c-0.80341,0 -1.54234,-0.12894 -2.2168,-0.38682c-0.67446,-0.2678 -1.25966,-0.63975 -1.75559,-1.11584c-0.49593,-0.48601 -0.88275,-1.05137 -1.16047,-1.69608c-0.27772,-0.64471 -0.41658,-1.35389 -0.41658,-2.12754c0,-0.77365 0.13886,-1.48283 0.41658,-2.12754c0.27772,-0.64471 0.66455,-1.20511 1.16047,-1.6812c0.50585,-0.48601 1.096,-0.85796 1.77047,-1.11584c0.67446,-0.2678 1.41836,-0.4017 2.23168,-0.4017c0.82324,0 1.57705,0.1339 2.26144,0.4017c0.68438,0.2678 1.26462,0.6695 1.74071,1.20511l-0.92243,0.92243c-0.4265,-0.41658 -0.89267,-0.7191 -1.39852,-0.90755c-0.49593,-0.19837 -1.03649,-0.29756 -1.62169,-0.29756c-0.59512,0 -1.15056,0.09919 -1.66632,0.29756c-0.50585,0.19837 -0.94722,0.47609 -1.32413,0.83316c-0.36699,0.35707 -0.65463,0.78357 -0.86292,1.2795c-0.19837,0.48601 -0.29756,1.01665 -0.29756,1.59193c0,0.56536 0.09919,1.096 0.29756,1.59193c0.20829,0.48601 0.49593,0.91251 0.86292,1.2795c0.37691,0.35707 0.81828,0.63479 1.32413,0.83316c0.50585,0.19837 1.05633,0.29756 1.65144,0.29756c0.55544,0 1.08608,-0.08431 1.59193,-0.25292c0.51577,-0.17853 0.99186,-0.47113 1.42828,-0.87779l0.84804,1.13072c-0.51577,0.43642 -1.1208,0.76869 -1.8151,0.99682c-0.68438,0.21821 -1.39356,0.32731 -2.12754,0.32731zM202.4691,165.76781v-3.86825h1.42828v4.06166zM212.05045,164.65197l-0.07439,-1.8151l5.90652,-6.08505h1.69608l-4.56751,4.82043l-0.83316,0.92243zM210.7412,167.16633v-10.41451h1.48779v10.41451zM218.12062,167.16633l-4.26995,-4.96921l0.99682,-1.10096l5.01384,6.07017zM222.78856,161.24493h5.35604v1.26462h-5.35604zM222.92246,165.87195h6.07017v1.29438h-7.55796v-10.41451h7.34967v1.29438h-5.86188zM233.80005,167.16633v-3.98727l0.34219,0.92243l-4.47824,-7.34967h1.59193l3.7641,6.20407h-0.86292l3.77898,-6.20407h1.47291l-4.46336,7.34967l0.32731,-0.92243v3.98727zM243.73537,167.28535c-0.79349,0 -1.55226,-0.11902 -2.27632,-0.35707c-0.72406,-0.24796 -1.29438,-0.56536 -1.71096,-0.95218l0.55048,-1.16047c0.39674,0.34715 0.90259,0.63479 1.51754,0.86292c0.61495,0.22813 1.2547,0.34219 1.91925,0.34219c0.60503,0 1.096,-0.06943 1.47291,-0.20829c0.37691,-0.13886 0.65463,-0.32731 0.83316,-0.56536c0.17853,-0.24796 0.2678,-0.52568 0.2678,-0.83316c0,-0.35707 -0.11902,-0.64471 -0.35707,-0.86292c-0.22813,-0.21821 -0.53064,-0.39178 -0.90755,-0.52073c-0.36699,-0.13886 -0.77365,-0.25788 -1.21999,-0.35707c-0.44634,-0.09919 -0.89763,-0.21325 -1.35389,-0.34219c-0.44634,-0.13886 -0.85796,-0.31244 -1.23486,-0.52073c-0.36699,-0.20829 -0.66455,-0.48601 -0.89267,-0.83316c-0.22813,-0.35707 -0.34219,-0.81332 -0.34219,-1.36876c0,-0.5356 0.13886,-1.02657 0.41658,-1.47291c0.28764,-0.45625 0.72406,-0.81828 1.30925,-1.08608c0.59512,-0.27772 1.34893,-0.41658 2.26144,-0.41658c0.60503,0 1.20511,0.07935 1.80022,0.23805c0.59512,0.1587 1.11088,0.38682 1.5473,0.68438l-0.49097,1.19023c-0.44634,-0.29756 -0.91747,-0.51081 -1.4134,-0.63975c-0.49593,-0.13886 -0.97698,-0.20829 -1.44315,-0.20829c-0.5852,0 -1.06625,0.07439 -1.44315,0.22317c-0.37691,0.14878 -0.65463,0.34715 -0.83316,0.59512c-0.16862,0.24796 -0.25292,0.52568 -0.25292,0.83316c0,0.36699 0.11406,0.65959 0.34219,0.87779c0.23805,0.21821 0.54056,0.39178 0.90755,0.52073c0.37691,0.12894 0.78853,0.24796 1.23486,0.35707c0.44634,0.09919 0.89267,0.21325 1.33901,0.34219c0.45625,0.12894 0.86788,0.29756 1.23486,0.50585c0.37691,0.20829 0.67942,0.48601 0.90755,0.83316c0.22813,0.34715 0.34219,0.79349 0.34219,1.33901c0,0.52568 -0.14382,1.01665 -0.43146,1.47291c-0.28764,0.44634 -0.73398,0.80836 -1.33901,1.08608c-0.59512,0.2678 -1.34893,0.4017 -2.26144,0.4017zM256.00466,167.16633v-9.12014h-3.57069v-1.29438h8.61429v1.29438h-3.57069v9.12014zM267.22444,167.28535c-0.79349,0 -1.53242,-0.1339 -2.2168,-0.4017c-0.67446,-0.2678 -1.25966,-0.63975 -1.75559,-1.11584c-0.49593,-0.48601 -0.88275,-1.05137 -1.16047,-1.69608c-0.27772,-0.64471 -0.41658,-1.34893 -0.41658,-2.11266c0,-0.76373 0.13886,-1.46795 0.41658,-2.11266c0.27772,-0.64471 0.66455,-1.20511 1.16047,-1.6812c0.49593,-0.48601 1.08113,-0.86292 1.75559,-1.13072c0.67446,-0.2678 1.4134,-0.4017 2.2168,-0.4017c0.79349,0 1.5225,0.1339 2.18705,0.4017c0.67446,0.25788 1.25966,0.62983 1.75559,1.11584c0.50585,0.47609 0.89267,1.03649 1.16047,1.6812c0.27772,0.64471 0.41658,1.35389 0.41658,2.12754c0,0.77365 -0.13886,1.48283 -0.41658,2.12754c-0.2678,0.64471 -0.65463,1.21007 -1.16047,1.69608c-0.49593,0.47609 -1.08113,0.84804 -1.75559,1.11584c-0.66455,0.25788 -1.39356,0.38682 -2.18705,0.38682zM267.22444,165.96122c0.57528,0 1.10592,-0.09919 1.59193,-0.29756c0.49593,-0.19837 0.92243,-0.47609 1.2795,-0.83316c0.36699,-0.36699 0.64967,-0.79349 0.84804,-1.2795c0.20829,-0.48601 0.31244,-1.01665 0.31244,-1.59193c0,-0.57528 -0.10415,-1.10592 -0.31244,-1.59193c-0.19837,-0.48601 -0.48105,-0.90755 -0.84804,-1.26462c-0.35707,-0.36699 -0.78357,-0.64967 -1.2795,-0.84804c-0.48601,-0.19837 -1.01665,-0.29756 -1.59193,-0.29756c-0.5852,0 -1.12576,0.09919 -1.62169,0.29756c-0.48601,0.19837 -0.91251,0.48105 -1.2795,0.84804c-0.36699,0.35707 -0.65463,0.77861 -0.86292,1.26462c-0.19837,0.48601 -0.29756,1.01665 -0.29756,1.59193c0,0.57528 0.09919,1.10592 0.29756,1.59193c0.20829,0.48601 0.49593,0.91251 0.86292,1.2795c0.36699,0.35707 0.79349,0.63479 1.2795,0.83316c0.49593,0.19837 1.03649,0.29756 1.62169,0.29756zM283.3285,167.28535c-1.36876,0 -2.44493,-0.39178 -3.2285,-1.17535c-0.78357,-0.78357 -1.17535,-1.92916 -1.17535,-3.43679v-5.92139h1.48779v5.86188c0,1.16047 0.25292,2.00851 0.75877,2.54412c0.51577,0.5356 1.23982,0.80341 2.17217,0.80341c0.94227,0 1.66632,-0.2678 2.17217,-0.80341c0.51577,-0.5356 0.77365,-1.38364 0.77365,-2.54412v-5.86188h1.44315v5.92139c0,1.50762 -0.39178,2.65322 -1.17535,3.43679c-0.77365,0.78357 -1.84982,1.17535 -3.2285,1.17535zM290.78231,167.16633v-10.41451h1.21999l6.88846,8.55478h-0.63975v-8.55478h1.48779v10.41451h-1.21999l-6.88846,-8.55478h0.63975v8.55478zM302.85633,167.16633v-10.41451h1.48779v9.12014h5.63872v1.29438zM316.20241,167.28535c-0.79349,0 -1.53242,-0.1339 -2.2168,-0.4017c-0.67446,-0.2678 -1.25966,-0.63975 -1.75559,-1.11584c-0.49593,-0.48601 -0.88275,-1.05137 -1.16047,-1.69608c-0.27772,-0.64471 -0.41658,-1.34893 -0.41658,-2.11266c0,-0.76373 0.13886,-1.46795 0.41658,-2.11266c0.27772,-0.64471 0.66455,-1.20511 1.16047,-1.6812c0.49593,-0.48601 1.08113,-0.86292 1.75559,-1.13072c0.67446,-0.2678 1.4134,-0.4017 2.2168,-0.4017c0.79349,0 1.5225,0.1339 2.18705,0.4017c0.67446,0.25788 1.25966,0.62983 1.75559,1.11584c0.50585,0.47609 0.89267,1.03649 1.16047,1.6812c0.27772,0.64471 0.41658,1.35389 0.41658,2.12754c0,0.77365 -0.13886,1.48283 -0.41658,2.12754c-0.2678,0.64471 -0.65463,1.21007 -1.16047,1.69608c-0.49593,0.47609 -1.08113,0.84804 -1.75559,1.11584c-0.66455,0.25788 -1.39356,0.38682 -2.18705,0.38682zM316.20241,165.96122c0.57528,0 1.10592,-0.09919 1.59193,-0.29756c0.49593,-0.19837 0.92243,-0.47609 1.2795,-0.83316c0.36699,-0.36699 0.64967,-0.79349 0.84804,-1.2795c0.20829,-0.48601 0.31244,-1.01665 0.31244,-1.59193c0,-0.57528 -0.10415,-1.10592 -0.31244,-1.59193c-0.19837,-0.48601 -0.48105,-0.90755 -0.84804,-1.26462c-0.35707,-0.36699 -0.78357,-0.64967 -1.2795,-0.84804c-0.48601,-0.19837 -1.01665,-0.29756 -1.59193,-0.29756c-0.5852,0 -1.12576,0.09919 -1.62169,0.29756c-0.48601,0.19837 -0.91251,0.48105 -1.2795,0.84804c-0.36699,0.35707 -0.65463,0.77861 -0.86292,1.26462c-0.19837,0.48601 -0.29756,1.01665 -0.29756,1.59193c0,0.57528 0.09919,1.10592 0.29756,1.59193c0.20829,0.48601 0.49593,0.91251 0.86292,1.2795c0.36699,0.35707 0.79349,0.63479 1.2795,0.83316c0.49593,0.19837 1.03649,0.29756 1.62169,0.29756zM328.65271,167.28535c-0.79349,0 -1.52746,-0.12894 -2.20193,-0.38682c-0.66455,-0.2678 -1.24478,-0.63975 -1.74071,-1.11584c-0.48601,-0.48601 -0.86788,-1.05137 -1.1456,-1.69608c-0.27772,-0.64471 -0.41658,-1.35389 -0.41658,-2.12754c0,-0.77365 0.13886,-1.48283 0.41658,-2.12754c0.27772,-0.64471 0.66455,-1.20511 1.16047,-1.6812c0.49593,-0.48601 1.07617,-0.85796 1.74071,-1.11584c0.67446,-0.2678 1.40844,-0.4017 2.20193,-0.4017c0.80341,0 1.54234,0.13886 2.2168,0.41658c0.68438,0.2678 1.26462,0.6695 1.74071,1.20511l-0.96706,0.93731c-0.39674,-0.41658 -0.84308,-0.72406 -1.33901,-0.92243c-0.49593,-0.20829 -1.02657,-0.31244 -1.59193,-0.31244c-0.5852,0 -1.13072,0.09919 -1.63657,0.29756c-0.49593,0.19837 -0.92739,0.47609 -1.29438,0.83316c-0.36699,0.35707 -0.65463,0.78357 -0.86292,1.2795c-0.19837,0.48601 -0.29756,1.01665 -0.29756,1.59193c0,0.57528 0.09919,1.11088 0.29756,1.60681c0.20829,0.48601 0.49593,0.90755 0.86292,1.26462c0.36699,0.35707 0.79845,0.63479 1.29438,0.83316c0.50585,0.19837 1.05137,0.29756 1.63657,0.29756c0.56536,0 1.096,-0.09919 1.59193,-0.29756c0.49593,-0.20829 0.94227,-0.52568 1.33901,-0.95218l0.96706,0.93731c-0.47609,0.5356 -1.05633,0.94227 -1.74071,1.21999c-0.67446,0.27772 -1.41836,0.41658 -2.23168,0.41658zM336.05693,164.65197l-0.07439,-1.8151l5.90652,-6.08505h1.69608l-4.56751,4.82043l-0.83316,0.92243zM334.74768,167.16633v-10.41451h1.48779v10.41451zM342.12711,167.16633l-4.26995,-4.96921l0.99682,-1.10096l5.01384,6.07017zM351.50451,167.16633v-9.12014h-3.57069v-1.29438h8.61429v1.29438h-3.57069v9.12014zM365.63725,156.75182h1.48779v10.41451h-1.48779zM359.65634,167.16633h-1.48779v-10.41451h1.48779zM365.77115,162.52443h-6.26359v-1.29438h6.26359zM371.59646,161.24493h5.35604v1.26462h-5.35604zM371.73036,165.87195h6.07017v1.29438h-7.55796v-10.41451h7.34967v1.29438h-5.86188zM384.20484,167.16633v-10.41451h4.38897c1.11088,0 2.08786,0.21821 2.93094,0.65463c0.853,0.43642 1.51258,1.04641 1.97876,1.82998c0.47609,0.78357 0.71414,1.69112 0.71414,2.72265c0,1.03153 -0.23805,1.93908 -0.71414,2.72265c-0.46617,0.78357 -1.12576,1.39356 -1.97876,1.82998c-0.84308,0.43642 -1.82006,0.65463 -2.93094,0.65463zM385.69263,165.87195h2.81192c0.86292,0 1.60681,-0.16366 2.23168,-0.49097c0.63479,-0.32731 1.12576,-0.78357 1.47291,-1.36876c0.34715,-0.59512 0.52073,-1.2795 0.52073,-2.05315c0,-0.78357 -0.17358,-1.46795 -0.52073,-2.05315c-0.34715,-0.5852 -0.83812,-1.04145 -1.47291,-1.36876c-0.62487,-0.32731 -1.36876,-0.49097 -2.23168,-0.49097h-2.81192zM401.19786,167.28535c-0.79349,0 -1.53242,-0.1339 -2.2168,-0.4017c-0.67446,-0.2678 -1.25966,-0.63975 -1.75559,-1.11584c-0.49593,-0.48601 -0.88275,-1.05137 -1.16047,-1.69608c-0.27772,-0.64471 -0.41658,-1.34893 -0.41658,-2.11266c0,-0.76373 0.13886,-1.46795 0.41658,-2.11266c0.27772,-0.64471 0.66455,-1.20511 1.16047,-1.6812c0.49593,-0.48601 1.08113,-0.86292 1.75559,-1.13072c0.67446,-0.2678 1.4134,-0.4017 2.2168,-0.4017c0.79349,0 1.5225,0.1339 2.18705,0.4017c0.67446,0.25788 1.25966,0.62983 1.75559,1.11584c0.50585,0.47609 0.89267,1.03649 1.16047,1.6812c0.27772,0.64471 0.41658,1.35389 0.41658,2.12754c0,0.77365 -0.13886,1.48283 -0.41658,2.12754c-0.2678,0.64471 -0.65463,1.21007 -1.16047,1.69608c-0.49593,0.47609 -1.08113,0.84804 -1.75559,1.11584c-0.66455,0.25788 -1.39356,0.38682 -2.18705,0.38682zM401.19786,165.96122c0.57528,0 1.10592,-0.09919 1.59193,-0.29756c0.49593,-0.19837 0.92243,-0.47609 1.2795,-0.83316c0.36699,-0.36699 0.64967,-0.79349 0.84804,-1.2795c0.20829,-0.48601 0.31244,-1.01665 0.31244,-1.59193c0,-0.57528 -0.10415,-1.10592 -0.31244,-1.59193c-0.19837,-0.48601 -0.48105,-0.90755 -0.84804,-1.26462c-0.35707,-0.36699 -0.78357,-0.64967 -1.2795,-0.84804c-0.48601,-0.19837 -1.01665,-0.29756 -1.59193,-0.29756c-0.5852,0 -1.12576,0.09919 -1.62169,0.29756c-0.48601,0.19837 -0.91251,0.48105 -1.2795,0.84804c-0.36699,0.35707 -0.65463,0.77861 -0.86292,1.26462c-0.19837,0.48601 -0.29756,1.01665 -0.29756,1.59193c0,0.57528 0.09919,1.10592 0.29756,1.59193c0.20829,0.48601 0.49593,0.91251 0.86292,1.2795c0.36699,0.35707 0.79349,0.63479 1.2795,0.83316c0.49593,0.19837 1.03649,0.29756 1.62169,0.29756zM413.69341,167.28535c-0.79349,0 -1.53242,-0.1339 -2.2168,-0.4017c-0.67446,-0.2678 -1.25966,-0.63975 -1.75559,-1.11584c-0.49593,-0.48601 -0.88275,-1.05137 -1.16047,-1.69608c-0.27772,-0.64471 -0.41658,-1.34893 -0.41658,-2.11266c0,-0.76373 0.13886,-1.46795 0.41658,-2.11266c0.27772,-0.64471 0.66455,-1.20511 1.16047,-1.6812c0.49593,-0.48601 1.08113,-0.86292 1.75559,-1.13072c0.67446,-0.2678 1.4134,-0.4017 2.2168,-0.4017c0.79349,0 1.5225,0.1339 2.18705,0.4017c0.67446,0.25788 1.25966,0.62983 1.75559,1.11584c0.50585,0.47609 0.89267,1.03649 1.16047,1.6812c0.27772,0.64471 0.41658,1.35389 0.41658,2.12754c0,0.77365 -0.13886,1.48283 -0.41658,2.12754c-0.2678,0.64471 -0.65463,1.21007 -1.16047,1.69608c-0.49593,0.47609 -1.08113,0.84804 -1.75559,1.11584c-0.66455,0.25788 -1.39356,0.38682 -2.18705,0.38682zM413.69341,165.96122c0.57528,0 1.10592,-0.09919 1.59193,-0.29756c0.49593,-0.19837 0.92243,-0.47609 1.2795,-0.83316c0.36699,-0.36699 0.64967,-0.79349 0.84804,-1.2795c0.20829,-0.48601 0.31244,-1.01665 0.31244,-1.59193c0,-0.57528 -0.10415,-1.10592 -0.31244,-1.59193c-0.19837,-0.48601 -0.48105,-0.90755 -0.84804,-1.26462c-0.35707,-0.36699 -0.78357,-0.64967 -1.2795,-0.84804c-0.48601,-0.19837 -1.01665,-0.29756 -1.59193,-0.29756c-0.5852,0 -1.12576,0.09919 -1.62169,0.29756c-0.48601,0.19837 -0.91251,0.48105 -1.2795,0.84804c-0.36699,0.35707 -0.65463,0.77861 -0.86292,1.26462c-0.19837,0.48601 -0.29756,1.01665 -0.29756,1.59193c0,0.57528 0.09919,1.10592 0.29756,1.59193c0.20829,0.48601 0.49593,0.91251 0.86292,1.2795c0.36699,0.35707 0.79349,0.63479 1.2795,0.83316c0.49593,0.19837 1.03649,0.29756 1.62169,0.29756zM421.48694,167.16633v-10.41451h4.06166c0.91251,0 1.69112,0.14382 2.33583,0.43146c0.64471,0.28764 1.14064,0.70422 1.48779,1.24974c0.34715,0.54552 0.52073,1.19519 0.52073,1.949c0,0.75381 -0.17358,1.40348 -0.52073,1.949c-0.34715,0.5356 -0.84308,0.94722 -1.48779,1.23486c-0.64471,0.28764 -1.42332,0.43146 -2.33583,0.43146h-3.24338l0.6695,-0.68438v3.85337zM428.44979,167.16633l-2.64826,-3.77898h1.59193l2.67802,3.77898zM422.97473,163.46174l-0.6695,-0.72902h3.19874c0.95218,0 1.67128,-0.20333 2.15729,-0.60999c0.49593,-0.41658 0.74389,-0.99682 0.74389,-1.74071c0,-0.74389 -0.24796,-1.31917 -0.74389,-1.72583c-0.48601,-0.40666 -1.20511,-0.60999 -2.15729,-0.60999h-3.19874l0.6695,-0.74389zM48.30863,218.3611c-0.23805,0 -0.46121,-0.05455 -0.6695,-0.16366c-0.20829,-0.11902 -0.37691,-0.28268 -0.50585,-0.49097c-0.11902,-0.20829 -0.17853,-0.44634 -0.17853,-0.71414c0,-0.25788 0.05951,-0.48601 0.17853,-0.68438c0.12894,-0.20829 0.29756,-0.37195 0.50585,-0.49097c0.20829,-0.11902 0.43146,-0.17853 0.6695,-0.17853c0.24796,0 0.47113,0.05951 0.6695,0.17853c0.20829,0.11902 0.37195,0.28268 0.49097,0.49097c0.11902,0.19837 0.17853,0.4265 0.17853,0.68438c0,0.2678 -0.05951,0.50585 -0.17853,0.71414c-0.11902,0.20829 -0.28268,0.37195 -0.49097,0.49097c-0.19837,0.1091 -0.42154,0.16366 -0.6695,0.16366zM65.34715,221.21766c-1.36876,0 -2.44493,-0.39178 -3.2285,-1.17535c-0.78357,-0.78357 -1.17535,-1.92916 -1.17535,-3.43679v-5.92139h1.48779v5.86188c0,1.16047 0.25292,2.00851 0.75877,2.54412c0.51577,0.5356 1.23982,0.80341 2.17217,0.80341c0.94227,0 1.66632,-0.2678 2.17217,-0.80341c0.51577,-0.5356 0.77365,-1.38364 0.77365,-2.54412v-5.86188h1.44315v5.92139c0,1.50762 -0.39178,2.65322 -1.17535,3.43679c-0.77365,0.78357 -1.84982,1.17535 -3.2285,1.17535zM75.8363,221.21766c-0.79349,0 -1.55226,-0.11902 -2.27632,-0.35707c-0.72406,-0.24796 -1.29438,-0.56536 -1.71096,-0.95218l0.55048,-1.16047c0.39674,0.34715 0.90259,0.63479 1.51754,0.86292c0.61495,0.22813 1.2547,0.34219 1.91925,0.34219c0.60503,0 1.096,-0.06943 1.47291,-0.20829c0.37691,-0.13886 0.65463,-0.32731 0.83316,-0.56536c0.17853,-0.24796 0.2678,-0.52568 0.2678,-0.83316c0,-0.35707 -0.11902,-0.64471 -0.35707,-0.86292c-0.22813,-0.21821 -0.53064,-0.39178 -0.90755,-0.52073c-0.36699,-0.13886 -0.77365,-0.25788 -1.21999,-0.35707c-0.44634,-0.09919 -0.89763,-0.21325 -1.35389,-0.34219c-0.44634,-0.13886 -0.85796,-0.31244 -1.23486,-0.52073c-0.36699,-0.20829 -0.66455,-0.48601 -0.89267,-0.83316c-0.22813,-0.35707 -0.34219,-0.81332 -0.34219,-1.36876c0,-0.5356 0.13886,-1.02657 0.41658,-1.47291c0.28764,-0.45625 0.72406,-0.81828 1.30925,-1.08608c0.59512,-0.27772 1.34893,-0.41658 2.26144,-0.41658c0.60503,0 1.20511,0.07935 1.80022,0.23805c0.59512,0.1587 1.11088,0.38682 1.5473,0.68438l-0.49097,1.19023c-0.44634,-0.29756 -0.91747,-0.51081 -1.4134,-0.63975c-0.49593,-0.13886 -0.97698,-0.20829 -1.44315,-0.20829c-0.5852,0 -1.06625,0.07439 -1.44315,0.22317c-0.37691,0.14878 -0.65463,0.34715 -0.83316,0.59512c-0.16862,0.24796 -0.25292,0.52568 -0.25292,0.83316c0,0.36699 0.11406,0.65959 0.34219,0.87779c0.23805,0.21821 0.54056,0.39178 0.90755,0.52073c0.37691,0.12894 0.78853,0.24796 1.23486,0.35707c0.44634,0.09919 0.89267,0.21325 1.33901,0.34219c0.45625,0.12894 0.86788,0.29756 1.23486,0.50585c0.37691,0.20829 0.67942,0.48601 0.90755,0.83316c0.22813,0.34715 0.34219,0.79349 0.34219,1.33901c0,0.52568 -0.14382,1.01665 -0.43146,1.47291c-0.28764,0.44634 -0.73398,0.80836 -1.33901,1.08608c-0.59512,0.2678 -1.34893,0.4017 -2.26144,0.4017zM83.39562,215.17724h5.35604v1.26462h-5.35604zM83.52952,219.80426h6.07017v1.29438h-7.55796v-10.41451h7.34967v1.29438h-5.86188zM97.03089,210.05925l-0.74389,3.02021l-0.17853,-0.86292c0.28764,0 0.52568,0.08927 0.71414,0.2678c0.18845,0.17853 0.28268,0.41658 0.28268,0.71414c0,0.29756 -0.09423,0.54056 -0.28268,0.72902c-0.18845,0.18845 -0.42154,0.28268 -0.69926,0.28268c-0.28764,0 -0.52568,-0.09423 -0.71414,-0.28268c-0.18845,-0.19837 -0.28268,-0.44138 -0.28268,-0.72902c0,-0.09919 0.00496,-0.19341 0.01488,-0.28268c0.01984,-0.08927 0.04959,-0.19341 0.08927,-0.31244c0.03967,-0.12894 0.09423,-0.28268 0.16366,-0.46121l0.69926,-2.0829zM98.45265,221.09863v-1.0117l7.00773,-8.68868l0.16366,0.58024h-7.06724v-1.29438h8.40625v1.0117l-6.97772,8.68868l-0.17853,-0.58024h7.34967v1.29438zM108.37955,214.12091l0.74389,-3.02021l0.19341,0.86292c-0.28764,0 -0.53064,-0.08927 -0.72902,-0.2678c-0.18845,-0.17853 -0.28268,-0.41658 -0.28268,-0.71414c0,-0.30748 0.09423,-0.55048 0.28268,-0.72902c0.19837,-0.18845 0.43642,-0.28268 0.71414,-0.28268c0.28764,0 0.52073,0.09919 0.69926,0.29756c0.17853,0.18845 0.2678,0.4265 0.2678,0.71414c0,0.08927 -0.00496,0.18349 -0.01488,0.28268c-0.00992,0.08927 -0.03472,0.19341 -0.07439,0.31244c-0.02976,0.11902 -0.07935,0.27276 -0.14878,0.46121l-0.71414,2.0829zM118.58763,221.09863v-9.12014h-3.57069v-1.29438h8.61429v1.29438h-3.57069v9.12014zM129.80741,221.21766c-0.79349,0 -1.53242,-0.1339 -2.2168,-0.4017c-0.67446,-0.2678 -1.25966,-0.63975 -1.75559,-1.11584c-0.49593,-0.48601 -0.88275,-1.05137 -1.16047,-1.69608c-0.27772,-0.64471 -0.41658,-1.34893 -0.41658,-2.11266c0,-0.76373 0.13886,-1.46795 0.41658,-2.11266c0.27772,-0.64471 0.66455,-1.20511 1.16047,-1.6812c0.49593,-0.48601 1.08113,-0.86292 1.75559,-1.13072c0.67446,-0.2678 1.4134,-0.4017 2.2168,-0.4017c0.79349,0 1.5225,0.1339 2.18705,0.4017c0.67446,0.25788 1.25966,0.62983 1.75559,1.11584c0.50585,0.47609 0.89267,1.03649 1.16047,1.6812c0.27772,0.64471 0.41658,1.35389 0.41658,2.12754c0,0.77365 -0.13886,1.48283 -0.41658,2.12754c-0.2678,0.64471 -0.65463,1.21007 -1.16047,1.69608c-0.49593,0.47609 -1.08113,0.84804 -1.75559,1.11584c-0.66455,0.25788 -1.39356,0.38682 -2.18705,0.38682zM129.80741,219.89352c0.57528,0 1.10592,-0.09919 1.59193,-0.29756c0.49593,-0.19837 0.92243,-0.47609 1.2795,-0.83316c0.36699,-0.36699 0.64967,-0.79349 0.84804,-1.2795c0.20829,-0.48601 0.31244,-1.01665 0.31244,-1.59193c0,-0.57528 -0.10415,-1.10592 -0.31244,-1.59193c-0.19837,-0.48601 -0.48105,-0.90755 -0.84804,-1.26462c-0.35707,-0.36699 -0.78357,-0.64967 -1.2795,-0.84804c-0.48601,-0.19837 -1.01665,-0.29756 -1.59193,-0.29756c-0.5852,0 -1.12576,0.09919 -1.62169,0.29756c-0.48601,0.19837 -0.91251,0.48105 -1.2795,0.84804c-0.36699,0.35707 -0.65463,0.77861 -0.86292,1.26462c-0.19837,0.48601 -0.29756,1.01665 -0.29756,1.59193c0,0.57528 0.09919,1.10592 0.29756,1.59193c0.20829,0.48601 0.49593,0.91251 0.86292,1.2795c0.36699,0.35707 0.79349,0.63479 1.2795,0.83316c0.49593,0.19837 1.03649,0.29756 1.62169,0.29756zM143.66491,221.09863v-9.12014h-3.57069v-1.29438h8.61429v1.29438h-3.57069v9.12014zM154.45447,221.21766c-1.36876,0 -2.44493,-0.39178 -3.2285,-1.17535c-0.78357,-0.78357 -1.17535,-1.92916 -1.17535,-3.43679v-5.92139h1.48779v5.86188c0,1.16047 0.25292,2.00851 0.75877,2.54412c0.51577,0.5356 1.23982,0.80341 2.17217,0.80341c0.94227,0 1.66632,-0.2678 2.17217,-0.80341c0.51577,-0.5356 0.77365,-1.38364 0.77365,-2.54412v-5.86188h1.44315v5.92139c0,1.50762 -0.39178,2.65322 -1.17535,3.43679c-0.77365,0.78357 -1.84982,1.17535 -3.2285,1.17535zM161.90891,221.09863v-10.41451h4.06166c0.91251,0 1.69112,0.14382 2.33583,0.43146c0.64471,0.28764 1.14064,0.70422 1.48779,1.24974c0.34715,0.54552 0.52073,1.19519 0.52073,1.949c0,0.75381 -0.17358,1.40348 -0.52073,1.949c-0.34715,0.5356 -0.84308,0.94722 -1.48779,1.23486c-0.64471,0.28764 -1.42332,0.43146 -2.33583,0.43146h-3.24338l0.6695,-0.68438v3.85337zM168.87175,221.09863l-2.64826,-3.77898h1.59193l2.67802,3.77898zM163.39669,217.39404l-0.6695,-0.72902h3.19874c0.95218,0 1.67128,-0.20333 2.15729,-0.60999c0.49593,-0.41658 0.74389,-0.99682 0.74389,-1.74071c0,-0.74389 -0.24796,-1.31917 -0.74389,-1.72583c-0.48601,-0.40666 -1.20511,-0.60999 -2.15729,-0.60999h-3.19874l0.6695,-0.74389zM172.7183,221.09863v-10.41451h1.21999l6.88846,8.55478h-0.63975v-8.55478h1.48779v10.41451h-1.21999l-6.88846,-8.55478h0.63975v8.55478zM188.78765,221.09863v-10.41451h4.06166c0.91251,0 1.69112,0.14382 2.33583,0.43146c0.64471,0.28764 1.14064,0.70422 1.48779,1.24974c0.34715,0.54552 0.52073,1.19519 0.52073,1.949c0,0.75381 -0.17358,1.40348 -0.52073,1.949c-0.34715,0.5356 -0.84308,0.95218 -1.48779,1.24974c-0.64471,0.28764 -1.42332,0.43146 -2.33583,0.43146h-3.24338l0.6695,-0.69926v3.85337zM190.27544,217.39404l-0.6695,-0.74389h3.19874c0.95218,0 1.67128,-0.20333 2.15729,-0.60999c0.49593,-0.40666 0.74389,-0.98194 0.74389,-1.72583c0,-0.74389 -0.24796,-1.31917 -0.74389,-1.72583c-0.48601,-0.40666 -1.20511,-0.60999 -2.15729,-0.60999h-3.19874l0.6695,-0.74389zM199.37946,221.09863v-10.41451h1.48779v9.12014h5.63872v1.29438zM206.63614,221.09863l4.71629,-10.41451h1.47291l4.73116,10.41451h-1.56218l-4.21044,-9.58135h0.59512l-4.21044,9.58135zM208.64466,218.495l0.4017,-1.19023h5.86188l0.43146,1.19023zM220.65482,221.09863v-9.12014h-3.57069v-1.29438h8.61429v1.29438h-3.57069v9.12014zM228.65788,215.6087h5.37091v1.2795h-5.37091zM228.80666,221.09863h-1.48779v-10.41451h7.34967v1.29438h-5.86188zM241.34809,221.21766c-0.79349,0 -1.53242,-0.1339 -2.2168,-0.4017c-0.67446,-0.2678 -1.25966,-0.63975 -1.75559,-1.11584c-0.49593,-0.48601 -0.88275,-1.05137 -1.16047,-1.69608c-0.27772,-0.64471 -0.41658,-1.34893 -0.41658,-2.11266c0,-0.76373 0.13886,-1.46795 0.41658,-2.11266c0.27772,-0.64471 0.66455,-1.20511 1.16047,-1.6812c0.49593,-0.48601 1.08113,-0.86292 1.75559,-1.13072c0.67446,-0.2678 1.4134,-0.4017 2.2168,-0.4017c0.79349,0 1.5225,0.1339 2.18705,0.4017c0.67446,0.25788 1.25966,0.62983 1.75559,1.11584c0.50585,0.47609 0.89267,1.03649 1.16047,1.6812c0.27772,0.64471 0.41658,1.35389 0.41658,2.12754c0,0.77365 -0.13886,1.48283 -0.41658,2.12754c-0.2678,0.64471 -0.65463,1.21007 -1.16047,1.69608c-0.49593,0.47609 -1.08113,0.84804 -1.75559,1.11584c-0.66455,0.25788 -1.39356,0.38682 -2.18705,0.38682zM241.34809,219.89352c0.57528,0 1.10592,-0.09919 1.59193,-0.29756c0.49593,-0.19837 0.92243,-0.47609 1.2795,-0.83316c0.36699,-0.36699 0.64967,-0.79349 0.84804,-1.2795c0.20829,-0.48601 0.31244,-1.01665 0.31244,-1.59193c0,-0.57528 -0.10415,-1.10592 -0.31244,-1.59193c-0.19837,-0.48601 -0.48105,-0.90755 -0.84804,-1.26462c-0.35707,-0.36699 -0.78357,-0.64967 -1.2795,-0.84804c-0.48601,-0.19837 -1.01665,-0.29756 -1.59193,-0.29756c-0.5852,0 -1.12576,0.09919 -1.62169,0.29756c-0.48601,0.19837 -0.91251,0.48105 -1.2795,0.84804c-0.36699,0.35707 -0.65463,0.77861 -0.86292,1.26462c-0.19837,0.48601 -0.29756,1.01665 -0.29756,1.59193c0,0.57528 0.09919,1.10592 0.29756,1.59193c0.20829,0.48601 0.49593,0.91251 0.86292,1.2795c0.36699,0.35707 0.79349,0.63479 1.2795,0.83316c0.49593,0.19837 1.03649,0.29756 1.62169,0.29756zM249.14162,221.09863v-10.41451h4.06166c0.91251,0 1.69112,0.14382 2.33583,0.43146c0.64471,0.28764 1.14064,0.70422 1.48779,1.24974c0.34715,0.54552 0.52073,1.19519 0.52073,1.949c0,0.75381 -0.17358,1.40348 -0.52073,1.949c-0.34715,0.5356 -0.84308,0.94722 -1.48779,1.23486c-0.64471,0.28764 -1.42332,0.43146 -2.33583,0.43146h-3.24338l0.6695,-0.68438v3.85337zM256.10446,221.09863l-2.64826,-3.77898h1.59193l2.67802,3.77898zM250.6294,217.39404l-0.6695,-0.72902h3.19874c0.95218,0 1.67128,-0.20333 2.15729,-0.60999c0.49593,-0.41658 0.74389,-0.99682 0.74389,-1.74071c0,-0.74389 -0.24796,-1.31917 -0.74389,-1.72583c-0.48601,-0.40666 -1.20511,-0.60999 -2.15729,-0.60999h-3.19874l0.6695,-0.74389zM259.95163,221.09863v-10.41451h1.21999l4.67165,7.8704h-0.65463l4.61214,-7.8704h1.21999l0.01488,10.41451h-1.42828l-0.01488,-8.16795h0.34219l-4.10629,6.90333h-0.68438l-4.13605,-6.90333h0.37195v8.16795zM277.19633,221.21766c-0.79349,0 -1.55226,-0.11902 -2.27632,-0.35707c-0.72406,-0.24796 -1.29438,-0.56536 -1.71096,-0.95218l0.55048,-1.16047c0.39674,0.34715 0.90259,0.63479 1.51754,0.86292c0.61495,0.22813 1.2547,0.34219 1.91925,0.34219c0.60503,0 1.096,-0.06943 1.47291,-0.20829c0.37691,-0.13886 0.65463,-0.32731 0.83316,-0.56536c0.17853,-0.24796 0.2678,-0.52568 0.2678,-0.83316c0,-0.35707 -0.11902,-0.64471 -0.35707,-0.86292c-0.22813,-0.21821 -0.53064,-0.39178 -0.90755,-0.52073c-0.36699,-0.13886 -0.77365,-0.25788 -1.21999,-0.35707c-0.44634,-0.09919 -0.89763,-0.21325 -1.35389,-0.34219c-0.44634,-0.13886 -0.85796,-0.31244 -1.23486,-0.52073c-0.36699,-0.20829 -0.66455,-0.48601 -0.89267,-0.83316c-0.22813,-0.35707 -0.34219,-0.81332 -0.34219,-1.36876c0,-0.5356 0.13886,-1.02657 0.41658,-1.47291c0.28764,-0.45625 0.72406,-0.81828 1.30925,-1.08608c0.59512,-0.27772 1.34893,-0.41658 2.26144,-0.41658c0.60503,0 1.20511,0.07935 1.80022,0.23805c0.59512,0.1587 1.11088,0.38682 1.5473,0.68438l-0.49097,1.19023c-0.44634,-0.29756 -0.91747,-0.51081 -1.4134,-0.63975c-0.49593,-0.13886 -0.97698,-0.20829 -1.44315,-0.20829c-0.5852,0 -1.06625,0.07439 -1.44315,0.22317c-0.37691,0.14878 -0.65463,0.34715 -0.83316,0.59512c-0.16862,0.24796 -0.25292,0.52568 -0.25292,0.83316c0,0.36699 0.11406,0.65959 0.34219,0.87779c0.23805,0.21821 0.54056,0.39178 0.90755,0.52073c0.37691,0.12894 0.78853,0.24796 1.23486,0.35707c0.44634,0.09919 0.89267,0.21325 1.33901,0.34219c0.45625,0.12894 0.86788,0.29756 1.23486,0.50585c0.37691,0.20829 0.67942,0.48601 0.90755,0.83316c0.22813,0.34715 0.34219,0.79349 0.34219,1.33901c0,0.52568 -0.14382,1.01665 -0.43146,1.47291c-0.28764,0.44634 -0.73398,0.80836 -1.33901,1.08608c-0.59512,0.2678 -1.34893,0.4017 -2.26144,0.4017zM48.30863,272.29341c-0.23805,0 -0.46121,-0.05455 -0.6695,-0.16366c-0.20829,-0.11902 -0.37691,-0.28268 -0.50585,-0.49097c-0.11902,-0.20829 -0.17853,-0.44634 -0.17853,-0.71414c0,-0.25788 0.05951,-0.48601 0.17853,-0.68438c0.12894,-0.20829 0.29756,-0.37195 0.50585,-0.49097c0.20829,-0.11902 0.43146,-0.17853 0.6695,-0.17853c0.24796,0 0.47113,0.05951 0.6695,0.17853c0.20829,0.11902 0.37195,0.28268 0.49097,0.49097c0.11902,0.19837 0.17853,0.4265 0.17853,0.68438c0,0.2678 -0.05951,0.50585 -0.17853,0.71414c-0.11902,0.20829 -0.28268,0.37195 -0.49097,0.49097c-0.19837,0.1091 -0.42154,0.16366 -0.6695,0.16366zM65.68934,275.14996c-0.79349,0 -1.52746,-0.12894 -2.20193,-0.38682c-0.66455,-0.2678 -1.24478,-0.63975 -1.74071,-1.11584c-0.48601,-0.48601 -0.86788,-1.05137 -1.1456,-1.69608c-0.27772,-0.64471 -0.41658,-1.35389 -0.41658,-2.12754c0,-0.77365 0.13886,-1.48283 0.41658,-2.12754c0.27772,-0.64471 0.66455,-1.20511 1.16047,-1.6812c0.49593,-0.48601 1.07617,-0.85796 1.74071,-1.11584c0.67446,-0.2678 1.40844,-0.4017 2.20193,-0.4017c0.80341,0 1.54234,0.13886 2.2168,0.41658c0.68438,0.2678 1.26462,0.6695 1.74071,1.20511l-0.96706,0.93731c-0.39674,-0.41658 -0.84308,-0.72406 -1.33901,-0.92243c-0.49593,-0.20829 -1.02657,-0.31244 -1.59193,-0.31244c-0.5852,0 -1.13072,0.09919 -1.63657,0.29756c-0.49593,0.19837 -0.92739,0.47609 -1.29438,0.83316c-0.36699,0.35707 -0.65463,0.78357 -0.86292,1.2795c-0.19837,0.48601 -0.29756,1.01665 -0.29756,1.59193c0,0.57528 0.09919,1.11088 0.29756,1.60681c0.20829,0.48601 0.49593,0.90755 0.86292,1.26462c0.36699,0.35707 0.79845,0.63479 1.29438,0.83316c0.50585,0.19837 1.05137,0.29756 1.63657,0.29756c0.56536,0 1.096,-0.09919 1.59193,-0.29756c0.49593,-0.20829 0.94227,-0.52568 1.33901,-0.95218l0.96706,0.93731c-0.47609,0.5356 -1.05633,0.94227 -1.74071,1.21999c-0.67446,0.27772 -1.41836,0.41658 -2.23168,0.41658zM76.26763,275.14996c-0.79349,0 -1.53242,-0.1339 -2.2168,-0.4017c-0.67446,-0.2678 -1.25966,-0.63975 -1.75559,-1.11584c-0.49593,-0.48601 -0.88275,-1.05137 -1.16047,-1.69608c-0.27772,-0.64471 -0.41658,-1.34893 -0.41658,-2.11266c0,-0.76373 0.13886,-1.46795 0.41658,-2.11266c0.27772,-0.64471 0.66455,-1.20511 1.16047,-1.6812c0.49593,-0.48601 1.08113,-0.86292 1.75559,-1.13072c0.67446,-0.2678 1.4134,-0.4017 2.2168,-0.4017c0.79349,0 1.5225,0.1339 2.18705,0.4017c0.67446,0.25788 1.25966,0.62983 1.75559,1.11584c0.50585,0.47609 0.89267,1.03649 1.16047,1.6812c0.27772,0.64471 0.41658,1.35389 0.41658,2.12754c0,0.77365 -0.13886,1.48283 -0.41658,2.12754c-0.2678,0.64471 -0.65463,1.21007 -1.16047,1.69608c-0.49593,0.47609 -1.08113,0.84804 -1.75559,1.11584c-0.66455,0.25788 -1.39356,0.38682 -2.18705,0.38682zM76.26763,273.82583c0.57528,0 1.10592,-0.09919 1.59193,-0.29756c0.49593,-0.19837 0.92243,-0.47609 1.2795,-0.83316c0.36699,-0.36699 0.64967,-0.79349 0.84804,-1.2795c0.20829,-0.48601 0.31244,-1.01665 0.31244,-1.59193c0,-0.57528 -0.10415,-1.10592 -0.31244,-1.59193c-0.19837,-0.48601 -0.48105,-0.90755 -0.84804,-1.26462c-0.35707,-0.36699 -0.78357,-0.64967 -1.2795,-0.84804c-0.48601,-0.19837 -1.01665,-0.29756 -1.59193,-0.29756c-0.5852,0 -1.12576,0.09919 -1.62169,0.29756c-0.48601,0.19837 -0.91251,0.48105 -1.2795,0.84804c-0.36699,0.35707 -0.65463,0.77861 -0.86292,1.26462c-0.19837,0.48601 -0.29756,1.01665 -0.29756,1.59193c0,0.57528 0.09919,1.10592 0.29756,1.59193c0.20829,0.48601 0.49593,0.91251 0.86292,1.2795c0.36699,0.35707 0.79349,0.63479 1.2795,0.83316c0.49593,0.19837 1.03649,0.29756 1.62169,0.29756zM84.06128,275.03093v-10.41451h1.21999l4.67165,7.8704h-0.65463l4.61214,-7.8704h1.21999l0.01488,10.41451h-1.42828l-0.01488,-8.16795h0.34219l-4.10629,6.90333h-0.68438l-4.13605,-6.90333h0.37195v8.16795zM98.27083,275.03093v-10.41451h4.06147c0.91251,0 1.69112,0.14382 2.33583,0.43146c0.64471,0.28764 1.14064,0.70422 1.48779,1.24974c0.34715,0.54552 0.52073,1.19519 0.52073,1.949c0,0.75381 -0.17358,1.40348 -0.52073,1.949c-0.34715,0.5356 -0.84308,0.95218 -1.48779,1.24974c-0.64471,0.28764 -1.42332,0.43146 -2.33583,0.43146h-3.24319l0.66932,-0.69926v3.85337zM99.75844,271.32634l-0.66932,-0.74389h3.19856c0.95218,0 1.67128,-0.20333 2.15729,-0.60999c0.49593,-0.40666 0.74389,-0.98194 0.74389,-1.72583c0,-0.74389 -0.24796,-1.31917 -0.74389,-1.72583c-0.48601,-0.40666 -1.20511,-0.60999 -2.15729,-0.60999h-3.19856l0.66932,-0.74389zM108.86246,275.03093v-10.41451h1.48779v9.12014h5.63872v1.29438zM119.05008,269.10954h5.35604v1.26462h-5.35604zM119.18398,273.73656h6.07017v1.29438h-7.55796v-10.41451h7.34967v1.29438h-5.86188zM129.73116,275.03093v-9.12014h-3.57069v-1.29438h8.61429v1.29438h-3.57069v9.12014zM137.74909,269.10954h5.35604v1.26462h-5.35604zM137.883,273.73656h6.07017v1.29438h-7.55796v-10.41451h7.34967v1.29438h-5.86188zM148.78104,275.03093l4.71629,-10.41451h1.47291l4.73116,10.41451h-1.56218l-4.21044,-9.58135h0.59512l-4.21044,9.58135zM150.78955,272.42731l0.4017,-1.19023h5.86188l0.43146,1.19023zM161.2549,275.03093v-10.41451h1.48779v9.12014h5.63872v1.29438zM170.08864,275.03093v-10.41451h1.48779v9.12014h5.63872v1.29438zM182.91771,275.03093v-10.41451h1.48779v9.12014h5.63872v1.29438zM193.10533,269.10954h5.35604v1.26462h-5.35604zM193.23923,273.73656h6.07017v1.29438h-7.55796v-10.41451h7.34967v1.29438h-5.86188zM204.57866,275.03093l-4.58239,-10.41451h1.60681l4.21044,9.61111h-0.92243l4.24019,-9.61111h1.48779l-4.56751,10.41451zM213.30081,269.10954h5.35604v1.26462h-5.35604zM213.43471,273.73656h6.07017v1.29438h-7.55796v-10.41451h7.34967v1.29438h-5.86188zM221.91386,275.03093v-10.41451h1.48779v9.12014h5.63872v1.29438zM233.68102,275.14996c-0.79349,0 -1.55226,-0.11902 -2.27632,-0.35707c-0.72406,-0.24796 -1.29438,-0.56536 -1.71096,-0.95218l0.55048,-1.16047c0.39674,0.34715 0.90259,0.63479 1.51754,0.86292c0.61495,0.22813 1.2547,0.34219 1.91925,0.34219c0.60503,0 1.096,-0.06943 1.47291,-0.20829c0.37691,-0.13886 0.65463,-0.32731 0.83316,-0.56536c0.17853,-0.24796 0.2678,-0.52568 0.2678,-0.83316c0,-0.35707 -0.11902,-0.64471 -0.35707,-0.86292c-0.22813,-0.21821 -0.53064,-0.39178 -0.90755,-0.52073c-0.36699,-0.13886 -0.77365,-0.25788 -1.21999,-0.35707c-0.44634,-0.09919 -0.89763,-0.21325 -1.35389,-0.34219c-0.44634,-0.13886 -0.85796,-0.31244 -1.23486,-0.52073c-0.36699,-0.20829 -0.66455,-0.48601 -0.89267,-0.83316c-0.22813,-0.35707 -0.34219,-0.81332 -0.34219,-1.36876c0,-0.5356 0.13886,-1.02657 0.41658,-1.47291c0.28764,-0.45625 0.72406,-0.81828 1.30925,-1.08608c0.59512,-0.27772 1.34893,-0.41658 2.26144,-0.41658c0.60503,0 1.20511,0.07935 1.80022,0.23805c0.59512,0.1587 1.11088,0.38682 1.5473,0.68438l-0.49097,1.19023c-0.44634,-0.29756 -0.91747,-0.51081 -1.4134,-0.63975c-0.49593,-0.13886 -0.97698,-0.20829 -1.44315,-0.20829c-0.5852,0 -1.06625,0.07439 -1.44315,0.22317c-0.37691,0.14878 -0.65463,0.34715 -0.83316,0.59512c-0.16862,0.24796 -0.25292,0.52568 -0.25292,0.83316c0,0.36699 0.11406,0.65959 0.34219,0.87779c0.23805,0.21821 0.54056,0.39178 0.90755,0.52073c0.37691,0.12894 0.78853,0.24796 1.23486,0.35707c0.44634,0.09919 0.89267,0.21325 1.33901,0.34219c0.45625,0.12894 0.86788,0.29756 1.23486,0.50585c0.37691,0.20829 0.67942,0.48601 0.90755,0.83316c0.22813,0.34715 0.34219,0.79349 0.34219,1.33901c0,0.52568 -0.14382,1.01665 -0.43146,1.47291c-0.28764,0.44634 -0.73398,0.80836 -1.33901,1.08608c-0.59512,0.2678 -1.34893,0.4017 -2.26144,0.4017zM244.78984,275.03093v-9.8194l0.63975,0.69926h-2.99045v-1.29438h3.82361v10.41451zM248.67482,271.56439v-1.23486h4.00215v1.23486zM255.73004,275.03093v-9.8194l0.63975,0.69926h-2.99045v-1.29438h3.82361v10.41451zM262.84352,275.14996c-0.73398,0 -1.44811,-0.11406 -2.14241,-0.34219c-0.68438,-0.22813 -1.24478,-0.5356 -1.6812,-0.92243l0.68438,-1.17535c0.34715,0.32731 0.79845,0.59512 1.35389,0.80341c0.55544,0.20829 1.1456,0.31244 1.77047,0.31244c0.79349,0 1.40348,-0.16862 1.82998,-0.50585c0.4265,-0.33723 0.63975,-0.78853 0.63975,-1.35389c0,-0.38682 -0.09423,-0.72406 -0.28268,-1.0117c-0.18845,-0.28764 -0.51577,-0.50585 -0.98194,-0.65463c-0.45625,-0.1587 -1.08608,-0.23805 -1.88949,-0.23805h-2.36558l0.55048,-5.4453h5.87676v1.29438h-5.32628l0.77365,-0.72902l-0.43146,4.29971l-0.77365,-0.71414h2.00851c1.04145,0 1.87957,0.1339 2.51436,0.4017c0.63479,0.2678 1.096,0.63975 1.38364,1.11584c0.28764,0.46617 0.43146,1.00674 0.43146,1.62169c0,0.59512 -0.14382,1.14064 -0.43146,1.63657c-0.28764,0.48601 -0.72406,0.87779 -1.30925,1.17535c-0.57528,0.28764 -1.30925,0.43146 -2.20193,0.43146z" fill="#ffffff"/></g></g></svg>