<svg version="1.1" xmlns="http://www.w3.org/2000/svg" xmlns:xlink="http://www.w3.org/1999/xlink" width="216.32843" height="34.67079" viewBox="0,0,216.32843,34.67079"><g transform="translate(-131.83578,-162.66461)"><g data-paper-data="{&quot;isPaintingLayer&quot;:true}" fill="#ffffff" fill-rule="nonzero" stroke="none" stroke-width="1" stroke-linecap="butt" stroke-linejoin="miter" stroke-miterlimit="10" stroke-dasharray="" stroke-dashoffset="0" style="mix-blend-mode: normal"><path d="M146.93121,197.04322l-15.09543,-34.08645h3.89559l14.12153,32.08996h-2.14258l14.21892,-32.08996h3.65212l-15.09543,34.08645zM170.52849,197.04322v-34.08645h3.6033v34.08645zM200.02573,197.33539c-2.5646,0 -4.93442,-0.42202 -7.10946,-1.26607c-2.17504,-0.87651 -4.05791,-2.09388 -5.64861,-3.65212c-1.5907,-1.55824 -2.84054,-3.39241 -3.74951,-5.50253c-0.87651,-2.11011 -1.31476,-4.41501 -1.31476,-6.91468c0,-2.49967 0.43825,-4.80457 1.31476,-6.91468c0.90897,-2.11011 2.15881,-3.94429 3.74951,-5.50253c1.62316,-1.55824 3.52227,-2.75938 5.69731,-3.60342c2.17504,-0.87651 4.54486,-1.31476 7.10946,-1.31476c2.46721,0 4.78833,0.42202 6.96337,1.26607c2.17504,0.81158 4.00922,2.04519 5.50253,3.70081l-2.28866,2.28866c-1.39592,-1.42838 -2.93793,-2.45098 -4.62602,-3.06778c-1.68809,-0.64927 -3.50603,-0.9739 -5.45383,-0.9739c-2.04519,0 -3.94429,0.3571 -5.69731,1.07129c-1.75302,0.68173 -3.27879,1.67186 -4.57732,2.97039c-1.29853,1.26607 -2.32112,2.75938 -3.06778,4.47993c-0.71419,1.68809 -1.07129,3.55473 -1.07129,5.59992c0,2.04519 0.3571,3.92806 1.07129,5.64861c0.74666,1.68809 1.76925,3.1814 3.06778,4.47993c1.29853,1.26607 2.82431,2.2562 4.57732,2.97039c1.75302,0.68173 3.65212,1.02259 5.69731,1.02259c1.9478,0 3.76574,-0.32463 5.45383,-0.9739c1.68809,-0.64927 3.2301,-1.68809 4.62602,-3.11648l2.28866,2.28866c-1.49331,1.65563 -3.32749,2.90546 -5.50253,3.74951c-2.17504,0.84405 -4.5124,1.26607 -7.01207,1.26607zM226.41675,197.04322v-30.96997h-11.97895v-3.11648h27.56133v3.11648h-11.97895v30.96997zM262.18074,197.33539c-2.5646,0 -4.95065,-0.42202 -7.15815,-1.26607c-2.17504,-0.87651 -4.07414,-2.09388 -5.69731,-3.65212c-1.5907,-1.5907 -2.84054,-3.42488 -3.74951,-5.50253c-0.87651,-2.11011 -1.31476,-4.41501 -1.31476,-6.91468c0,-2.49967 0.43825,-4.78833 1.31476,-6.86598c0.90897,-2.11011 2.15881,-3.94429 3.74951,-5.50253c1.62316,-1.5907 3.52227,-2.80807 5.69731,-3.65212c2.17504,-0.87651 4.56109,-1.31476 7.15815,-1.31476c2.5646,0 4.93442,0.43825 7.10946,1.31476c2.17504,0.84405 4.05791,2.04519 5.64861,3.60342c1.62316,1.55824 2.873,3.39241 3.74951,5.50253c0.90897,2.11011 1.36346,4.41501 1.36346,6.91468c0,2.49967 -0.45449,4.80457 -1.36346,6.91468c-0.87651,2.11011 -2.12635,3.94429 -3.74951,5.50253c-1.5907,1.55824 -3.47357,2.77561 -5.64861,3.65212c-2.17504,0.84405 -4.54486,1.26607 -7.10946,1.26607zM262.18074,194.12153c2.04519,0 3.92806,-0.34086 5.64861,-1.02259c1.75302,-0.71419 3.26256,-1.70432 4.52863,-2.97039c1.29853,-1.29853 2.30489,-2.79184 3.01909,-4.47993c0.71419,-1.72055 1.07129,-3.60342 1.07129,-5.64861c0,-2.04519 -0.3571,-3.91183 -1.07129,-5.59992c-0.71419,-1.72055 -1.72055,-3.21387 -3.01909,-4.47993c-1.26607,-1.29853 -2.77561,-2.28866 -4.52863,-2.97039c-1.72055,-0.71419 -3.60342,-1.07129 -5.64861,-1.07129c-2.04519,0 -3.94429,0.3571 -5.69731,1.07129c-1.75302,0.68173 -3.27879,1.67186 -4.57732,2.97039c-1.26607,1.26607 -2.27243,2.75938 -3.01909,4.47993c-0.71419,1.68809 -1.07129,3.55473 -1.07129,5.59992c0,2.01272 0.3571,3.87936 1.07129,5.59992c0.74666,1.72055 1.75302,3.2301 3.01909,4.52863c1.29853,1.26607 2.82431,2.2562 4.57732,2.97039c1.75302,0.68173 3.65212,1.02259 5.69731,1.02259zM288.12865,197.04322v-34.08645h12.75807c2.88923,0 5.37267,0.47072 7.45032,1.41215c2.07765,0.90897 3.66835,2.23997 4.7721,3.99298c1.13621,1.72055 1.70432,3.81444 1.70432,6.28165c0,2.40228 -0.56811,4.47993 -1.70432,6.23295c-1.10375,1.72055 -2.69445,3.05155 -4.7721,3.99298c-2.07765,0.90897 -4.56109,1.36346 -7.45032,1.36346h-10.76158l1.60693,-1.65563v12.4659zM311.40482,197.04322l-8.76509,-12.36851h3.89559l8.81378,12.36851zM291.73207,184.86949l-1.60693,-1.70432h10.66419c3.40864,0 5.98948,-0.74666 7.74249,-2.23997c1.78548,-1.49331 2.67822,-3.58719 2.67822,-6.28165c0,-2.72692 -0.89274,-4.83703 -2.67822,-6.33034c-1.75302,-1.49331 -4.33385,-2.23997 -7.74249,-2.23997h-10.66419l1.60693,-1.70432zM330.97491,197.04322v-12.66068l0.82781,2.23997l-14.46239,-23.66573h3.8469l12.70938,20.79273h-2.04519l12.70938,-20.79273h3.60342l-14.46239,23.66573l0.82781,-2.23997v12.66068z"/></g></g></svg>