<svg version="1.1" xmlns="http://www.w3.org/2000/svg" xmlns:xlink="http://www.w3.org/1999/xlink" width="53.08787" height="53.08787" viewBox="0,0,53.08787,53.08787"><g transform="translate(-213.45607,-153.45607)"><g data-paper-data="{&quot;isPaintingLayer&quot;:true}" fill-rule="nonzero" stroke-width="1" stroke-linejoin="miter" stroke-miterlimit="10" stroke-dasharray="" stroke-dashoffset="0" style="mix-blend-mode: normal"><path d="M235.41209,188.09242h-2.62614c-0.07781,0 -0.11671,-0.0389 -0.11671,-0.11671l0.01945,-15.9514c0,-0.06485 0.03242,-0.09726 0.09726,-0.09726h2.60669c0.06485,0 0.09727,0.03242 0.09727,0.09726l0.01945,15.9514c0,0.07781 -0.03242,0.11671 -0.09726,0.11671zM242.31192,188.32586c-0.98562,0 -1.86101,-0.21398 -2.62615,-0.64195c-0.75217,-0.42796 -1.34225,-0.9921 -1.77021,-1.6924c-0.42796,-0.71328 -0.64195,-1.49139 -0.64195,-2.33435l0.01945,-7.3532c0,-0.8689 0.22048,-1.64701 0.66141,-2.33435c0.415,-0.68733 0.99859,-1.2385 1.75076,-1.6535c0.76515,-0.42796 1.63405,-0.64196 2.6067,-0.64196c0.99859,0 1.86748,0.2075 2.6067,0.62249c0.73922,0.415 1.32279,0.97264 1.75076,1.67295c0.42796,0.70031 0.64195,1.47842 0.64195,2.33435l0.01945,7.35321c0,0.84296 -0.2075,1.62108 -0.62249,2.33435c-0.44093,0.7003 -1.03749,1.26444 -1.78966,1.6924c-0.75217,0.42796 -1.62108,0.64195 -2.6067,0.64195zM244.52956,183.65717l-0.01945,-7.35321c0,-0.54468 -0.2075,-0.98561 -0.62249,-1.32279c-0.40203,-0.35015 -0.92726,-0.52523 -1.57569,-0.52523c-0.6614,0 -1.19312,0.17508 -1.59514,0.52523c-0.40203,0.33719 -0.60304,0.77812 -0.60304,1.32279v7.35321c0,0.57062 0.20101,1.02452 0.60304,1.36171c0.40203,0.33719 0.93375,0.50577 1.59514,0.50577c0.64843,0 1.18014,-0.16859 1.59513,-0.50577c0.415,-0.33719 0.62249,-0.79109 0.62249,-1.36171z" fill="#ffffff" stroke="none" stroke-linecap="square"/><path d="M214.18965,201.64488c0,-10.79152 -0.23358,-38.49356 -0.23358,-43.91264c0,-1.75017 1.66459,-3.77616 3.08193,-3.77616c5.2641,0 36.67337,0 46.01484,0c1.59891,0 2.9911,1.89485 2.9911,3.30901c0,5.13094 0,34.95285 0,45.08053c0,2.02997 -1.48281,3.69833 -3.22468,3.69833c-9.57549,0 -40.16279,0 -45.54768,0c-1.53074,0 -3.08193,-1.57555 -3.08193,-4.39907z" fill-opacity="0.14835" fill="#ffffff" stroke="#ffffff" stroke-linecap="butt"/></g></g></svg>