<svg version="1.1" xmlns="http://www.w3.org/2000/svg" xmlns:xlink="http://www.w3.org/1999/xlink" width="172.166" height="11.352" viewBox="0,0,172.166,11.352"><g transform="translate(-153.917,-174.324)"><g data-paper-data="{&quot;isPaintingLayer&quot;:true}" fill="#ffffff" fill-rule="nonzero" stroke="none" stroke-width="1" stroke-linecap="butt" stroke-linejoin="miter" stroke-miterlimit="10" stroke-dasharray="" stroke-dashoffset="0" style="mix-blend-mode: normal"><path d="M153.917,183.288v-8.4h3.144c0.712,0 1.324,0.116 1.836,0.348c0.512,0.224 0.904,0.552 1.176,0.984c0.28,0.424 0.42,0.94 0.42,1.548c0,0.592 -0.14,1.104 -0.42,1.536c-0.272,0.424 -0.664,0.752 -1.176,0.984c-0.512,0.232 -1.124,0.348 -1.836,0.348h-2.652l0.396,-0.42v3.072zM154.805,180.288l-0.396,-0.432h2.628c0.84,0 1.476,-0.18 1.908,-0.54c0.44,-0.368 0.66,-0.884 0.66,-1.548c0,-0.672 -0.22,-1.192 -0.66,-1.56c-0.432,-0.368 -1.068,-0.552 -1.908,-0.552h-2.628l0.396,-0.42zM162.08075,183.288v-6.3h0.81605v1.716l-0.084,-0.3c0.176,-0.48 0.472,-0.844 0.888,-1.092c0.416,-0.256 0.932,-0.384 1.548,-0.384v0.828c-0.032,0 -0.064,0 -0.096,0c-0.032,-0.008 -0.064,-0.012 -0.096,-0.012c-0.664,0 -1.184,0.204 -1.56,0.612c-0.376,0.4 -0.564,0.972 -0.564,1.716v3.216zM169.4208,183.348c-0.656,0 -1.232,-0.136 -1.728,-0.408c-0.496,-0.28 -0.884,-0.66 -1.164,-1.14c-0.28,-0.488 -0.42,-1.044 -0.42,-1.668c0,-0.624 0.132,-1.176 0.396,-1.656c0.272,-0.48 0.64,-0.856 1.104,-1.128c0.472,-0.28 1,-0.42 1.584,-0.42c0.592,0 1.116,0.136 1.572,0.408c0.464,0.264 0.828,0.64 1.092,1.128c0.264,0.48 0.396,1.036 0.396,1.668c0,0.04 -0.004,0.084 -0.012,0.132c0,0.04 0,0.084 0,0.132h-5.484v-0.636h5.028l-0.336,0.252c0,-0.456 -0.1,-0.86 -0.3,-1.212c-0.192,-0.36 -0.456,-0.64 -0.792,-0.84c-0.336,-0.2 -0.724,-0.3 -1.164,-0.3c-0.432,0 -0.82,0.1 -1.164,0.3c-0.344,0.2 -0.612,0.48 -0.804,0.84c-0.192,0.36 -0.288,0.772 -0.288,1.236v0.132c0,0.48 0.104,0.904 0.312,1.272c0.216,0.36 0.512,0.644 0.888,0.852c0.384,0.2 0.82,0.3 1.308,0.3c0.384,0 0.74,-0.068 1.068,-0.204c0.336,-0.136 0.624,-0.344 0.864,-0.624l0.48,0.552c-0.28,0.336 -0.632,0.592 -1.056,0.768c-0.416,0.176 -0.876,0.264 -1.38,0.264zM175.679,183.348c-0.52,0 -1.012,-0.072 -1.476,-0.216c-0.464,-0.152 -0.828,-0.34 -1.092,-0.564l0.384,-0.672c0.256,0.192 0.584,0.36 0.984,0.504c0.4,0.136 0.82,0.204 1.26,0.204c0.6,0 1.032,-0.092 1.296,-0.276c0.264,-0.192 0.396,-0.444 0.396,-0.756c0,-0.232 -0.076,-0.412 -0.228,-0.54c-0.144,-0.136 -0.336,-0.236 -0.576,-0.3c-0.24,-0.072 -0.508,-0.132 -0.804,-0.18c-0.296,-0.048 -0.592,-0.104 -0.888,-0.168c-0.288,-0.064 -0.552,-0.156 -0.792,-0.276c-0.24,-0.128 -0.436,-0.3 -0.588,-0.516c-0.144,-0.216 -0.216,-0.504 -0.216,-0.864c0,-0.344 0.096,-0.652 0.288,-0.924c0.192,-0.272 0.472,-0.484 0.84,-0.636c0.376,-0.16 0.832,-0.24 1.368,-0.24c0.408,0 0.816,0.056 1.224,0.168c0.408,0.104 0.744,0.244 1.008,0.42l-0.372,0.684c-0.28,-0.192 -0.58,-0.328 -0.9,-0.408c-0.32,-0.088 -0.64,-0.132 -0.96,-0.132c-0.568,0 -0.988,0.1 -1.26,0.3c-0.264,0.192 -0.396,0.44 -0.396,0.744c0,0.24 0.072,0.428 0.216,0.564c0.152,0.136 0.348,0.244 0.588,0.324c0.248,0.072 0.516,0.132 0.804,0.18c0.296,0.048 0.588,0.108 0.876,0.18c0.296,0.064 0.564,0.156 0.804,0.276c0.248,0.112 0.444,0.276 0.588,0.492c0.152,0.208 0.228,0.484 0.228,0.828c0,0.368 -0.104,0.688 -0.312,0.96c-0.2,0.264 -0.496,0.472 -0.888,0.624c-0.384,0.144 -0.852,0.216 -1.404,0.216zM181.5384,183.348c-0.52,0 -1.012,-0.072 -1.476,-0.216c-0.464,-0.152 -0.828,-0.34 -1.092,-0.564l0.384,-0.672c0.256,0.192 0.584,0.36 0.984,0.504c0.4,0.136 0.82,0.204 1.26,0.204c0.6,0 1.032,-0.092 1.296,-0.276c0.264,-0.192 0.396,-0.444 0.396,-0.756c0,-0.232 -0.076,-0.412 -0.228,-0.54c-0.144,-0.136 -0.336,-0.236 -0.576,-0.3c-0.24,-0.072 -0.508,-0.132 -0.804,-0.18c-0.296,-0.048 -0.592,-0.104 -0.888,-0.168c-0.288,-0.064 -0.552,-0.156 -0.792,-0.276c-0.24,-0.128 -0.436,-0.3 -0.588,-0.516c-0.144,-0.216 -0.216,-0.504 -0.216,-0.864c0,-0.344 0.096,-0.652 0.288,-0.924c0.192,-0.272 0.472,-0.484 0.84,-0.636c0.376,-0.16 0.832,-0.24 1.368,-0.24c0.408,0 0.816,0.056 1.224,0.168c0.408,0.104 0.744,0.244 1.008,0.42l-0.372,0.684c-0.28,-0.192 -0.58,-0.328 -0.9,-0.408c-0.32,-0.088 -0.64,-0.132 -0.96,-0.132c-0.568,0 -0.988,0.1 -1.26,0.3c-0.264,0.192 -0.396,0.44 -0.396,0.744c0,0.24 0.072,0.428 0.216,0.564c0.152,0.136 0.348,0.244 0.588,0.324c0.248,0.072 0.516,0.132 0.804,0.18c0.296,0.048 0.588,0.108 0.876,0.18c0.296,0.064 0.564,0.156 0.804,0.276c0.248,0.112 0.444,0.276 0.588,0.492c0.152,0.208 0.228,0.484 0.228,0.828c0,0.368 -0.104,0.688 -0.312,0.96c-0.2,0.264 -0.496,0.472 -0.888,0.624c-0.384,0.144 -0.852,0.216 -1.404,0.216zM189.5304,174.384l-0.528,2.22l-0.096,-0.516c0.192,0 0.348,0.06 0.468,0.18c0.12,0.112 0.18,0.264 0.18,0.456c0,0.192 -0.06,0.348 -0.18,0.468c-0.12,0.12 -0.268,0.18 -0.444,0.18c-0.192,0 -0.348,-0.06 -0.468,-0.18c-0.112,-0.128 -0.168,-0.284 -0.168,-0.468c0,-0.072 0.004,-0.136 0.012,-0.192c0.008,-0.056 0.024,-0.124 0.048,-0.204c0.024,-0.08 0.056,-0.176 0.096,-0.288l0.504,-1.656zM191.5693,183.288v-8.4h3.144c0.712,0 1.324,0.116 1.836,0.348c0.512,0.224 0.904,0.552 1.176,0.984c0.28,0.424 0.42,0.94 0.42,1.548c0,0.592 -0.14,1.104 -0.42,1.536c-0.272,0.424 -0.664,0.752 -1.176,0.984c-0.512,0.224 -1.124,0.336 -1.836,0.336h-2.652l0.396,-0.408v3.072zM197.3053,183.288l-2.16,-3.048h0.96l2.172,3.048zM192.4573,180.288l-0.396,-0.42h2.628c0.84,0 1.476,-0.184 1.908,-0.552c0.44,-0.368 0.66,-0.884 0.66,-1.548c0,-0.672 -0.22,-1.192 -0.66,-1.56c-0.432,-0.368 -1.068,-0.552 -1.908,-0.552h-2.628l0.396,-0.42zM199.5452,177.312l0.528,-2.208l0.096,0.504c-0.184,0 -0.34,-0.056 -0.468,-0.168c-0.12,-0.12 -0.18,-0.276 -0.18,-0.468c0,-0.192 0.06,-0.348 0.18,-0.468c0.128,-0.12 0.28,-0.18 0.456,-0.18c0.184,0 0.332,0.064 0.444,0.192c0.12,0.12 0.18,0.272 0.18,0.456c0,0.064 -0.004,0.128 -0.012,0.192c-0.008,0.064 -0.024,0.136 -0.048,0.216c-0.016,0.072 -0.044,0.164 -0.084,0.276l-0.516,1.656zM205.7448,183.288v-6.3h0.852v6.3zM206.1768,175.596c-0.176,0 -0.324,-0.06 -0.444,-0.18c-0.12,-0.12 -0.18,-0.264 -0.18,-0.432c0,-0.168 0.06,-0.308 0.18,-0.42c0.12,-0.12 0.268,-0.18 0.444,-0.18c0.176,0 0.324,0.056 0.444,0.168c0.12,0.112 0.18,0.252 0.18,0.42c0,0.176 -0.06,0.324 -0.18,0.444c-0.112,0.12 -0.26,0.18 -0.444,0.18zM209.1115,183.288v-7.092c0,-0.56 0.164,-1.012 0.492,-1.356c0.328,-0.344 0.8,-0.516 1.416,-0.516c0.24,0 0.472,0.032 0.696,0.096c0.224,0.064 0.412,0.164 0.564,0.3l-0.288,0.636c-0.12,-0.104 -0.26,-0.18 -0.42,-0.228c-0.16,-0.056 -0.332,-0.084 -0.516,-0.084c-0.36,0 -0.636,0.1 -0.828,0.3c-0.192,0.2 -0.288,0.496 -0.288,0.888v0.96l0.024,0.396v5.7zM207.9835,177.696v-0.708h3.9v0.708zM216.2225,185.676c-0.296,0 -0.58,-0.048 -0.852,-0.144c-0.264,-0.096 -0.492,-0.24 -0.684,-0.432l0.396,-0.636c0.16,0.152 0.332,0.268 0.516,0.348c0.192,0.088 0.404,0.132 0.636,0.132c0.28,0 0.52,-0.08 0.72,-0.24c0.208,-0.152 0.404,-0.424 0.588,-0.816l0.408,-0.924l0.096,-0.132l2.592,-5.844h0.84l-3.156,7.056c-0.176,0.408 -0.372,0.732 -0.588,0.972c-0.208,0.24 -0.436,0.408 -0.684,0.504c-0.248,0.104 -0.524,0.156 -0.828,0.156zM217.9025,183.468l-2.904,-6.48h0.888l2.568,5.784zM225.0706,183.348c-0.608,0 -1.156,-0.136 -1.644,-0.408c-0.48,-0.28 -0.86,-0.66 -1.14,-1.14c-0.28,-0.488 -0.42,-1.044 -0.42,-1.668c0,-0.632 0.14,-1.188 0.42,-1.668c0.28,-0.48 0.66,-0.856 1.14,-1.128c0.48,-0.272 1.028,-0.408 1.644,-0.408c0.624,0 1.176,0.136 1.656,0.408c0.488,0.272 0.868,0.648 1.14,1.128c0.28,0.48 0.42,1.036 0.42,1.668c0,0.624 -0.14,1.18 -0.42,1.668c-0.272,0.48 -0.652,0.86 -1.14,1.14c-0.488,0.272 -1.04,0.408 -1.656,0.408zM225.0706,182.592c0.456,0 0.86,-0.1 1.212,-0.3c0.352,-0.208 0.628,-0.496 0.828,-0.864c0.208,-0.376 0.312,-0.808 0.312,-1.296c0,-0.496 -0.104,-0.928 -0.312,-1.296c-0.2,-0.368 -0.476,-0.652 -0.828,-0.852c-0.352,-0.208 -0.752,-0.312 -1.2,-0.312c-0.448,0 -0.848,0.104 -1.2,0.312c-0.352,0.2 -0.632,0.484 -0.84,0.852c-0.208,0.368 -0.312,0.8 -0.312,1.296c0,0.488 0.104,0.92 0.312,1.296c0.208,0.368 0.488,0.656 0.84,0.864c0.352,0.2 0.748,0.3 1.188,0.3zM232.6301,183.348c-0.536,0 -1.004,-0.1 -1.404,-0.3c-0.4,-0.2 -0.712,-0.5 -0.936,-0.9c-0.216,-0.4 -0.324,-0.9 -0.324,-1.5v-3.66h0.852v3.564c0,0.672 0.164,1.18 0.492,1.524c0.336,0.336 0.804,0.504 1.404,0.504c0.44,0 0.82,-0.088 1.14,-0.264c0.328,-0.184 0.576,-0.448 0.744,-0.792c0.176,-0.344 0.264,-0.756 0.264,-1.236v-3.3h0.852v6.3h-0.816v-1.728l0.132,0.312c-0.2,0.464 -0.512,0.828 -0.936,1.092c-0.416,0.256 -0.904,0.384 -1.464,0.384zM243.9052,183.348c-0.656,0 -1.232,-0.136 -1.728,-0.408c-0.496,-0.28 -0.884,-0.66 -1.164,-1.14c-0.28,-0.488 -0.42,-1.044 -0.42,-1.668c0,-0.624 0.132,-1.176 0.396,-1.656c0.272,-0.48 0.64,-0.856 1.104,-1.128c0.472,-0.28 1,-0.42 1.584,-0.42c0.592,0 1.116,0.136 1.572,0.408c0.464,0.264 0.828,0.64 1.092,1.128c0.264,0.48 0.396,1.036 0.396,1.668c0,0.04 -0.004,0.084 -0.012,0.132c0,0.04 0,0.084 0,0.132h-5.484v-0.636h5.028l-0.336,0.252c0,-0.456 -0.1,-0.86 -0.3,-1.212c-0.192,-0.36 -0.456,-0.64 -0.792,-0.84c-0.336,-0.2 -0.724,-0.3 -1.164,-0.3c-0.432,0 -0.82,0.1 -1.164,0.3c-0.344,0.2 -0.612,0.48 -0.804,0.84c-0.192,0.36 -0.288,0.772 -0.288,1.236v0.132c0,0.48 0.104,0.904 0.312,1.272c0.216,0.36 0.512,0.644 0.888,0.852c0.384,0.2 0.82,0.3 1.308,0.3c0.384,0 0.74,-0.068 1.068,-0.204c0.336,-0.136 0.624,-0.344 0.864,-0.624l0.48,0.552c-0.28,0.336 -0.632,0.592 -1.056,0.768c-0.416,0.176 -0.876,0.264 -1.38,0.264zM249.9742,183.288l-2.796,-6.3h0.888l2.568,5.844h-0.42l2.6038,-5.844h0.84l-2.8078,6.3zM257.358,183.348c-0.656,0 -1.232,-0.136 -1.728,-0.408c-0.496,-0.28 -0.884,-0.66 -1.164,-1.14c-0.28,-0.488 -0.42,-1.044 -0.42,-1.668c0,-0.624 0.132,-1.176 0.396,-1.656c0.272,-0.48 0.64,-0.856 1.104,-1.128c0.472,-0.28 1,-0.42 1.584,-0.42c0.592,0 1.116,0.136 1.572,0.408c0.464,0.264 0.828,0.64 1.092,1.128c0.264,0.48 0.396,1.036 0.396,1.668c0,0.04 -0.004,0.084 -0.012,0.132c0,0.04 0,0.084 0,0.132h-5.484v-0.636h5.028l-0.336,0.252c0,-0.456 -0.1,-0.86 -0.3,-1.212c-0.192,-0.36 -0.456,-0.64 -0.792,-0.84c-0.336,-0.2 -0.724,-0.3 -1.164,-0.3c-0.432,0 -0.82,0.1 -1.164,0.3c-0.344,0.2 -0.612,0.48 -0.804,0.84c-0.192,0.36 -0.288,0.772 -0.288,1.236v0.132c0,0.48 0.104,0.904 0.312,1.272c0.216,0.36 0.512,0.644 0.888,0.852c0.384,0.2 0.82,0.3 1.308,0.3c0.384,0 0.74,-0.068 1.068,-0.204c0.336,-0.136 0.624,-0.344 0.864,-0.624l0.48,0.552c-0.28,0.336 -0.632,0.592 -1.056,0.768c-0.416,0.176 -0.876,0.264 -1.38,0.264zM261.925,183.288v-6.3h0.816v1.716l-0.084,-0.3c0.176,-0.48 0.472,-0.844 0.888,-1.092c0.416,-0.256 0.932,-0.384 1.548,-0.384v0.828c-0.032,0 -0.064,0 -0.096,0c-0.032,-0.008 -0.064,-0.012 -0.096,-0.012c-0.664,0 -1.184,0.204 -1.56,0.612c-0.376,0.4 -0.564,0.972 -0.564,1.716v3.216zM270.026,183.288v-7.092c0,-0.56 0.164,-1.012 0.492,-1.356c0.328,-0.344 0.8,-0.516 1.416,-0.516c0.24,0 0.472,0.032 0.696,0.096c0.224,0.064 0.412,0.164 0.564,0.3l-0.288,0.636c-0.12,-0.104 -0.26,-0.18 -0.42,-0.228c-0.16,-0.056 -0.332,-0.084 -0.516,-0.084c-0.36,0 -0.636,0.1 -0.828,0.3c-0.192,0.2 -0.288,0.496 -0.288,0.888v0.96l0.024,0.396v5.7zM268.898,177.696v-0.708h3.9v0.708zM276.518,183.348c-0.656,0 -1.232,-0.136 -1.728,-0.408c-0.496,-0.28 -0.884,-0.66 -1.164,-1.14c-0.28,-0.488 -0.42,-1.044 -0.42,-1.668c0,-0.624 0.132,-1.176 0.396,-1.656c0.272,-0.48 0.64,-0.856 1.104,-1.128c0.472,-0.28 1,-0.42 1.584,-0.42c0.592,0 1.116,0.136 1.572,0.408c0.464,0.264 0.828,0.64 1.092,1.128c0.264,0.48 0.396,1.036 0.396,1.668c0,0.04 -0.004,0.084 -0.012,0.132c0,0.04 0,0.084 0,0.132h-5.484v-0.636h5.028l-0.336,0.252c0,-0.456 -0.1,-0.86 -0.3,-1.212c-0.192,-0.36 -0.456,-0.64 -0.792,-0.84c-0.336,-0.2 -0.724,-0.3 -1.164,-0.3c-0.432,0 -0.82,0.1 -1.164,0.3c-0.344,0.2 -0.612,0.48 -0.804,0.84c-0.192,0.36 -0.288,0.772 -0.288,1.236v0.132c0,0.48 0.104,0.904 0.312,1.272c0.216,0.36 0.512,0.644 0.888,0.852c0.384,0.2 0.82,0.3 1.308,0.3c0.384,0 0.74,-0.068 1.068,-0.204c0.336,-0.136 0.624,-0.344 0.864,-0.624l0.48,0.552c-0.28,0.336 -0.632,0.592 -1.056,0.768c-0.416,0.176 -0.876,0.264 -1.38,0.264zM283.761,183.348c-0.656,0 -1.232,-0.136 -1.728,-0.408c-0.496,-0.28 -0.884,-0.66 -1.164,-1.14c-0.28,-0.488 -0.42,-1.044 -0.42,-1.668c0,-0.624 0.132,-1.176 0.396,-1.656c0.272,-0.48 0.64,-0.856 1.104,-1.128c0.472,-0.28 1,-0.42 1.584,-0.42c0.592,0 1.116,0.136 1.572,0.408c0.464,0.264 0.828,0.64 1.092,1.128c0.264,0.48 0.396,1.036 0.396,1.668c0,0.04 -0.004,0.084 -0.012,0.132c0,0.04 0,0.084 0,0.132h-5.484v-0.636h5.028l-0.336,0.252c0,-0.456 -0.1,-0.86 -0.3,-1.212c-0.192,-0.36 -0.456,-0.64 -0.792,-0.84c-0.336,-0.2 -0.724,-0.3 -1.164,-0.3c-0.432,0 -0.82,0.1 -1.164,0.3c-0.344,0.2 -0.612,0.48 -0.804,0.84c-0.192,0.36 -0.288,0.772 -0.288,1.236v0.132c0,0.48 0.104,0.904 0.312,1.272c0.216,0.36 0.512,0.644 0.888,0.852c0.384,0.2 0.82,0.3 1.308,0.3c0.384,0 0.74,-0.068 1.068,-0.204c0.336,-0.136 0.624,-0.344 0.864,-0.624l0.48,0.552c-0.28,0.336 -0.632,0.592 -1.056,0.768c-0.416,0.176 -0.876,0.264 -1.38,0.264zM288.327,183.288v-8.904h0.852v8.904zM296.382,183.348c-0.52,0 -1.012,-0.072 -1.476,-0.216c-0.464,-0.152 -0.828,-0.34 -1.092,-0.564l0.384,-0.672c0.256,0.192 0.584,0.36 0.984,0.504c0.4,0.136 0.82,0.204 1.26,0.204c0.6,0 1.032,-0.092 1.296,-0.276c0.264,-0.192 0.396,-0.444 0.396,-0.756c0,-0.232 -0.076,-0.412 -0.228,-0.54c-0.144,-0.136 -0.336,-0.236 -0.576,-0.3c-0.24,-0.072 -0.508,-0.132 -0.804,-0.18c-0.296,-0.048 -0.592,-0.104 -0.888,-0.168c-0.288,-0.064 -0.552,-0.156 -0.792,-0.276c-0.24,-0.128 -0.436,-0.3 -0.588,-0.516c-0.144,-0.216 -0.216,-0.504 -0.216,-0.864c0,-0.344 0.096,-0.652 0.288,-0.924c0.192,-0.272 0.472,-0.484 0.84,-0.636c0.376,-0.16 0.832,-0.24 1.368,-0.24c0.408,0 0.816,0.056 1.224,0.168c0.408,0.104 0.744,0.244 1.008,0.42l-0.372,0.684c-0.28,-0.192 -0.58,-0.328 -0.9,-0.408c-0.32,-0.088 -0.64,-0.132 -0.96,-0.132c-0.568,0 -0.988,0.1 -1.26,0.3c-0.264,0.192 -0.396,0.44 -0.396,0.744c0,0.24 0.072,0.428 0.216,0.564c0.152,0.136 0.348,0.244 0.588,0.324c0.248,0.072 0.516,0.132 0.804,0.18c0.296,0.048 0.588,0.108 0.876,0.18c0.296,0.064 0.564,0.156 0.804,0.276c0.248,0.112 0.444,0.276 0.588,0.492c0.152,0.208 0.228,0.484 0.228,0.828c0,0.368 -0.104,0.688 -0.312,0.96c-0.2,0.264 -0.496,0.472 -0.888,0.624c-0.384,0.144 -0.852,0.216 -1.404,0.216zM302.542,183.348c-0.592,0 -1.048,-0.16 -1.368,-0.48c-0.32,-0.32 -0.48,-0.772 -0.48,-1.356v-5.916h0.852v5.868c0,0.368 0.092,0.652 0.276,0.852c0.192,0.2 0.464,0.3 0.816,0.3c0.376,0 0.688,-0.108 0.936,-0.324l0.3,0.612c-0.168,0.152 -0.372,0.264 -0.612,0.336c-0.232,0.072 -0.472,0.108 -0.72,0.108zM299.566,177.696v-0.708h3.9v0.708zM308.029,183.348c-0.536,0 -1.004,-0.1 -1.404,-0.3c-0.4,-0.2 -0.712,-0.5 -0.936,-0.9c-0.216,-0.4 -0.324,-0.9 -0.324,-1.5v-3.66h0.852v3.564c0,0.672 0.164,1.18 0.492,1.524c0.336,0.336 0.804,0.504 1.404,0.504c0.44,0 0.82,-0.088 1.14,-0.264c0.328,-0.184 0.576,-0.448 0.744,-0.792c0.176,-0.344 0.264,-0.756 0.264,-1.236v-3.3h0.852v6.3h-0.817v-1.728l0.133,0.312c-0.2,0.464 -0.512,0.828 -0.936,1.092c-0.416,0.256 -0.904,0.384 -1.464,0.384zM316.103,183.348c-0.624,0 -1.184,-0.136 -1.68,-0.408c-0.488,-0.28 -0.872,-0.66 -1.152,-1.14c-0.28,-0.488 -0.42,-1.044 -0.42,-1.668c0,-0.632 0.14,-1.188 0.42,-1.668c0.28,-0.48 0.664,-0.856 1.152,-1.128c0.496,-0.272 1.056,-0.408 1.68,-0.408c0.536,0 1.02,0.104 1.452,0.312c0.432,0.208 0.772,0.52 1.02,0.936l-0.636,0.432c-0.216,-0.32 -0.484,-0.556 -0.804,-0.708c-0.32,-0.152 -0.668,-0.228 -1.044,-0.228c-0.448,0 -0.852,0.104 -1.212,0.312c-0.36,0.2 -0.644,0.484 -0.852,0.852c-0.208,0.368 -0.312,0.8 -0.312,1.296c0,0.496 0.104,0.928 0.312,1.296c0.208,0.368 0.492,0.656 0.852,0.864c0.36,0.2 0.764,0.3 1.212,0.3c0.376,0 0.724,-0.076 1.044,-0.228c0.32,-0.152 0.588,-0.384 0.804,-0.696l0.636,0.432c-0.248,0.408 -0.588,0.72 -1.02,0.936c-0.432,0.208 -0.916,0.312 -1.452,0.312zM320.827,181.656l0.024,-1.092l3.924,-3.576h1.044l-2.772,2.652l-0.48,0.408zM320.155,183.288v-8.904h0.852v8.904zM325.039,183.288l-2.628,-3.276l0.552,-0.66l3.12,3.936z"/></g></g></svg>