<svg version="1.1" xmlns="http://www.w3.org/2000/svg" xmlns:xlink="http://www.w3.org/1999/xlink" width="53.08787" height="53.08787" viewBox="0,0,53.08787,53.08787"><g transform="translate(-213.45607,-153.45607)"><g data-paper-data="{&quot;isPaintingLayer&quot;:true}" fill-rule="nonzero" stroke-width="1" stroke-linejoin="miter" stroke-miterlimit="10" stroke-dasharray="" stroke-dashoffset="0" style="mix-blend-mode: normal"><path d="M240.00974,188.32586c-0.80406,0 -1.55623,-0.21398 -2.25654,-0.64195c-0.68733,-0.42796 -1.24499,-0.98562 -1.67295,-1.67295c-0.415,-0.70031 -0.62249,-1.47194 -0.62249,-2.3149v-1.43951c0,-0.64843 0.1232,-1.25149 0.3696,-1.80913c0.25938,-0.57062 0.59656,-1.06991 1.01155,-1.49787c-0.33719,-0.37609 -0.60304,-0.81702 -0.79757,-1.32281c-0.19453,-0.50578 -0.29179,-1.04396 -0.29179,-1.61458c0,-0.79109 0.18804,-1.52381 0.56413,-2.19818c0.37609,-0.6614 0.88836,-1.18015 1.53679,-1.55624c0.64843,-0.38906 1.36818,-0.58358 2.15927,-0.58358c0.79109,0 1.51084,0.19453 2.15927,0.58358c0.63546,0.38906 1.14772,0.91429 1.53678,1.57569c0.38906,0.64843 0.58359,1.37468 0.58359,2.17872c0,0.57062 -0.09727,1.10881 -0.2918,1.61458c-0.19453,0.49281 -0.46038,0.93375 -0.79757,1.32281c0.415,0.415 0.73922,0.9078 0.97265,1.47842c0.2464,0.57062 0.3696,1.18015 0.3696,1.82858v1.43952c0,0.84296 -0.201,1.61458 -0.60303,2.3149c-0.415,0.71327 -0.96617,1.27741 -1.6535,1.6924c-0.67438,0.415 -1.43303,0.62249 -2.27599,0.62249zM240.00974,177.56842c0.415,0 0.75867,-0.14914 1.03101,-0.44743c0.28531,-0.31124 0.42796,-0.68085 0.42796,-1.10881c0,-0.42796 -0.14265,-0.79757 -0.42796,-1.10881c-0.27234,-0.31124 -0.61601,-0.46688 -1.03101,-0.46688c-0.40203,0 -0.75218,0.15563 -1.05047,0.46688c-0.28531,0.31124 -0.42796,0.68086 -0.42796,1.10881c0,0.415 0.14265,0.77812 0.42796,1.08936c0.29828,0.31124 0.64844,0.46688 1.05047,0.46688zM240.00974,185.5441c0.47984,0 0.88835,-0.17509 1.22553,-0.52523c0.33719,-0.36312 0.50577,-0.80406 0.50577,-1.32279v-1.43952c0,-0.49281 -0.16859,-0.92078 -0.50577,-1.2839c-0.33719,-0.36312 -0.74569,-0.54468 -1.22553,-0.54468c-0.47984,0 -0.88835,0.18155 -1.22553,0.54468c-0.33719,0.35015 -0.50578,0.77812 -0.50578,1.2839v1.43952c0,0.49281 0.16859,0.92724 0.50578,1.30334c0.33719,0.36312 0.7457,0.54469 1.22553,0.54469z" fill="#ffffff" stroke="none" stroke-linecap="square"/><path d="M214.18965,201.64488c0,-10.79152 -0.23358,-38.49356 -0.23358,-43.91264c0,-1.75017 1.66459,-3.77616 3.08193,-3.77616c5.2641,0 36.67337,0 46.01484,0c1.59891,0 2.9911,1.89485 2.9911,3.30901c0,5.13094 0,34.95285 0,45.08053c0,2.02997 -1.48281,3.69833 -3.22468,3.69833c-9.57549,0 -40.16279,0 -45.54768,0c-1.53074,0 -3.08193,-1.57555 -3.08193,-4.39907z" fill-opacity="0.14835" fill="#ffffff" stroke="#ffffff" stroke-linecap="butt"/></g></g></svg>